<svg width="59" height="57" viewBox="0 0 59 57" fill="none" xmlns="http://www.w3.org/2000/svg">
<path d="M4.05869 30.3308C-1.31904 33.4256 -1.31904 38.4482 4.05869 41.5429C8.37103 44.0288 14.8649 44.5108 20.0143 43.0142C21.2573 42.6337 22.4495 42.1517 23.4896 41.5429C28.8673 38.4482 28.8673 33.4256 23.4896 30.3308C18.1118 27.2361 9.41107 27.2361 4.05869 30.3308Z" fill="#E5E4DF"/>
<path d="M17.9089 16.1512L26.9902 33.7557L27.5482 35.9118C27.5482 37.9412 26.2038 39.9959 23.5149 41.5432C18.1372 44.638 9.41104 44.638 4.0333 41.5432C1.34443 39.9959 0 37.9665 0 35.9118L0.761001 33.4005L9.63934 16.1512V8.18604H17.9089V16.1512Z" fill="#EFEEE8"/>
<path d="M25.6962 35.1509L25.2143 33.1977L20.0648 23.2539H7.45758L2.40961 33.0201L1.82617 35.1509C1.82617 36.9266 2.99304 38.6769 5.32678 40.0213C9.99425 42.7102 17.5535 42.7102 22.221 40.0213C24.5294 38.6769 25.6962 36.9012 25.6962 35.1509Z" fill="#FF8600"/>
<path d="M13.7742 27.8455C17.3466 27.8455 20.2427 26.176 20.2427 24.1166C20.2427 22.0572 17.3466 20.3877 13.7742 20.3877C10.2017 20.3877 7.30566 22.0572 7.30566 24.1166C7.30566 26.176 10.2017 27.8455 13.7742 27.8455Z" fill="#FFE200"/>
<path d="M13.7741 9.70805C15.9876 9.70805 17.782 8.67455 17.782 7.39968C17.782 6.1248 15.9876 5.09131 13.7741 5.09131C11.5605 5.09131 9.76611 6.1248 9.76611 7.39968C9.76611 8.67455 11.5605 9.70805 13.7741 9.70805Z" fill="#EFEEE8"/>
<path d="M5.32678 30.2801C0.659304 32.969 0.659304 37.332 5.32678 40.0209C9.08105 42.1771 14.7125 42.6083 19.2024 41.2892C20.2931 40.9595 21.3078 40.5536 22.221 40.0209C26.8885 37.332 26.8885 32.969 22.221 30.2801C17.5535 27.5912 9.99425 27.5658 5.32678 30.2801Z" fill="#FFC400"/>
<path d="M18.5432 8.64241C18.5432 9.35267 18.0866 10.0629 17.1481 10.5956C16.7929 10.7986 16.3871 10.9761 15.9305 11.103C14.1294 11.6357 11.8971 11.4581 10.3751 10.5956C9.43658 10.0629 8.97998 9.35267 8.97998 8.64241V7.4248H18.5179V8.64241H18.5432Z" fill="#E5E4DF"/>
<path d="M10.4002 11.6108C11.8968 12.4733 14.1544 12.6509 15.9555 12.1182C16.3867 11.9913 16.7926 11.8138 17.1731 11.6108C17.4775 11.4333 17.7311 11.2557 17.9341 11.0528V10.0381C17.7311 10.241 17.4775 10.444 17.1731 10.5962C16.8179 10.7991 16.4121 10.9767 15.9555 11.1035C14.1544 11.6362 11.9222 11.4586 10.4002 10.5962C10.0958 10.4186 9.84209 10.241 9.63916 10.0381V11.0528C9.84209 11.2303 10.0958 11.4333 10.4002 11.6108Z" fill="#E5E4DF"/>
<path d="M18.5432 8.64241C18.5432 9.35267 18.0866 10.0629 17.1481 10.5956C16.7929 10.7986 16.3871 10.9761 15.9305 11.103C14.1294 11.6357 11.8971 11.4581 10.3751 10.5956C9.43658 10.0629 8.97998 9.35267 8.97998 8.64241V7.4248H18.5179V8.64241H18.5432Z" fill="#EFEEE8"/>
<path d="M17.1481 5.4719C15.2963 4.4065 12.2523 4.4065 10.4005 5.4719C8.54878 6.5373 8.54878 8.28761 10.4005 9.37837C11.8972 10.2408 14.1548 10.4184 15.9558 9.88571C16.3871 9.75887 16.793 9.58131 17.1735 9.37837C18.9999 8.28761 18.9999 6.5373 17.1481 5.4719ZM16.3617 8.74421C16.0827 8.89641 15.7783 9.02324 15.4232 9.12471C14.0533 9.53057 12.3284 9.40374 11.1615 8.74421C9.74101 7.9071 9.74101 6.58804 11.1615 5.75094C12.5821 4.91384 14.9158 4.91384 16.3363 5.75094C17.7823 6.56267 17.7823 7.9071 16.3617 8.74421Z" fill="white"/>
<path d="M58.7494 9.70814C58.7494 7.3744 57.3035 5.0153 54.4117 3.1889C47.9179 -0.920508 36.8833 -1.02197 30.1358 2.85913C26.8635 4.76163 25.2147 7.2222 25.24 9.70814V46.8703C25.24 49.3563 26.8889 51.8168 30.1612 53.7193C36.7058 57.499 47.3091 57.499 53.879 53.7193C57.1513 51.8422 58.8002 49.3563 58.8002 46.8703L58.7494 9.70814Z" fill="#E5E4DF"/>
<path d="M56.9483 45.9062V25.1562H27.0156V45.9062C27.0156 48.1131 28.4869 50.32 31.4041 52.0196C37.2384 55.3933 46.7255 55.3933 52.5852 52.0196C55.477 50.32 56.9483 48.1131 56.9483 45.9062Z" fill="#B21942"/>
<path d="M41.982 33.9085C50.2477 33.9085 56.9483 30.0357 56.9483 25.2584C56.9483 20.4812 50.2477 16.6084 41.982 16.6084C33.7163 16.6084 27.0156 20.4812 27.0156 25.2584C27.0156 30.0357 33.7163 33.9085 41.982 33.9085Z" fill="#FF3B5C"/>
<path d="M31.3787 39.7935C25.5443 43.1673 25.5443 48.6465 31.3787 52.0202C36.0715 54.7345 43.1488 55.2672 48.7549 53.6183C50.1247 53.2125 51.393 52.6798 52.5345 52.0202C58.3688 48.6465 58.3688 43.1673 52.5345 39.7935C46.7255 36.3944 37.2384 36.3944 31.3787 39.7935Z" fill="#D82B50"/>
<path d="M49.0088 46.3126C48.8566 46.3126 48.7298 46.2111 48.6791 46.0589C48.6283 45.8813 48.7298 45.7038 48.9074 45.6277C50.3279 45.2218 51.6216 44.6637 52.7377 44.0042C52.8899 43.9027 53.0929 43.9788 53.1944 44.131C53.2958 44.2832 53.2197 44.4862 53.0675 44.5876C51.9007 45.2725 50.5562 45.8306 49.0849 46.2618C49.0596 46.3126 49.0342 46.3126 49.0088 46.3126Z" fill="white"/>
<path d="M49.0088 43.0401C48.8566 43.0401 48.7298 42.9387 48.6791 42.7865C48.6283 42.6089 48.7298 42.4313 48.9074 42.3552C50.3279 41.9493 51.6216 41.3913 52.7377 40.7317C52.8899 40.6303 53.0929 40.7064 53.1944 40.8586C53.2958 41.0108 53.2197 41.2137 53.0675 41.3152C51.9007 42.0001 50.5562 42.5581 49.0849 42.9894C49.0596 43.0401 49.0342 43.0401 49.0088 43.0401Z" fill="white"/>
<path d="M49.0088 39.7677C48.8566 39.7677 48.7298 39.6662 48.6791 39.514C48.6283 39.3364 48.7298 39.1589 48.9074 39.0828C50.3279 38.6769 51.6216 38.1188 52.7377 37.4593C52.8899 37.3578 53.0929 37.4339 53.1944 37.5861C53.2958 37.7383 53.2197 37.9413 53.0675 38.0427C51.9007 38.7276 50.5562 39.2857 49.0849 39.7169C49.0596 39.7677 49.0342 39.7677 49.0088 39.7677Z" fill="white"/>
<path d="M49.0088 36.5206C48.8566 36.5206 48.7298 36.4191 48.6791 36.2669C48.6283 36.0893 48.7298 35.9118 48.9074 35.8357C50.3279 35.4298 51.6216 34.8718 52.7377 34.2122C52.8899 34.1107 53.0929 34.1868 53.1944 34.339C53.2958 34.4913 53.2197 34.6942 53.0675 34.7957C51.9007 35.4806 50.5562 36.0386 49.0849 36.4699C49.0596 36.4952 49.0342 36.5206 49.0088 36.5206Z" fill="white"/>
<path d="M49.0088 33.2486C48.8566 33.2486 48.7298 33.1471 48.6791 32.9949C48.6283 32.8174 48.7298 32.6398 48.9074 32.5637C50.3279 32.1578 51.6216 31.5998 52.7377 30.9402C52.8899 30.8388 53.0929 30.9149 53.1944 31.0671C53.2958 31.2193 53.2197 31.4222 53.0675 31.5237C51.9007 32.2086 50.5562 32.7666 49.0849 33.1979C49.0596 33.2486 49.0342 33.2486 49.0088 33.2486Z" fill="white"/>
<path d="M49.0088 29.9766C48.8566 29.9766 48.7298 29.8752 48.6791 29.723C48.6283 29.5454 48.7298 29.3678 48.9074 29.2917C50.3279 28.8859 51.6216 28.3278 52.7377 27.6683C52.8899 27.5668 53.0929 27.6429 53.1944 27.7951C53.2958 27.9473 53.2197 28.1502 53.0675 28.2517C51.9007 28.9366 50.5562 29.4947 49.0849 29.9259C49.0596 29.9766 49.0342 29.9766 49.0088 29.9766Z" fill="white"/>
<path d="M49.0088 26.7042C48.8566 26.7042 48.7298 26.6027 48.6791 26.4505C48.6283 26.2729 48.7298 26.0954 48.9074 26.0193C50.3279 25.6134 51.6216 25.0553 52.7377 24.3958C52.8899 24.2943 53.0929 24.3704 53.1944 24.5226C53.2958 24.6748 53.2197 24.8778 53.0675 24.9792C51.9007 25.6641 50.5562 26.2222 49.0849 26.6534C49.0596 26.7042 49.0342 26.7042 49.0088 26.7042Z" fill="white"/>
<path d="M26.7113 13.6907C27.3201 14.4771 27.4723 15.441 27.4723 16.3034V16.9376C27.4723 17.5718 28.3601 18.0538 29.4255 18.0538H30.5416C32.0636 18.0538 33.7378 18.1552 35.133 18.5104C41.5001 20.1592 49.2623 19.3982 54.3356 16.2274C60.1953 12.5492 60.2207 6.84168 54.3863 3.16351C47.8925 -0.945898 36.858 -1.04736 30.1104 2.83374C25.0371 5.77628 23.8956 10.1393 26.7113 13.6907ZM41.982 0.804404C46.0153 0.804404 49.8203 1.7176 52.6614 3.36644C52.839 3.46791 52.9912 3.56937 53.1687 3.67084C58.3943 6.96851 58.3689 12.1433 53.118 15.441C48.7042 18.206 41.7537 19.0177 35.8179 17.4957C34.4988 17.1659 32.8246 16.9884 30.846 16.9884H29.7553C29.5777 16.9884 29.4001 16.9376 29.2733 16.8615C29.1465 16.7854 29.0704 16.684 29.0704 16.5825V15.9483C29.0704 14.7815 28.7913 13.8429 28.2079 13.1072C25.6205 9.80958 26.8635 5.90311 31.2773 3.34107C34.1437 1.7176 37.9487 0.804404 41.982 0.804404Z" fill="white"/>
</svg>
