<svg width="91" height="58" viewBox="0 0 91 58" fill="none" xmlns="http://www.w3.org/2000/svg">
<path d="M90.0541 32.3818C90.0541 33.3519 89.4631 34.3221 88.2388 34.9969L50.414 56.8457C47.7122 58.4063 42.9841 58.1955 39.8179 56.4239L3.51285 35.4609C1.78203 34.4486 0.895508 33.1832 0.895508 32.0022V26.4346H90.0541V32.3818Z" fill="#8C8C8C"/>
<path d="M88.2391 29.2606L50.4142 51.1094C47.7125 52.6701 42.9844 52.4592 39.8182 50.6876L3.51313 29.7246C0.389208 27.9109 0.0514864 25.1693 2.75326 23.6086L40.5781 1.75986C43.2799 0.199234 48.008 0.41013 51.1741 2.18165L87.4792 23.1447C90.6031 24.9584 90.9408 27.7 88.2391 29.2606Z" fill="#C6C6C6"/>
<path d="M75.6586 25.3802C75.6586 29.8512 72.7035 34.28 66.8356 37.6965C55.0575 44.4874 35.934 44.4874 24.156 37.6965C18.2459 34.28 15.333 29.8512 15.333 25.3802V20.7827H75.7008V25.3802H75.6586Z" fill="#FF8600"/>
<path d="M45.4749 38.5821C62.145 38.5821 75.6588 30.783 75.6588 21.1622C75.6588 11.5414 62.145 3.74219 45.4749 3.74219C28.8048 3.74219 15.291 11.5414 15.291 21.1622C15.291 30.783 28.8048 38.5821 45.4749 38.5821Z" fill="#FFC400"/>
<path d="M66.9628 23.7777C65.6964 23.0606 63.7545 22.681 62.5724 22.5123C62.6991 22.217 62.8679 21.7953 62.9524 21.3735C62.9946 21.1626 62.9946 20.9517 62.9946 20.7408V19.6019L60.6728 19.5176L60.7994 23.2293L66.9628 23.7777ZM68.3981 24.4525L49.2324 25.2539V26.7302C49.2324 26.8567 49.3591 26.9833 49.4857 27.0676C49.5701 27.1098 49.6968 27.152 49.8234 27.1942C50.1612 27.2785 58.2243 28.8392 61.3904 29.1766C63.5856 29.3875 65.5697 29.0501 66.9206 28.2065C67.8916 27.616 68.3981 26.8146 68.3981 25.9288V24.4525Z" fill="#B21942"/>
<path d="M38.8896 8.71956C41.9291 9.14135 42.689 12.0939 42.689 12.0939C43.0267 12.0095 47.5859 11.0816 49.6545 12.347C52.4829 14.0763 51.3853 16.354 47.7126 17.071C44.6309 17.7037 36.1034 18.5895 36.1034 18.5895C36.1034 18.5895 33.275 13.8232 32.7262 12.0095C32.0507 9.81621 34.9214 8.17123 38.8896 8.71956Z" fill="#F0562E"/>
<path d="M52.1451 13.0218L43.9553 12.9374L31.7129 9.98486V11.419C31.7129 11.672 31.7551 11.8829 31.8395 12.136C32.3883 13.9497 35.1323 18.5894 35.259 18.8003C35.3012 18.8847 35.3856 18.9268 35.47 19.0112C35.6811 19.1377 35.9766 19.1799 36.2721 19.1377C36.6099 19.0956 44.884 18.252 48.008 17.6193C50.0765 17.1975 51.554 16.3117 52.0184 15.2151C52.1028 14.962 52.1873 14.7089 52.1873 14.498L52.1451 13.0218Z" fill="#B21942"/>
<path d="M47.3322 31.3271C47.3322 31.4537 47.29 31.538 47.1212 31.6646C47.1212 31.6646 47.079 31.6646 47.079 31.7068C47.0367 31.7068 46.9945 31.7489 46.9523 31.7489C42.773 33.9001 34.541 32.7612 29.9396 30.1039C27.3222 28.5855 25.3803 25.9704 25.2959 23.6505V21.9634L47.3322 29.8931V31.3271Z" fill="black"/>
<path d="M61.6855 17.1131C61.6433 17.1131 61.6433 17.0709 61.6011 17.0709C59.9547 16.1852 57.9706 15.8477 56.0709 16.1008C54.1712 16.3539 52.6514 17.1975 51.9338 18.4207C50.8362 20.2344 49.3164 25.0006 49.2742 25.2115C49.232 25.3802 49.3164 25.5489 49.5275 25.6755C49.6119 25.7176 49.7386 25.7598 49.8652 25.802C50.203 25.8864 58.2661 27.447 61.4322 27.7844C63.6274 27.9953 65.6115 27.6579 66.9624 26.8143C68.3133 26.0129 68.7354 24.7897 68.2289 23.5665C68.06 23.1447 67.6378 22.7229 67.0468 22.3855C65.7804 21.6685 63.8385 21.2888 62.6565 21.1201C62.7831 20.8249 62.952 20.4031 63.0364 19.9813C63.163 18.7159 62.7409 17.7458 61.6855 17.1131Z" fill="#FF3B5C"/>
<path d="M50.2031 10.4905C49.1477 9.85784 47.4591 9.60477 45.3484 9.77348C44.5885 9.81566 43.913 9.90002 43.3642 9.98438C43.0687 9.30951 42.4355 8.17068 41.1268 7.45363C40.5358 7.1162 39.8182 6.86312 39.0583 6.77876C36.9053 6.48351 34.8368 6.73659 33.4014 7.49581C31.9661 8.25503 31.3751 9.43605 31.755 10.7014C32.3038 12.5151 35.0478 17.1548 35.1745 17.3657C35.2167 17.4501 35.3011 17.4923 35.3856 17.5766C35.5966 17.7032 35.8921 17.7453 36.1876 17.7032C36.5254 17.661 44.7996 16.8174 47.9235 16.1847C49.992 15.7629 51.4696 14.8772 51.9339 13.7805C52.3983 12.6838 51.7651 11.5028 50.2453 10.5749C50.2875 10.5327 50.2453 10.5327 50.2031 10.4905Z" fill="#FF3B5C"/>
<path d="M46.9945 29.5137C47.0368 29.5137 47.079 29.5558 47.1212 29.5558C47.4167 29.7246 47.4589 30.0198 47.1634 30.1885C47.1634 30.1885 47.1212 30.1885 47.1212 30.2307C47.079 30.2307 47.0368 30.2729 46.9945 30.2729C42.8152 32.424 34.5833 31.2852 29.9818 28.6279C25.9291 26.308 23.4807 21.2887 27.1112 18.8423C27.1534 18.8002 27.1956 18.8002 27.2378 18.758C27.2378 18.758 27.28 18.758 27.3222 18.7158C27.66 18.5471 28.1243 18.5893 28.4198 18.758C28.4621 18.758 28.4621 18.8002 28.4621 18.8002L46.9945 29.5137Z" fill="#303030"/>
</svg>
