<svg width="70" height="63" viewBox="0 0 70 63" fill="none" xmlns="http://www.w3.org/2000/svg">
<path d="M0.614534 51.2381C3.84721 47.4558 35.3011 27.9951 35.3011 27.9951L57.9299 39.5681L64.9771 43.7382C66.6904 44.7404 67.5632 46.0334 67.5632 47.3265C67.5632 48.6196 66.6904 49.9127 64.9771 50.9148C61.8414 52.7251 56.9924 52.8867 53.5334 51.3997C53.5334 51.3997 49.9452 49.7833 46.2599 49.5571C44.2557 49.4278 42.6393 49.5571 41.5079 49.7187C32.5534 54.8587 22.2411 60.6775 19.7196 61.5503C11.153 64.5567 -3.13537 55.6345 0.614534 51.2381Z" fill="#EFEEE8"/>
<path d="M54.3416 0.678864L53.2425 0L48.7814 2.39218L49.8805 3.07104L54.3416 0.678864Z" fill="white"/>
<path d="M41.3462 14.9021L40.2471 14.1909L48.7813 2.3916L49.8805 3.07047L41.3462 14.9021Z" fill="#E2E2E2"/>
<path d="M28.0276 46.7117C25.1182 47.6815 21.1097 48.6513 16.8749 47.2936C14.0625 46.4208 8.98716 43.1557 7.85572 42.1213C6.53032 40.8929 6.82127 39.2119 6.82127 38.5007C6.8536 37.7895 7.66176 36.7227 7.66176 36.7227L31.4866 35.7853L32.1331 33.781L35.2042 33.3931L39.0187 34.7831L39.148 40.5696L34.2667 43.4144C34.299 43.4467 29.8056 46.1298 28.0276 46.7117Z" fill="#121A23"/>
<path d="M33.1675 7.53223L39.8591 11.4114L23.4048 21.0125C23.4048 21.0125 23.7604 18.491 22.3704 16.5837C21.3359 15.1613 19.8489 14.1269 19.8489 14.1269L33.1675 7.53223Z" fill="#E2E2E2"/>
<path d="M18.1678 11.1204C18.1678 9.82737 19.0407 8.5343 20.754 7.53217C24.1806 5.56024 29.7408 5.56024 33.1675 7.53217C34.8808 8.5343 35.7536 9.82737 35.7536 11.1204C35.7536 12.4135 34.8808 13.7066 33.1675 14.7087C29.7408 16.6807 24.1806 16.6807 20.754 14.7087C19.0407 13.7066 18.1678 12.4135 18.1678 11.1204Z" fill="#E2E2E2"/>
<path d="M33.1675 6.43311L39.8591 10.3123L23.4048 19.9134C23.4048 19.9134 23.7604 17.3919 22.3704 15.4846C21.3359 14.0622 19.8489 13.0278 19.8489 13.0278L33.1675 6.43311Z" fill="white"/>
<path d="M18.1678 10.0213C18.1678 8.72825 19.0407 7.43518 20.754 6.43305C24.1806 4.46112 29.7408 4.46112 33.1675 6.43305C34.8808 7.43518 35.7536 8.72825 35.7536 10.0213C35.7536 11.3144 34.8808 12.6075 33.1675 13.6096C29.7408 15.5815 24.1806 15.5815 20.754 13.6096C19.0407 12.6398 18.1678 11.3467 18.1678 10.0213Z" fill="white"/>
<path d="M54.2445 31.26L35.6566 42.6714C35.6566 42.6714 39.1802 37.2728 37.5639 35.9151C36.4325 34.9453 35.9799 35.9797 33.0705 39.4064C30.2257 42.736 28.6741 43.8675 26.8961 44.5463C20.948 46.7445 17.4567 45.3222 16.9394 45.1929C15.2585 44.8696 11.1853 42.3804 10.4094 41.9279C9.63359 41.443 8.11424 40.4732 7.75865 39.9883C7.40305 39.471 6.78885 38.6305 6.82117 37.3375C6.88583 36.0444 7.75864 34.428 8.01726 33.7169C8.3082 33.0057 8.3082 30.6135 9.278 29.7407C10.2478 28.8678 14.2563 25.8938 18.7497 22.3055C21.2389 20.3012 26.3142 16.3897 29.6439 13.9329C29.6439 13.9329 31.7451 12.3489 36.2708 9.79504C38.3721 8.59895 42.6069 8.27569 43.0595 8.34034C44.2879 8.46965 48.9753 10.6679 49.6541 11.0558C53.0808 13.0277 54.6001 13.7066 55.279 14.4824C56.5397 15.9048 57.6388 17.9414 58.2854 18.3616C58.9642 18.7819 60.4189 19.2345 60.4836 20.8831C60.5482 22.5318 59.8047 25.5705 59.8047 25.5705C59.8047 25.5705 57.2832 28.189 56.5397 29.0295C55.4406 30.1286 54.2445 31.26 54.2445 31.26Z" fill="white"/>
<path d="M56.9601 18.6846L42.8656 21.691C41.8958 22.4668 33.1676 33.5549 33.1676 33.5549C33.5555 34.2661 56.3459 19.5251 56.9601 18.6846Z" fill="#76A3FF"/>
<path d="M41.6048 21.4003C41.6048 21.4003 37.0144 18.2646 34.3313 16.9715C31.4865 15.6138 29.6439 13.9651 29.256 14.1267C28.8357 14.2884 12.1551 27.2191 12.1228 27.607C12.0905 27.9949 11.9612 31.1953 15.8081 33.8461C20.2045 36.8848 26.0233 37.0141 29.6116 35.3654C30.0965 35.1715 38.8894 25.1178 41.6048 21.4003Z" fill="#76A3FF"/>
<path d="M41.6048 21.4001C41.6048 21.4001 37.2407 18.4584 34.6222 16.9713C31.7775 15.355 29.6439 13.965 29.2237 14.1266C28.8034 14.2882 12.1228 26.9603 12.0905 27.3482C12.0581 27.7362 11.9288 31.2274 15.7757 33.8782" fill="#A9C6FF"/>
<path d="M30.5167 40.3111C30.5167 40.3111 29.7085 42.0245 28.4478 42.7033C22.4673 46.0006 18.0386 44.8369 18.0386 44.8369C18.0386 44.8369 20.2368 40.4404 22.0148 40.1172C23.7927 39.8262 30.549 39.9879 30.5167 40.3111Z" fill="#121A23"/>
<path d="M16.3253 41.8957C16.3253 41.8957 16.0667 43.9323 15.6788 43.9C15.2908 43.9 12.6724 42.4776 10.8621 41.2815C9.05178 40.0854 7.98499 39.6652 7.98499 39.1803C7.98499 38.6954 8.2436 36.8528 8.66385 37.0144C9.0841 37.176 11.444 38.9217 13.2219 39.9238C14.9999 40.9259 16.196 41.3139 16.3253 41.8957Z" fill="#121A23"/>
<path d="M53.4364 30.8077C53.4364 30.8077 50.9472 32.1331 49.2016 33.3616C47.4559 34.59 34.299 41.9928 34.299 41.9928V43.4152L54.8911 31.3896L60.031 26.379L59.8371 25.5062L60.031 25.4092L53.4364 30.8077Z" fill="#121A23"/>
<path d="M8.30824 32.6182C8.30824 32.6182 8.53453 34.2668 8.21126 34.8487C7.888 35.4306 6.88587 38.1784 6.88587 38.1784C6.88587 38.1784 6.49794 35.2366 8.30824 32.6182Z" fill="#121A23"/>
<path d="M22.6936 11.0232C25.0535 12.381 28.9004 12.381 31.2602 11.0232C32.4563 10.3444 33.0382 9.73017 33.0382 8.82502V8.56641V9.98878C33.0382 10.8939 32.4563 11.7668 31.2602 12.4456C28.9004 13.8033 25.0535 13.8033 22.6936 12.4456C21.4975 11.7668 20.9156 10.8616 20.9156 9.98878V8.82502C20.9156 9.73017 21.4975 10.3444 22.6936 11.0232Z" fill="#C6C6C6"/>
<path d="M20.9156 8.82522C20.9156 9.73037 21.4975 10.6032 22.6936 11.2821C25.0535 12.6398 28.9004 12.6398 31.2602 11.2821C32.4563 10.6032 33.0382 9.69804 33.0382 8.82522C33.0382 7.92007 32.4563 7.04725 31.2602 6.36839C28.9004 5.01067 25.0535 5.01067 22.6936 6.36839C21.4975 7.04725 20.9156 7.92007 20.9156 8.82522ZM22.1764 8.82522C22.1764 8.11403 22.629 7.40284 23.5664 6.88561C25.4414 5.81883 28.4801 5.81883 30.3551 6.88561C31.2925 7.43517 31.7451 8.14635 31.7451 8.82522C31.7451 9.53641 31.2925 10.2476 30.3551 10.7648C28.4801 11.8316 25.4414 11.8316 23.5664 10.7648C22.6613 10.2476 22.1764 9.53641 22.1764 8.82522Z" fill="white"/>
<path d="M22.1764 8.82514C22.1764 8.11395 22.629 7.40276 23.5664 6.88554C25.4414 5.81875 28.4801 5.81875 30.3551 6.88554C31.2925 7.43509 31.7451 8.14628 31.7451 8.82514C31.7451 9.53633 31.2925 10.2475 30.3551 10.7647C28.4801 11.8315 25.4414 11.8315 23.5664 10.7647C22.6613 10.2475 22.1764 9.53633 22.1764 8.82514Z" fill="#A9C6FF"/>
<path d="M30.355 7.95233C28.4801 6.88554 25.4414 6.88554 23.5664 7.95233C22.8552 8.34025 22.435 8.85747 22.241 9.3747C22.1764 9.21307 22.144 9.0191 22.144 8.82514C22.144 8.11395 22.5966 7.40276 23.5341 6.88554C25.4091 5.81875 28.4478 5.81875 30.3227 6.88554C31.2602 7.43509 31.7128 8.14628 31.7128 8.82514C31.7128 9.0191 31.6805 9.18074 31.6158 9.3747C31.4865 8.85747 31.0662 8.34025 30.355 7.95233Z" fill="#76A3FF"/>
<path d="M45.0638 35.8827L41.4109 33.4259L49.7835 29.9346L50.9149 32.3914L45.0638 35.8827Z" fill="#C6C6C6"/>
<path d="M59.8372 22.8545L66.8844 27.0246C68.5977 28.0268 69.4705 29.3198 69.4705 30.6129C69.4705 31.906 68.5977 33.199 66.8844 34.2012C63.7487 36.0115 58.8997 36.1731 55.4407 34.6861C55.4407 34.6861 51.8525 33.0697 48.1672 32.8435C43.8677 32.5525 41.4432 33.4577 41.4432 33.4577V32.6818L59.8372 22.8545Z" fill="#E2E2E2"/>
<path d="M59.8386 22.0791L66.8859 26.2493L55.4422 33.9107C55.4422 33.9107 51.8539 32.2944 48.1687 32.0681C43.8692 31.7771 41.4447 32.6823 41.4447 32.6823L59.8386 22.0791Z" fill="white"/>
<path d="M51.8524 29.8045C51.8524 28.5115 52.7252 27.2184 54.4386 26.2163C57.8652 24.2443 63.4254 24.2443 66.852 26.2163C68.5654 27.2184 69.4382 28.5115 69.4382 29.8045C69.4382 31.0976 68.5654 32.3907 66.852 33.3928C63.4254 35.3647 57.8652 35.3647 54.4386 33.3928C52.7252 32.423 51.8524 31.1299 51.8524 29.8045Z" fill="white"/>
<path d="M56.3782 30.8401C58.738 32.1979 62.5849 32.1979 64.9448 30.8401C66.1409 30.1613 66.7228 29.5471 66.7228 28.6419V28.3833V29.8057C66.7228 30.7108 66.1409 31.5837 64.9448 32.2625C62.5849 33.6202 58.738 33.6202 56.3782 32.2625C55.1821 31.5837 54.6002 30.6785 54.6002 29.8057V28.6419C54.6002 29.5471 55.1821 30.1613 56.3782 30.8401Z" fill="#C6C6C6"/>
<path d="M54.6002 28.6421C54.6002 29.5473 55.1821 30.4201 56.3782 31.099C58.738 32.4567 62.5849 32.4567 64.9448 31.099C66.1409 30.4201 66.7228 29.5149 66.7228 28.6421C66.7228 27.737 66.1409 26.8641 64.9448 26.1853C62.5849 24.8276 58.738 24.8276 56.3782 26.1853C55.1821 26.8318 54.6002 27.737 54.6002 28.6421ZM55.861 28.6421C55.861 27.9309 56.3135 27.2197 57.251 26.7025C59.126 25.6357 62.1647 25.6357 64.0396 26.7025C64.9771 27.2521 65.4297 27.9633 65.4297 28.6421C65.4297 29.321 64.9771 30.0645 64.0396 30.5817C62.1647 31.6485 59.126 31.6485 57.251 30.5817C56.3459 30.0645 55.861 29.3533 55.861 28.6421Z" fill="white"/>
<path d="M55.8608 28.642C55.8608 27.9308 56.3134 27.2197 57.2509 26.7024C59.1258 25.6356 62.1646 25.6356 64.0395 26.7024C64.977 27.252 65.4296 27.9632 65.4296 28.642C65.4296 29.3209 64.977 30.0644 64.0395 30.5816C62.1646 31.6484 59.1258 31.6484 57.2509 30.5816C56.3457 30.0644 55.8608 29.3532 55.8608 28.642Z" fill="#A9C6FF"/>
<path d="M64.0396 27.7692C62.1647 26.7024 59.126 26.7024 57.251 27.7692C56.5398 28.1571 56.1196 28.6744 55.9256 29.1916C55.8609 29.03 55.8286 28.836 55.8286 28.642C55.8286 27.9308 56.2812 27.2197 57.2187 26.7024C59.0936 25.6356 62.1323 25.6356 64.0073 26.7024C64.9448 27.252 65.3973 27.9632 65.3973 28.642C65.3973 28.836 65.365 28.9976 65.3004 29.1916C65.171 28.642 64.7508 28.1571 64.0396 27.7692Z" fill="#76A3FF"/>
<path d="M41.3462 14.902L50.2684 11.3137L54.3416 0.678223L49.8805 3.0704L41.3462 14.902Z" fill="#C6C6C6"/>
</svg>
