<svg width="118" height="106" viewBox="0 0 118 106" fill="none" xmlns="http://www.w3.org/2000/svg">
<path d="M1.03865 86.5993C6.50233 80.2068 59.6639 47.3154 59.6639 47.3154L97.9096 66.8754L109.82 73.9235C112.716 75.6173 114.191 77.8027 114.191 79.9882C114.191 82.1737 112.716 84.3592 109.82 86.0529C104.521 89.1126 96.3252 89.3857 90.4791 86.8725C90.4791 86.8725 84.4144 84.1406 78.1858 83.7581C74.7983 83.5396 72.0665 83.7581 70.1542 84.0313C55.0198 92.7186 37.5906 102.553 33.329 104.028C18.8502 109.11 -5.29922 94.0299 1.03865 86.5993Z" fill="#EFEEE8"/>
<path d="M91.8448 1.14738L89.9871 0L82.4473 4.04312L84.3049 5.19049L91.8448 1.14738Z" fill="white"/>
<path d="M69.8809 25.1864L68.0232 23.9844L82.4473 4.04199L84.305 5.18937L69.8809 25.1864Z" fill="#E2E2E2"/>
<path d="M47.3706 78.9483C42.4533 80.5875 35.6784 82.2265 28.5209 79.9318C23.7675 78.4566 15.1896 72.9383 13.2773 71.1899C11.0372 69.1137 11.5289 66.2726 11.5289 65.0706C11.5836 63.8686 12.9495 62.0656 12.9495 62.0656L53.2168 60.4811L54.3095 57.0936L59.5 56.438L65.9471 58.7874L66.1657 68.5674L57.9155 73.3754C57.9702 73.43 50.3757 77.9649 47.3706 78.9483Z" fill="#121A23"/>
<path d="M56.0577 12.7305L67.3675 19.2869L39.5574 35.514C39.5574 35.514 40.1584 31.2523 37.809 28.0288C36.0606 25.6247 33.5474 23.8764 33.5474 23.8764L56.0577 12.7305Z" fill="#E2E2E2"/>
<path d="M30.7063 18.7943C30.7063 16.6088 32.1815 14.4234 35.0772 12.7296C40.8687 9.39677 50.2663 9.39677 56.0578 12.7296C58.9535 14.4234 60.4287 16.6088 60.4287 18.7943C60.4287 20.9798 58.9535 23.1652 56.0578 24.859C50.2663 28.1918 40.8687 28.1918 35.0772 24.859C32.1815 23.1652 30.7063 20.9798 30.7063 18.7943Z" fill="#E2E2E2"/>
<path d="M56.0577 10.8721L67.3675 17.4285L39.5574 33.6556C39.5574 33.6556 40.1584 29.3939 37.809 26.1704C36.0606 23.7663 33.5474 22.018 33.5474 22.018L56.0577 10.8721Z" fill="white"/>
<path d="M30.7063 16.9374C30.7063 14.7519 32.1815 12.5664 35.0772 10.8727C40.8687 7.53984 50.2663 7.53984 56.0578 10.8727C58.9535 12.5664 60.4287 14.7519 60.4287 16.9374C60.4287 19.1228 58.9535 21.3083 56.0578 23.0021C50.2663 26.3349 40.8687 26.3349 35.0772 23.0021C32.1815 21.3629 30.7063 19.1775 30.7063 16.9374Z" fill="white"/>
<path d="M91.6808 52.8347L60.2647 72.1215C60.2647 72.1215 66.2201 62.9971 63.4882 60.7024C61.576 59.0633 60.8111 60.8116 55.8937 66.6031C51.0857 72.2307 48.4631 74.143 45.4581 75.2904C35.4049 79.0057 29.5042 76.6017 28.63 76.3831C25.7889 75.8368 18.9046 71.6297 17.5934 70.8648C16.2821 70.0453 13.7142 68.4062 13.1131 67.5866C12.5121 66.7124 11.474 65.2919 11.5287 63.1064C11.638 60.9209 13.1131 58.1891 13.5502 56.9871C14.042 55.7851 14.042 51.7419 15.6811 50.2668C17.3202 48.7916 24.0951 43.765 31.6896 37.7003C35.8967 34.3128 44.4746 27.7018 50.1022 23.5494C50.1022 23.5494 53.6536 20.8722 61.3028 16.5559C64.8542 14.5343 72.0116 13.9879 72.7765 14.0972C74.8527 14.3158 82.775 18.0311 83.9224 18.6867C89.7139 22.0195 92.2818 23.1669 93.4292 24.4782C95.56 26.8822 97.4177 30.3243 98.5104 31.0346C99.6578 31.7449 102.116 32.5098 102.226 35.2963C102.335 38.0828 101.078 43.2186 101.078 43.2186C101.078 43.2186 96.8167 47.6442 95.56 49.0647C93.7024 50.9224 91.6808 52.8347 91.6808 52.8347Z" fill="white"/>
<path d="M96.2705 31.5796L72.4489 36.6608C70.8098 37.9721 56.0579 56.7125 56.0579 56.7125C56.7135 57.9145 95.2324 33.0001 96.2705 31.5796Z" fill="#76A3FF"/>
<path d="M70.318 36.1703C70.318 36.1703 62.5596 30.8705 58.0247 28.6851C53.2167 26.3903 50.1024 23.6038 49.4467 23.877C48.7364 24.1502 20.5439 46.0049 20.4893 46.6605C20.4346 47.3162 20.2161 52.7252 26.7178 57.2055C34.1484 62.3413 43.9831 62.5598 50.0477 59.7734C50.8673 59.4455 65.7285 42.4535 70.318 36.1703Z" fill="#76A3FF"/>
<path d="M70.3179 36.1699C70.3179 36.1699 62.942 31.198 58.5164 28.6847C53.7084 25.9528 50.1023 23.6035 49.3921 23.8767C48.6818 24.1498 20.4892 45.5674 20.4346 46.2231C20.3799 46.8787 20.1614 52.7795 26.6632 57.2597" fill="#A9C6FF"/>
<path d="M51.5776 68.1323C51.5776 68.1323 50.2116 71.0281 48.0808 72.1754C37.973 77.7484 30.4878 75.7815 30.4878 75.7815C30.4878 75.7815 34.2031 68.3509 37.2081 67.8045C40.2131 67.3128 51.6322 67.5859 51.5776 68.1323Z" fill="#121A23"/>
<path d="M27.5919 70.8091C27.5919 70.8091 27.1548 74.2512 26.4992 74.1965C25.8435 74.1965 21.418 71.7925 18.3583 69.771C15.2986 67.7494 13.4956 67.0391 13.4956 66.2196C13.4956 65.4 13.9327 62.2857 14.643 62.5589C15.3533 62.8321 19.3417 65.7825 22.3468 67.4762C25.3518 69.17 27.3733 69.8256 27.5919 70.8091Z" fill="#121A23"/>
<path d="M90.315 52.0696C90.315 52.0696 86.1079 54.3098 83.1575 56.386C80.2071 58.4622 57.97 70.974 57.97 70.974V73.378L92.7736 53.0531L101.461 44.5844L101.133 43.1092L101.461 42.9453L90.315 52.0696Z" fill="#121A23"/>
<path d="M14.0421 55.1294C14.0421 55.1294 14.4246 57.9159 13.8782 58.8993C13.3319 59.8828 11.6381 64.5269 11.6381 64.5269C11.6381 64.5269 10.9825 59.555 14.0421 55.1294Z" fill="#121A23"/>
<path d="M38.3554 18.6309C42.3438 20.9257 48.8456 20.9257 52.8341 18.6309C54.8557 17.4835 55.8391 16.4454 55.8391 14.9156V14.4785V16.8825C55.8391 18.4124 54.8557 19.8876 52.8341 21.0349C48.8456 23.3297 42.3438 23.3297 38.3554 21.0349C36.3338 19.8876 35.3503 18.3577 35.3503 16.8825V14.9156C35.3503 16.4454 36.3338 17.4835 38.3554 18.6309Z" fill="#C6C6C6"/>
<path d="M35.3503 14.9164C35.3503 16.4462 36.3338 17.9214 38.3554 19.0688C42.3438 21.3636 48.8456 21.3636 52.8341 19.0688C54.8557 17.9214 55.8391 16.3916 55.8391 14.9164C55.8391 13.3866 54.8557 11.9114 52.8341 10.764C48.8456 8.46928 42.3438 8.46928 38.3554 10.764C36.3338 11.9114 35.3503 13.3866 35.3503 14.9164ZM37.4812 14.9164C37.4812 13.7144 38.2461 12.5124 39.8306 11.6382C42.9995 9.83519 48.1354 9.83519 51.3043 11.6382C52.8888 12.567 53.6537 13.769 53.6537 14.9164C53.6537 16.1184 52.8888 17.3204 51.3043 18.1946C48.1354 19.9976 42.9995 19.9976 39.8306 18.1946C38.3007 17.3204 37.4812 16.1184 37.4812 14.9164Z" fill="white"/>
<path d="M37.4812 14.9166C37.4812 13.7146 38.2461 12.5126 39.8306 11.6384C42.9995 9.83538 48.1354 9.83538 51.3043 11.6384C52.8888 12.5672 53.6537 13.7692 53.6537 14.9166C53.6537 16.1186 52.8888 17.3206 51.3043 18.1948C48.1354 19.9978 42.9995 19.9978 39.8306 18.1948C38.3007 17.3206 37.4812 16.1186 37.4812 14.9166Z" fill="#A9C6FF"/>
<path d="M51.3043 13.4414C48.1353 11.6384 42.9995 11.6384 39.8305 13.4414C38.6285 14.0971 37.9183 14.9712 37.5905 15.8454C37.4812 15.5722 37.4265 15.2444 37.4265 14.9166C37.4265 13.7146 38.1915 12.5126 39.7759 11.6384C42.9449 9.83538 48.0807 9.83538 51.2496 11.6384C52.8341 12.5672 53.599 13.7692 53.599 14.9166C53.599 15.2444 53.5444 15.5176 53.4351 15.8454C53.2166 14.9712 52.5063 14.0971 51.3043 13.4414Z" fill="#76A3FF"/>
<path d="M76.1642 60.6464L69.9902 56.494L84.1411 50.5933L86.0534 54.7457L76.1642 60.6464Z" fill="#C6C6C6"/>
<path d="M101.133 38.627L113.044 45.6751C115.94 47.3688 117.415 49.5543 117.415 51.7398C117.415 53.9252 115.94 56.1107 113.044 57.8044C107.744 60.8641 99.5488 61.1373 93.7026 58.624C93.7026 58.624 87.638 55.8922 81.4094 55.5097C74.1427 55.018 70.0449 56.5478 70.0449 56.5478V55.2365L101.133 38.627Z" fill="#E2E2E2"/>
<path d="M101.136 37.3164L113.047 44.3646L93.7051 57.3135C93.7051 57.3135 87.6404 54.5816 81.4118 54.1992C74.1451 53.7075 70.0474 55.2373 70.0474 55.2373L101.136 37.3164Z" fill="white"/>
<path d="M87.6379 50.3734C87.6379 48.1879 89.1131 46.0025 92.0089 44.3087C97.8004 40.9759 107.198 40.9759 112.989 44.3087C115.885 46.0025 117.36 48.1879 117.36 50.3734C117.36 52.5589 115.885 54.7443 112.989 56.4381C107.198 59.7709 97.8004 59.7709 92.0089 56.4381C89.1131 54.799 87.6379 52.6135 87.6379 50.3734Z" fill="white"/>
<path d="M95.287 52.1231C99.2755 54.4178 105.777 54.4178 109.766 52.1231C111.787 50.9757 112.771 49.9376 112.771 48.4078V47.9707V50.3747C112.771 51.9046 111.787 53.3797 109.766 54.5271C105.777 56.8219 99.2755 56.8219 95.287 54.5271C93.2654 53.3797 92.282 51.8499 92.282 50.3747V48.4078C92.282 49.9376 93.2654 50.9757 95.287 52.1231Z" fill="#C6C6C6"/>
<path d="M92.282 48.4086C92.282 49.9384 93.2654 51.4136 95.287 52.561C99.2755 54.8558 105.777 54.8558 109.766 52.561C111.787 51.4136 112.771 49.8838 112.771 48.4086C112.771 46.8788 111.787 45.4036 109.766 44.2562C105.777 41.9615 99.2755 41.9615 95.287 44.2562C93.2654 45.349 92.282 46.8788 92.282 48.4086ZM94.4128 48.4086C94.4128 47.2066 95.1777 46.0046 96.7622 45.1304C99.9311 43.3274 105.067 43.3274 108.236 45.1304C109.82 46.0592 110.585 47.2612 110.585 48.4086C110.585 49.556 109.82 50.8126 108.236 51.6868C105.067 53.4898 99.9311 53.4898 96.7622 51.6868C95.2324 50.8126 94.4128 49.6106 94.4128 48.4086Z" fill="white"/>
<path d="M94.4126 48.4093C94.4126 47.2073 95.1775 46.0053 96.762 45.1311C99.9309 43.3281 105.067 43.3281 108.236 45.1311C109.82 46.0599 110.585 47.2619 110.585 48.4093C110.585 49.5566 109.82 50.8133 108.236 51.6875C105.067 53.4905 99.9309 53.4905 96.762 51.6875C95.2321 50.8133 94.4126 49.6113 94.4126 48.4093Z" fill="#A9C6FF"/>
<path d="M108.236 46.9341C105.067 45.1311 99.9311 45.1311 96.7622 46.9341C95.5602 47.5897 94.8499 48.4639 94.5221 49.3381C94.4128 49.0649 94.3582 48.7371 94.3582 48.4093C94.3582 47.2073 95.1231 46.0053 96.7075 45.1311C99.8765 43.3281 105.012 43.3281 108.181 45.1311C109.766 46.0599 110.531 47.2619 110.531 48.4093C110.531 48.7371 110.476 49.0103 110.367 49.3381C110.148 48.4093 109.438 47.5897 108.236 46.9341Z" fill="#76A3FF"/>
<path d="M69.8809 25.1872L84.9606 19.1225L91.8449 1.14697L84.305 5.19009L69.8809 25.1872Z" fill="#C6C6C6"/>
</svg>
