<svg width="367" height="171" viewBox="0 0 367 171" fill="none" xmlns="http://www.w3.org/2000/svg">
<path d="M30.2448 119.822L0 102.48L30.2448 85.1387L60.4839 102.48L30.2448 119.822Z" fill="#FFE200"/>
<path d="M31.3752 115.157L4.06958 100.151L30.2448 85.1387L60.4839 102.48L53.4526 106.517L31.3752 115.157Z" fill="#FFC400"/>
<path d="M30.2391 111.154L0 93.8124C0 93.8124 10.4848 92.6503 18.0248 90.4888C22.3362 89.3041 26.4509 87.5018 30.2391 85.1387L60.4783 102.48C55.8716 105.028 51.0013 107.074 45.9522 108.583C40.8204 109.988 35.5534 110.849 30.2391 111.154Z" fill="#FFE200"/>
<path d="M60.4839 113.332L30.2448 130.674V119.822L60.4839 102.48V113.332Z" fill="#FFC400"/>
<path d="M0 113.332L30.2448 130.674V119.822L0 102.48V113.332Z" fill="#FF8600"/>
<path d="M44.4375 89.1474L45.3305 95.9572C45.4031 96.9604 44.7819 97.8848 43.8214 98.2029L30.0414 102.761L28.4361 103.491C28.0575 103.682 24.2083 104.614 24.9431 102.93L29.2501 101.431L39.667 95.845L38.3953 94.2562L27.1983 93.9755L33.5118 103.306C33.5118 103.306 31.1435 106.478 30.8948 106.006L31.5109 102.992L23.8748 94.3572C23.4179 93.7106 23.3449 92.8703 23.6837 92.1555C24.0225 91.4407 24.721 90.9612 25.514 90.899L34.9079 88.9565L44.4375 89.1474Z" fill="black"/>
<path d="M35.7048 89.4053C35.7048 89.4053 40.187 91.4769 43.7648 89.7197C44.7596 89.2313 44.3866 88.406 44.2905 87.4741C44.1021 85.404 43.6831 83.3611 43.0414 81.3828C41.3005 75.9821 40.334 72.4004 39.1357 72.3442C37.9374 72.2881 36.7787 77.1049 36.2361 81.6579C35.9074 84.2279 35.73 86.8148 35.7048 89.4053H35.7048Z" fill="#76A3FF"/>
<path d="M37.4739 73.4221L34.4047 77.9358L27.4469 87.1372L28.4982 87.8614L34.7665 82.0733L38.4912 78.6038V73.248" fill="#76A3FF"/>
<path d="M40.187 73.248C40.187 73.248 44.6522 81.5961 45.9974 84.2796C47.4783 87.1484 39.1074 90.3203 39.1074 90.3203L40.0739 87.8389L43.6461 85.5259L40.187 76.9926V73.248Z" fill="#76A3FF"/>
<path d="M41.2608 70.8004C41.2608 66.8706 36.6091 67.5106 36.9143 71.3281C37.0217 72.6867 37.4795 74.0229 38.463 74.3597C39.616 74.7471 41.2608 73.8825 41.2608 70.8004Z" fill="#FFC400"/>
<path d="M37.3043 68.5269C37.577 69.1112 38.0332 69.5919 38.6043 69.8967C39.3956 70.1942 40.0682 70.5198 40.3 71.143C40.602 72.3828 40.4929 73.6862 39.9891 74.8595C39.3448 76.4314 39.3843 78.503 40.4526 78.8904C41.5208 79.2777 42.6343 77.0658 42.7417 74.9606C42.8491 72.8553 41.5491 70.6546 41.21 69.2455C40.7917 67.5613 38.2991 66.7753 37.3156 68.4988" fill="#FF3B5C"/>
<path d="M38.2088 68.774C37.8025 69.0851 37.4243 69.4307 37.0783 69.807C36.4001 70.52 37.4118 72.9901 37.6435 74.0231C37.8753 75.0561 36.7392 75.9207 35.4166 77.2287C34.3992 78.228 34.1505 75.887 35.5635 73.2428C36.7392 71.0364 35.2979 68.875 37.3044 68.1228C37.9714 67.8982 38.2088 68.774 38.2088 68.774Z" fill="#FF3B5C"/>
<path d="M55.3404 96.5352L53.1813 127.39L51.2935 127.811L54.6226 129.501L59.5852 104.923L62.8748 121.619L61.2865 121.899L65 123.028L64.1522 94.312L55.3404 96.5352Z" fill="black"/>
<path d="M64.1522 95.0699C64.1522 95.0699 59.2574 99.4657 56.0187 98.152C55.1257 97.7927 55.3348 96.6362 55.4535 95.665C55.6005 94.2839 55.6909 91.6565 56.1205 88.5688C57.3357 79.7997 58.7826 78.6095 60.4444 78.7892C62.1061 78.9688 62.6374 82.0958 63.3779 86.2278C63.8946 89.1471 64.1537 92.1057 64.1522 95.0699Z" fill="#FF3B5C"/>
<path d="M57.624 76.1169C57.6974 72.159 62.5413 72.9 62.1457 76.7344C62.0044 78.0986 61.5183 79.4347 60.45 79.7547C59.2857 80.114 57.5618 79.2158 57.624 76.1169Z" fill="#FFC400"/>
<path d="M58.3586 74.6855C58.3586 74.6855 60.7212 74.9326 60.5856 76.8526C60.4499 78.7726 60.8512 79.6596 61.6878 79.2048C62.8182 78.6041 64.2143 76.6224 63.8243 74.2757C63.6416 73.3894 63.1031 72.6153 62.333 72.1322C61.5628 71.6491 60.6277 71.4987 59.7434 71.7157C56.7478 72.3613 57.313 74.3768 58.3586 74.6855Z" fill="black"/>
<path d="M58.1496 80.2544C56.8265 83.921 54.8529 87.3226 52.3222 90.2979C48.637 94.5197 47.0883 94.7891 47.0883 94.7891L47.563 95.7323C49.885 94.637 52.1022 93.3348 54.1874 91.8418C58.223 88.973 59.5174 85.9919 59.5174 85.9919L58.1496 80.2544Z" fill="#FF3B5C"/>
<path d="M361.673 59.423C364.85 57.4615 366.81 53.3999 366.81 47.6576C366.81 35.9615 358.685 21.7384 348.666 15.8922C343.788 13.0384 339.347 12.7038 336.086 14.4615L332.258 16.7153L357.898 61.5999L361.673 59.423Z" fill="#B21942"/>
<path d="M327.071 28.5115C327.071 40.2077 335.195 54.4308 345.215 60.2769C355.234 66.1231 363.358 61.3846 363.358 49.6885C363.358 37.9923 355.238 23.7692 345.218 17.9231C335.199 12.0769 327.071 16.8154 327.071 28.5115Z" fill="#FF3B5C"/>
<path d="M330.773 30.6693C330.773 39.9808 337.242 51.3001 345.234 55.9578C353.225 60.6155 359.694 56.8385 359.694 47.527C359.694 38.2155 353.225 26.8962 345.234 22.2385C337.242 17.5808 330.773 21.3578 330.773 30.6693Z" fill="white"/>
<path d="M334.788 32.9997C334.788 39.7228 339.457 47.8959 345.218 51.2574C350.98 54.619 355.649 51.892 355.649 45.1728C355.649 38.4536 350.976 30.2882 345.218 26.9266C339.461 23.5651 334.788 26.292 334.788 32.9997Z" fill="#FF3B5C"/>
<path d="M338.658 35.2729C338.658 39.5036 341.596 44.6382 345.215 46.7536C348.833 48.869 351.779 47.1536 351.779 42.9267C351.779 38.6998 348.841 33.5575 345.218 31.4613C341.596 29.3652 338.658 31.0459 338.658 35.2729Z" fill="white"/>
<path d="M342.616 37.5807C342.715 39.4313 343.682 41.1229 345.218 42.1345C346.657 42.973 347.821 42.2922 347.821 40.6153C347.717 38.7702 346.751 37.0853 345.218 36.0768C343.788 35.223 342.616 35.9038 342.616 37.5807Z" fill="#FF3B5C"/>
<path d="M344.408 38.9189L345.793 39.5805L344.408 38.9189Z" fill="#36F49A"/>
<path d="M345.218 55.9575C344.948 55.7998 344.678 55.6306 344.412 55.4575V59.7806C344.678 59.9498 344.948 60.1191 345.218 60.2768C345.412 60.3883 345.599 60.4921 345.793 60.596V56.2768C345.603 56.1729 345.409 56.0768 345.218 55.9575Z" fill="#D82B50"/>
<path d="M345.793 56.277V51.5847C345.603 51.4847 345.412 51.3809 345.218 51.2694C344.944 51.1117 344.678 50.9386 344.412 50.7578V55.4578C344.678 55.6309 344.948 55.8001 345.218 55.9578C345.409 56.077 345.603 56.1732 345.793 56.277Z" fill="#CECECE"/>
<path d="M345.218 46.7539C344.944 46.5923 344.674 46.4115 344.412 46.2192V50.7577C344.678 50.9385 344.948 51.1115 345.218 51.2692C345.412 51.3808 345.599 51.4846 345.793 51.5846V47.0577C345.603 46.9654 345.412 46.8654 345.218 46.7539Z" fill="#D82B50"/>
<path d="M345.793 47.0574V42.392C345.593 42.3274 345.4 42.241 345.218 42.1343C344.926 41.9596 344.655 41.7505 344.412 41.5112V46.2151C344.678 46.4074 344.944 46.5997 345.218 46.7497C345.412 46.8651 345.603 46.9651 345.793 47.0574Z" fill="#CECECE"/>
<path d="M344.408 38.9189V41.5151C344.651 41.7543 344.922 41.9635 345.215 42.1382C345.396 42.2448 345.589 42.3312 345.789 42.3959V39.5805L344.408 38.9189Z" fill="#D82B50"/>
<path d="M344.697 38.4267C344.845 38.3535 345.021 38.3698 345.154 38.469C345.529 38.7172 345.765 39.1315 345.789 39.5844C345.808 39.7511 345.733 39.9145 345.595 40.0075L327.269 50.8113L326.375 49.2305L344.697 38.4267Z" fill="#FFC400"/>
<path d="M326.69 49.0385L324 47.7539L328.296 45.2847L330.773 46.6308L326.69 49.0385Z" fill="#36F49A"/>
<path d="M327.47 53.927L331.55 51.5193V48.2847L327.47 50.6924V53.927Z" fill="#36F49A"/>
<path d="M326.196 49.6422C326.22 50.0951 326.456 50.5094 326.831 50.7576C327.181 50.9614 327.467 50.7961 327.467 50.373C327.443 49.9201 327.207 49.5058 326.831 49.2576C326.481 49.0653 326.196 49.2307 326.196 49.6422Z" fill="#FF8600"/>
<path d="M314.375 112.141C314.375 114.318 315.81 116.495 318.68 118.155C324.421 121.46 333.732 121.46 339.476 118.155C342.363 116.503 343.781 114.318 343.781 112.141V110.464H314.375V112.141Z" fill="#282828"/>
<path d="M280.907 85.1901C280.907 87.3669 282.342 89.5436 285.212 91.2041C290.953 94.5084 300.264 94.5084 306.008 91.2041C308.895 89.5519 310.313 87.3669 310.313 85.1901V83.5132H280.907V85.1901Z" fill="#EFEEE8"/>
<path d="M285.196 89.5272C290.936 92.8315 300.247 92.8315 305.992 89.5272C311.736 86.2229 311.732 80.8244 305.992 77.5035C300.252 74.1826 290.94 74.1992 285.196 77.5035C279.452 80.8079 279.452 86.2063 285.196 89.5272Z" fill="white"/>
<path d="M280.907 83.5176V85.1945C280.907 87.3713 282.342 89.548 285.212 91.2084C285.739 91.5156 286.283 91.7914 286.841 92.0345V90.4237L293.278 84.4841L280.907 83.5176Z" fill="#D8D7D2"/>
<path d="M295.592 78.5566H283.633C279.509 81.861 280.008 86.5408 285.179 89.5271C285.757 89.8582 286.354 90.152 286.969 90.4069H295.592V78.5566Z" fill="#EFEEE8"/>
<path d="M282.107 82.6086C282.107 84.6036 283.423 86.5986 286.058 88.1228C291.324 91.1669 299.86 91.1669 305.126 88.1228C307.757 86.5986 309.076 84.6036 309.076 82.6086V80.1304H282.107V82.6086Z" fill="#E5E4DF"/>
<path d="M289.901 48.6523C293.043 50.4697 298.149 50.4697 301.283 48.6523C304.417 46.8349 304.425 43.8899 301.283 42.0725C298.14 40.2551 293.035 40.2551 289.901 42.0725C286.767 43.8899 286.759 46.8349 289.901 48.6523Z" fill="white"/>
<path d="M282.107 80.1304V82.6086C282.107 84.6036 283.423 86.5986 286.058 88.1228V85.6445L284.082 80.5971L282.107 80.1304Z" fill="#D8D7D2"/>
<path d="M309.076 80.1303C309.076 76.0329 307.262 76.8259 304.165 62.0679C302.899 56.054 302.907 45.8477 302.907 45.8477H288.276C288.276 45.8477 288.276 56.0622 287.019 62.0885C283.922 76.8507 282.107 76.0494 282.107 80.1303C282.107 82.1211 283.427 84.1161 286.058 85.6361C291.324 88.6803 299.86 88.6803 305.126 85.6361C307.753 84.1161 309.072 82.1253 309.076 80.1303Z" fill="white"/>
<path d="M293.732 45.8477C293.732 45.8477 293.884 58.7966 292.21 67.9331C290.656 76.4129 286.058 85.6568 286.058 85.6568C283.431 84.1368 282.111 82.1459 282.107 80.1509C282.107 76.0535 283.922 76.8466 287.019 62.0885C288.28 56.054 288.276 45.8477 288.276 45.8477H293.732Z" fill="#E5E4DF"/>
<path d="M285.031 47.9131C285.031 49.4744 286.062 51.0398 288.124 52.2294C292.247 54.6126 298.932 54.6126 303.06 52.2294C305.122 51.0357 306.153 49.4744 306.153 47.9131V46.2939H285.031V47.9131Z" fill="#E5E4DF"/>
<path d="M288.124 50.6307C292.247 53.014 298.932 53.014 303.06 50.6307C307.188 48.2475 307.184 44.3772 303.06 41.994C298.936 39.6107 292.252 39.6107 288.124 41.994C283.996 44.3772 284 48.2433 288.124 50.6307Z" fill="white"/>
<path d="M289.802 49.2263C292.998 51.0768 298.181 51.0768 301.377 49.2263C304.573 47.3759 304.573 44.3813 301.377 42.5309C298.181 40.6805 292.998 40.6805 289.802 42.5309C286.606 44.3813 286.606 47.38 289.802 49.2263Z" fill="white"/>
<path d="M285.031 46.3105V47.9132C285.031 49.4745 286.062 51.0399 288.124 52.2295V49.2597L285.031 46.3105Z" fill="#D8D7D2"/>
<path d="M295.2 41.1475H289.979C289.34 41.3755 288.722 41.6588 288.132 41.9942C284.008 44.3733 284.008 48.2229 288.099 50.6103H295.2V41.1475Z" fill="#EFEEE8"/>
<path d="M287.377 45.848C287.377 47.0624 288.181 48.2808 289.786 49.2061C292.994 51.0606 298.198 51.0606 301.406 49.2061C303.01 48.2767 303.814 47.0624 303.814 45.848V44.6089H287.377V45.848Z" fill="#E5E4DF"/>
<path d="M289.781 47.9583C292.99 49.8129 298.194 49.8129 301.402 47.9583C304.61 46.1037 304.61 43.0927 301.402 41.2381C298.194 39.3835 292.99 39.3835 289.781 41.2381C286.573 43.0927 286.573 46.1037 289.781 47.9583Z" fill="white"/>
<path d="M289.781 47.9583C292.99 49.8129 298.194 49.8129 301.402 47.9583C304.61 46.1037 304.61 43.0927 301.402 41.2381C298.194 39.3835 292.99 39.3835 289.781 41.2381C286.573 43.0927 286.573 46.1037 289.781 47.9583Z" fill="white"/>
<path d="M295.592 40.7095H291.192C290.709 40.901 290.237 41.1175 289.777 41.358C286.577 42.911 286.577 46.1203 289.753 47.9666H295.592V40.7095Z" fill="#EFEEE8"/>
<path d="M295.777 28.9131C295.777 28.9131 284.103 29.2187 284.103 30.4413C284.103 32.1266 285.035 31.54 287.814 37.6118C288.726 39.6109 289.006 42.7046 289.085 43.8074V44.1792C289.085 45.1457 289.72 46.1081 290.994 46.8474C291.321 47.0354 291.663 47.197 292.017 47.3307C294.549 48.2972 297.988 48.1568 300.219 46.8474C301.456 46.1246 302.099 45.1953 302.124 44.237C302.124 44.237 302.252 40.0653 303.382 37.587C306.149 31.5153 307.093 32.1018 307.093 30.4166C307.08 29.2063 295.777 28.9131 295.777 28.9131Z" fill="white"/>
<path d="M290.586 28.3142C290.586 28.3142 284.103 29.2064 284.103 30.429C284.103 32.1142 285.035 31.5277 287.814 37.5995C288.726 39.5986 289.006 42.6923 289.085 43.7951V44.1669C289.085 45.1334 289.72 46.0958 290.994 46.8351C291.324 47.0187 291.665 47.1802 292.017 47.3184C292.559 47.5302 293.119 47.692 293.691 47.8016C294.247 47.9049 295.188 47.9545 295.188 47.9545L295.299 27.9673" fill="#E5E4DF"/>
<path d="M283.703 32.2175C283.703 33.9771 284.862 35.7366 287.184 37.079C291.827 39.7638 299.353 39.7638 303.996 37.079C306.318 35.7366 307.476 33.9771 307.476 32.2175V30.8462H283.703V32.2175Z" fill="#E5E4DF"/>
<path d="M287.188 35.7077C291.831 38.3925 299.357 38.3925 304 35.7077C308.643 33.0229 308.643 28.6859 304 25.9846C299.357 23.2833 291.831 23.2998 287.188 25.9846C282.544 28.6694 282.557 33.0435 287.188 35.7077Z" fill="white"/>
<path d="M295.592 27.9673H284.796C283.365 29.7599 283.344 31.8375 284.73 33.6384H295.592V27.9673Z" fill="#EFEEE8"/>
<path d="M295.777 14.5762C295.777 14.5762 284.103 14.8694 284.103 16.1086C284.103 17.7938 285.035 17.2073 287.814 23.279C288.726 25.2781 289.006 28.3718 289.085 29.4747V29.8464C289.085 30.8129 289.72 31.7753 290.994 32.5147C292.412 33.2696 293.999 33.6492 295.604 33.6175C297.21 33.6492 298.797 33.2696 300.214 32.5147C301.452 31.7918 302.095 30.8625 302.12 29.9042C302.12 29.9042 302.26 25.7407 303.39 23.2625C306.157 17.1907 307.101 17.7773 307.101 16.092C307.08 14.8694 295.777 14.5762 295.777 14.5762Z" fill="white"/>
<path d="M295.777 14.5762C295.777 14.5762 284.103 14.8694 284.103 16.1086C284.103 17.7938 285.035 17.2073 287.814 23.279C288.726 25.2781 289.006 28.3718 289.085 29.4747V29.8464C289.085 30.8129 289.72 31.7753 290.994 32.5147C292.412 33.2696 293.999 33.6492 295.604 33.6175" fill="#E5E4DF"/>
<path d="M282.351 16.6868C282.351 18.6446 283.645 20.6066 286.231 22.1018C291.402 25.0922 299.786 25.0922 304.957 22.1018C307.542 20.6066 308.837 18.6446 308.837 16.6868V15.1792H282.351V16.6868Z" fill="#E5E4DF"/>
<path d="M286.227 20.5941C291.398 23.5846 299.781 23.5846 304.957 20.5941C310.132 17.6037 310.128 12.7463 304.957 9.76414C299.786 6.78197 291.402 6.77371 286.227 9.76414C281.052 12.7546 281.056 17.6037 286.227 20.5941Z" fill="white"/>
<path d="M295.592 12.0195H283.563C281.967 14.0187 281.946 16.3317 283.489 18.3391H295.592V12.0195Z" fill="#EFEEE8"/>
<path d="M306.041 10.991C306.041 16.7736 301.365 18.3225 295.592 18.3225C289.819 18.3225 285.142 16.7736 285.142 10.991C285.142 5.20839 289.819 2.20557 295.592 2.20557C301.365 2.20557 306.041 5.21252 306.041 10.991Z" fill="#E5E4DF"/>
<path d="M306.041 10.8753C306.041 15.7203 302.12 17.0214 297.282 17.0214C292.445 17.0214 288.524 15.7203 288.524 10.8753C288.524 6.03031 292.454 3.51074 297.282 3.51074C302.111 3.51074 306.041 6.03031 306.041 10.8753Z" fill="white"/>
<path d="M295.592 6.33609C297.339 6.33609 298.755 4.91771 298.755 3.16804C298.755 1.41838 297.339 0 295.592 0C293.845 0 292.429 1.41838 292.429 3.16804C292.429 4.91771 293.845 6.33609 295.592 6.33609Z" fill="#E5E4DF"/>
<path d="M296.157 5.4895C297.592 5.4895 298.755 4.32447 298.755 2.88733C298.755 1.45019 297.592 0.285156 296.157 0.285156C294.722 0.285156 293.559 1.45019 293.559 2.88733C293.559 4.32447 294.722 5.4895 296.157 5.4895Z" fill="white"/>
<path d="M269.163 138.258C269.163 140.435 270.598 142.608 273.484 144.268C274.011 144.575 274.555 144.851 275.113 145.094C280.887 147.572 289.052 147.304 294.28 144.268C297.167 142.616 298.586 140.431 298.586 138.254V136.577H269.163V138.258Z" fill="#E5E4DF"/>
<path d="M269.163 136.581V138.258C269.163 140.435 270.598 142.608 273.484 144.268C274.011 144.575 274.555 144.851 275.113 145.094V143.483L281.555 137.544L269.183 136.577" fill="#D8D7D2"/>
<path d="M294.264 130.567C288.524 127.263 279.212 127.263 273.468 130.567C272.927 130.878 272.41 131.23 271.922 131.62H283.88V143.471H275.258C281.006 145.879 289.085 145.585 294.264 142.591C300.004 139.274 300.004 133.888 294.264 130.567Z" fill="white"/>
<path d="M283.868 131.621H271.909C267.786 134.925 268.284 139.605 273.456 142.591C274.033 142.922 274.631 143.216 275.245 143.471H283.868V131.621Z" fill="#EFEEE8"/>
<path d="M270.384 135.677C270.384 137.672 271.699 139.667 274.334 141.191C279.6 144.235 288.136 144.235 293.402 141.191C296.033 139.667 297.353 137.672 297.353 135.677V133.198H270.384V135.677Z" fill="#E5E4DF"/>
<path d="M270.384 133.211V135.689C270.384 137.684 271.699 139.679 274.334 141.203V138.725L272.359 133.661L270.384 133.207" fill="#D8D7D2"/>
<path d="M278.177 105.487C281.32 107.305 286.425 107.305 289.559 105.487C292.693 103.67 292.701 100.725 289.559 98.9075C286.417 97.0901 281.311 97.0901 278.177 98.9075C275.043 100.725 275.035 103.674 278.177 105.487Z" fill="white"/>
<path d="M297.348 133.211C297.348 129.113 294.594 131.802 291.497 117.032C290.235 111.005 290.239 102.674 290.239 102.674H277.493C277.493 102.674 277.493 111.005 276.235 117.032C273.138 131.798 270.384 129.113 270.384 133.211C270.384 135.201 271.703 137.196 274.334 138.716C279.6 141.761 288.136 141.761 293.402 138.716C296.029 137.196 297.348 135.206 297.353 133.211H297.348Z" fill="white"/>
<path d="M280.85 102.675H277.493C277.493 102.675 277.493 111.006 276.235 117.032C273.138 131.798 270.384 129.113 270.384 133.211C270.384 135.202 271.703 137.197 274.334 138.717C274.334 138.717 277.777 132.108 279.447 122.496C280.953 113.823 280.854 102.67 280.854 102.67" fill="#E5E4DF"/>
<path d="M273.307 104.764C273.307 106.325 274.338 107.891 276.4 109.08C280.524 111.464 287.208 111.464 291.336 109.08C293.398 107.887 294.429 106.325 294.429 104.764V103.145H273.307V104.764Z" fill="#E5E4DF"/>
<path d="M273.307 103.145V104.768C273.307 106.33 274.338 107.895 276.4 109.085V106.115L273.307 103.145" fill="#D8D7D2"/>
<path d="M276.4 107.461C280.524 109.845 287.208 109.845 291.336 107.461C295.464 105.078 295.46 101.208 291.336 98.8246C287.212 96.4413 280.528 96.4413 276.4 98.8246C272.272 101.208 272.276 105.078 276.4 107.461Z" fill="white"/>
<path d="M283.472 97.978H278.247C277.608 98.2061 276.99 98.4894 276.4 98.8248C272.276 101.204 272.276 105.053 276.367 107.441H283.472V97.978Z" fill="#EFEEE8"/>
<path d="M278.078 106.061C281.274 107.912 286.458 107.912 289.654 106.061C292.85 104.211 292.85 101.216 289.654 99.3659C286.458 97.5154 281.274 97.5154 278.078 99.3659C274.883 101.216 274.883 104.211 278.078 106.061Z" fill="white"/>
<path d="M275.65 102.695C275.65 103.909 276.454 105.128 278.058 106.053C281.266 107.907 286.47 107.907 289.678 106.053C291.283 105.124 292.087 103.909 292.087 102.695V101.435H275.65V102.695Z" fill="#E5E4DF"/>
<path d="M278.058 104.793C281.266 106.648 286.47 106.648 289.678 104.793C292.887 102.939 292.887 99.9276 289.678 98.0731C286.47 96.2185 281.266 96.2185 278.058 98.0731C274.85 99.9276 274.85 102.939 278.058 104.793Z" fill="white"/>
<path d="M278.058 104.793C281.266 106.648 286.47 106.648 289.678 104.793C292.887 102.939 292.887 99.9276 289.678 98.0731C286.47 96.2185 281.266 96.2185 278.058 98.0731C274.85 99.9276 274.85 102.939 278.058 104.793Z" fill="white"/>
<path d="M283.868 97.54H279.468C278.986 97.7316 278.514 97.948 278.054 98.1885C274.854 99.7416 274.854 102.951 278.029 104.797H283.868V97.54Z" fill="#EFEEE8"/>
<path d="M283.868 104.818C288.776 104.818 292.755 100.833 292.755 95.9167C292.755 91.0008 288.776 87.0156 283.868 87.0156C278.96 87.0156 274.981 91.0008 274.981 95.9167C274.981 100.833 278.96 104.818 283.868 104.818Z" fill="#E5E4DF"/>
<path d="M284.874 102.414C289.012 102.414 292.367 99.0542 292.367 94.9093C292.367 90.7644 289.012 87.4043 284.874 87.4043C280.736 87.4043 277.381 90.7644 277.381 94.9093C277.381 99.0542 280.736 102.414 284.874 102.414Z" fill="white"/>
<path d="M314.375 110.468V112.145C314.375 114.322 315.81 116.499 318.68 118.159C319.207 118.466 319.751 118.742 320.309 118.985V117.374L326.767 111.447L314.396 110.481" fill="black"/>
<path d="M318.685 116.478C324.425 119.783 333.736 119.783 339.48 116.478C345.225 113.174 345.221 107.776 339.48 104.455C333.74 101.134 324.429 101.15 318.685 104.455C312.94 107.759 312.94 113.174 318.685 116.478Z" fill="#494949"/>
<path d="M329.08 105.508H317.122C312.998 108.812 313.497 113.492 318.668 116.478C319.245 116.809 319.843 117.103 320.458 117.358H329.068L329.08 105.508Z" fill="#383838"/>
<path d="M315.596 109.564C315.596 111.559 316.911 113.554 319.546 115.078C324.812 118.122 333.349 118.122 338.615 115.078C341.245 113.554 342.565 111.559 342.565 109.564V107.085H315.596V109.564Z" fill="#282828"/>
<path d="M319.546 112.608C324.812 115.652 333.348 115.652 338.614 112.608C343.88 109.564 343.88 104.628 338.614 101.58C333.348 98.5313 324.812 98.5354 319.546 101.58C314.28 104.624 314.28 109.564 319.546 112.608Z" fill="#494949"/>
<path d="M323.382 79.3745C326.524 81.1919 331.629 81.1919 334.763 79.3745C337.897 77.5571 337.905 74.6121 334.763 72.7947C331.621 70.9773 326.516 70.9773 323.382 72.7947C320.248 74.6121 320.248 77.5571 323.382 79.3745Z" fill="white"/>
<path d="M321.447 90.9189C322.709 84.8926 322.705 76.5615 322.705 76.5615H335.452C335.452 76.5615 335.452 84.8926 336.709 90.9189C339.806 105.685 342.561 103 342.561 107.098C342.561 110.072 329.076 110.815 329.076 110.815C329.076 110.815 315.592 110.068 315.592 107.098C315.596 103 318.351 105.685 321.447 90.9189Z" fill="#494949"/>
<path d="M315.596 107.098V109.576C315.596 111.571 316.911 113.566 319.546 115.091V112.612L317.571 107.552L315.596 107.098" fill="black"/>
<path d="M326.066 76.5617H322.709C322.709 76.5617 322.709 84.8928 321.452 90.9191C318.355 105.685 315.6 103.001 315.6 107.098C315.6 109.089 316.92 111.084 319.55 112.604C319.55 112.604 322.994 105.995 324.664 96.3837C326.169 87.7098 326.07 76.5576 326.07 76.5576" fill="#282828"/>
<path d="M318.52 78.6518C318.52 80.2131 319.551 81.7786 321.612 82.9681C325.736 85.3514 332.421 85.3514 336.549 82.9681C338.61 81.7745 339.641 80.2131 339.641 78.6518V77.0327H318.52V78.6518Z" fill="black"/>
<path d="M321.612 81.349C325.736 83.7323 332.421 83.7323 336.548 81.349C340.676 78.9657 340.672 75.0955 336.548 72.7123C332.425 70.329 325.74 70.329 321.612 72.7123C317.485 75.0955 317.489 78.9616 321.612 81.349Z" fill="#494949"/>
<path d="M328.693 71.8281H323.464C322.825 72.0562 322.207 72.3395 321.616 72.6749C317.493 75.054 317.493 78.9036 321.583 81.291H328.693V71.8281Z" fill="#383838"/>
<path d="M323.274 68.8007C322.854 69.043 322.46 69.3281 322.099 69.6515L320.862 71.2542V76.5411C320.862 77.7555 321.687 78.9739 323.27 79.8992C326.478 81.7537 331.658 81.7537 334.866 79.8992C336.47 78.9698 337.262 77.7555 337.262 76.5411V71.3781L336.025 69.6515L334.198 69.0981L333.13 67.8589L328.487 67.3633L325.031 67.8878L323.963 69.0815L323.278 68.8007" fill="#282828"/>
<path d="M323.423 74.567C323.693 74.3529 323.983 74.1648 324.289 74.0052C326.932 72.605 331.217 72.605 333.856 74.0052C334.19 74.1783 334.505 74.3859 334.796 74.6248C334.466 74.8995 334.093 75.116 333.691 75.265C333.159 75.422 325.212 75.7731 324.318 75.075C323.423 74.377 323.423 74.567 323.423 74.567" fill="black"/>
<path d="M322.812 74.5501V77.4951C322.832 77.8688 323.028 78.211 323.34 78.4161C323.633 78.5855 323.868 78.4492 323.868 78.1105V75.0911L324.235 74.8805C324.113 74.7055 324.043 74.4992 324.033 74.2857V73.8438L322.812 74.5501Z" fill="black"/>
<path d="M333.146 68.5652V71.5102C333.166 71.884 333.362 72.2262 333.674 72.4313C333.967 72.6006 334.202 72.4643 334.202 72.1256V69.1063L334.569 68.8956C334.447 68.7206 334.376 68.5143 334.367 68.3008V67.8589L333.146 68.5652Z" fill="black"/>
<path d="M335.369 74.5503V77.4953C335.373 77.8609 335.197 78.2051 334.899 78.4164C334.606 78.5857 334.371 78.4494 334.371 78.1107V75.1244L333.959 74.8766C334.081 74.7016 334.151 74.4953 334.161 74.2818V73.8398L335.369 74.5503Z" fill="black"/>
<path d="M325.031 68.5653V71.5309C325.007 71.9064 324.807 72.2483 324.491 72.452C324.198 72.6214 323.963 72.4851 323.963 72.1464V69.0981L323.612 68.9122C323.735 68.7372 323.805 68.5309 323.814 68.3174V67.8755L325.031 68.5653Z" fill="black"/>
<path fill-rule="evenodd" clip-rule="evenodd" d="M333.151 68.5651C330.528 67.6071 327.653 67.6071 325.031 68.5651L323.827 67.8588C326.87 66.3718 331.344 66.376 334.388 67.8588L333.151 68.5651ZM322.804 74.5501C320.235 72.7864 320.235 70.1966 322.804 68.4329L323.963 69.0814C321.736 70.4444 321.765 72.489 324.041 73.8355L322.804 74.5501ZM335.373 74.5584C337.938 72.7947 337.938 70.209 335.373 68.4494L334.223 69.1144C336.412 70.4734 336.384 72.5014 334.128 73.8397L335.373 74.5584ZM325.134 74.3642C327.692 75.2664 330.481 75.2664 333.039 74.3642L334.371 75.1325C331.336 76.5988 326.779 76.5368 323.872 75.0953L325.134 74.3642Z" fill="#494949"/>
<path d="M273.299 127.511L274.874 150.216L276.252 150.525L273.827 151.769L270.202 133.686L267.802 145.97L268.961 146.176L266.252 147.002L266.87 125.875L273.299 127.511Z" fill="black"/>
<path d="M265.65 115.375C265.65 115.375 265.113 116.462 265.959 117.085C266.804 117.709 268.664 117.164 271.32 114.132C272.898 112.326 274.133 110.245 274.965 107.994H274.087C273.222 109.278 272.234 110.475 271.138 111.567C268.722 113.892 266.812 114.367 265.65 115.375Z" fill="url(#paint0_linear)"/>
<path d="M273.839 108.358C273.839 108.358 274.396 107.16 274.821 107.164C275.427 107.164 274.746 108.523 274.746 108.523L273.839 108.358Z" fill="#FFC400"/>
<path d="M275.67 109.515C275.67 109.515 276.227 108.317 276.652 108.321C277.258 108.321 276.577 109.68 276.577 109.68L275.67 109.515Z" fill="#FFC400"/>
<path d="M266.887 126.453C266.887 126.453 270.458 129.687 272.821 128.721C273.472 128.457 273.32 127.606 273.233 126.891C273.126 125.875 272.936 125.144 272.26 122.951C270.895 118.548 267.027 114.748 266.074 115.516C265.122 116.284 265.979 116.974 266.474 120.022C266.814 122.148 266.952 124.301 266.887 126.453Z" fill="url(#paint1_linear)"/>
<path d="M267.039 117.209C267.039 117.209 266.503 118.296 267.348 118.919C268.194 119.543 270.367 119.308 273.002 116.28C274.671 114.264 275.912 111.928 276.647 109.415L275.732 109.386C275.732 109.386 274.21 112.207 272.845 113.715C270.598 116.197 268.21 116.197 267.039 117.209Z" fill="url(#paint2_linear)"/>
<path d="M267.097 111.935C265.419 109.556 262.8 111.997 264.623 114.169C265.27 114.942 266.115 115.557 266.882 115.322C267.74 115.053 268.412 113.798 267.097 111.935Z" fill="#FFC400"/>
<path d="M211.273 52.6455C208.907 52.119 200.31 56.2414 196.2 58.916C192.091 61.5906 197.359 63.8282 200.768 62.7752C203.175 62.0276 212.584 56.0835 212.584 56.0835C215.519 54.0881 213.638 53.2141 211.273 52.6455Z" fill="#27E38C"/>
<path d="M199.63 29.8747L197.565 60.0636L200.668 61.6484L199.224 59.474L203.592 37.7457L206.847 54.4039L210.308 55.4568L208.612 53.8774L207.938 29.6167L199.63 29.8747Z" fill="black"/>
<path d="M200.784 18.9081C200.784 18.9081 199.878 15.9018 198.676 16.5073C197.475 17.1128 197.528 21.3089 199.446 26.0631C200.684 29.0779 202.136 32.0004 203.792 34.8081L204.814 33.8394C204.814 33.8394 203.297 30.1539 202.459 27.3688C201.21 23.2727 201.253 20.8245 200.784 18.9081Z" fill="#FF3B5C"/>
<path d="M199.814 30.1119C199.814 30.1119 204.377 32.6549 207.395 31.4229C208.228 31.0859 208.033 30.0014 207.922 29.0905C207.785 27.7954 207.543 26.8635 206.679 24.0678C204.935 18.4554 200.315 14.9069 199.108 15.9072C197.902 16.9075 198.661 16.4337 199.272 20.3297C199.696 23.5725 199.877 26.8422 199.814 30.1119Z" fill="#FF3B5C"/>
<path d="M202.143 16.365C202.143 16.365 201.258 15.312 200.478 16.3966C199.698 17.4812 201.69 20.4927 205.599 23.8043C209.508 27.1159 215.471 28.3163 215.471 28.3163V27.2265C215.471 27.2265 210.825 25.2732 208.881 23.5411C205.657 20.7349 203.455 17.8445 202.143 16.365Z" fill="#FF3B5C"/>
<path d="M200.631 12.1058C198.487 9.07321 195.142 12.1848 197.47 14.9541C198.297 15.9386 199.377 16.7231 200.357 16.423C201.453 16.1018 202.306 14.5013 200.631 12.1058Z" fill="#AF7E43"/>
<path d="M199.951 10.7317C200.915 11.3635 197.27 12.1217 198.028 13.1536C199.124 14.633 196.822 13.1536 197.849 15.0331C198.26 15.786 199.741 16.6705 198.181 16.0861C196.622 15.5017 195.431 13.9012 196.237 12.248C196.98 10.7422 199.119 10.1842 199.951 10.7317Z" fill="black"/>
<path d="M255.019 68.135L191.633 104.673C189.215 106.069 184.99 105.895 182.192 104.284L156.379 89.3579C153.586 87.7468 154.034 83.5981 156.215 82.245L219.333 48.1021C221.751 46.7069 225.976 46.8806 228.773 48.4917L254.677 61.3223C256.931 62.3647 258.112 66.187 255.019 68.135Z" fill="#303030"/>
<path d="M254.503 66.0975L191.638 102.378C189.22 103.773 184.995 103.599 182.198 101.988L157.142 87.5309C154.35 85.9199 154.045 83.4822 156.463 82.0817L219.333 45.8013C221.751 44.4061 225.976 44.5799 228.773 46.1909L253.839 60.6536C256.615 62.2647 256.921 64.7023 254.503 66.0975Z" fill="black"/>
<path d="M156.468 84.4299L219.333 48.1495C221.751 46.7543 225.976 46.928 228.773 48.5391L253.839 62.9965C254.661 63.4292 255.348 64.0795 255.825 64.8761C256.626 63.5282 255.931 61.854 253.839 60.6641L228.768 46.1909C225.976 44.5799 221.751 44.4061 219.328 45.8013L156.468 82.0817C154.888 82.9978 154.466 84.3614 155.156 85.6513C155.481 85.1381 155.933 84.7174 156.468 84.4299Z" fill="black"/>
<path d="M157.142 87.5309L182.192 101.988C184.985 103.599 189.21 103.773 191.633 102.378L254.498 66.0975C255.033 65.81 255.485 65.3892 255.809 64.876C255.337 64.0816 254.655 63.4316 253.839 62.9965L228.768 48.5391C225.976 46.928 221.751 46.7543 219.328 48.1495L156.468 84.4299C155.933 84.7174 155.481 85.1381 155.156 85.6513C155.634 86.4479 156.321 87.0982 157.142 87.5309Z" fill="#4C4C4C"/>
<path d="M253.997 51.5033L228.942 37.0459C226.15 35.4348 221.925 35.2611 219.501 36.6563L156.642 72.9315C154.224 74.3267 154.535 76.7643 157.322 78.3806L182.377 92.8381C185.169 94.4491 189.394 94.6229 191.817 93.2277L254.677 56.9472C257.095 55.552 256.789 53.1144 253.997 51.5033Z" fill="black"/>
<path d="M210.767 72.0047L192.328 61.3538C191.617 60.9431 191.707 60.2271 192.528 59.7743L201.922 54.3567C202.776 53.8805 203.806 53.8376 204.698 54.2409L223.136 64.8918C223.848 65.3025 223.758 66.0185 222.936 66.4713L213.543 71.8889C212.688 72.365 211.658 72.408 210.767 72.0047Z" fill="white"/>
<path d="M213.327 69.1775L216.441 70.9729C217.683 71.5367 219.12 71.4781 220.313 70.8149L221.071 70.3779C222.22 69.7145 222.341 68.7142 221.351 68.1456L218.232 66.3345L213.327 69.1775Z" fill="white"/>
<path d="M212.221 71.4043L193.35 60.5164L203.218 54.8198L222.088 65.7076L212.221 71.4043Z" fill="black"/>
<path d="M212.068 70.5619L194.778 60.585L203.344 55.6465L220.634 65.6235L212.068 70.5619Z" fill="#38FFA1"/>
<path fill-rule="evenodd" clip-rule="evenodd" d="M228.768 25.7944L253.839 40.2361C256.615 41.8471 256.921 44.29 254.503 45.6852L191.633 81.9604C189.21 83.3556 184.985 83.1819 182.192 81.5708L157.148 67.1186C154.361 65.5023 154.05 63.0647 156.468 61.6695L219.327 25.4048C221.751 24.0096 225.976 24.1834 228.768 25.7944ZM162.342 60.5849L193.514 78.5751L248.74 46.7014L217.568 28.7112L162.342 60.5849Z" fill="white"/>
<path d="M234.742 36.7932C236.259 37.5623 238.051 37.5623 239.568 36.7932C240.901 36.0245 240.901 34.7767 239.568 34.008C238.051 33.2389 236.259 33.2389 234.742 34.008C233.409 34.7767 233.409 36.0192 234.742 36.7932Z" fill="#EFEEE8"/>
<path d="M178.373 75.1109C178.712 75.2826 179.113 75.2826 179.453 75.1109C179.583 75.0624 179.668 74.9386 179.668 74.8002C179.668 74.6619 179.583 74.5381 179.453 74.4896C179.113 74.3179 178.712 74.3179 178.373 74.4896C178.243 74.5381 178.157 74.6619 178.157 74.8002C178.157 74.9386 178.243 75.0624 178.373 75.1109Z" fill="#EFEEE8"/>
<path d="M171.008 70.8623C170.879 70.8138 170.793 70.69 170.793 70.5517C170.793 70.4134 170.879 70.2896 171.008 70.2411C171.348 70.0694 171.749 70.0694 172.088 70.2411L176.793 72.9525C176.922 73.001 177.008 73.1248 177.008 73.2631C177.008 73.4015 176.922 73.5253 176.793 73.5738C176.453 73.7455 176.052 73.7455 175.713 73.5738L171.008 70.8623Z" fill="#EFEEE8"/>
<path d="M128.605 128.713C128.605 131.524 126.745 134.336 123.031 136.479C115.598 140.769 103.539 140.769 96.1058 136.479C92.3865 134.336 90.5269 131.524 90.5269 128.713V79.7861H128.605V128.713Z" fill="black"/>
<path d="M110.346 113.397L104.345 125.075L108.644 123.469L107.485 130.909L113.438 119.231L109.171 120.868L110.346 113.397Z" fill="#FF8600"/>
<path d="M128.605 79.7861V128.713C128.605 131.524 126.745 134.336 123.031 136.479V96.7654" fill="#4C4C4C"/>
<path d="M128.605 95.8863C128.605 98.6977 126.745 101.509 123.031 103.652C115.598 107.943 103.539 107.943 96.1058 103.652C92.3865 101.509 90.5269 98.6977 90.5269 95.8863V79.8862H128.605V95.8863Z" fill="#FF8600"/>
<path d="M128.605 79.8862V95.8863C128.605 98.6977 126.745 101.509 123.031 103.652V84.6246L128.605 79.8862Z" fill="#FFC400"/>
<path d="M96.1005 72.0204C88.6672 76.3113 88.6672 83.2662 96.1005 87.5571C103.534 91.848 115.593 91.848 123.026 87.5571C130.459 83.2662 130.459 76.3113 123.026 72.0204C115.593 67.7295 103.539 67.7295 96.1005 72.0204Z" fill="#FFC400"/>
<path d="M97.7968 72.9946C91.2959 76.7432 91.2959 82.8241 97.7968 86.5727C104.298 90.3214 114.834 90.3214 121.33 86.5727C127.825 82.8241 127.83 76.7432 121.33 72.9946C114.829 69.246 104.298 69.246 97.7968 72.9946Z" fill="#4C4C4C"/>
<path d="M115.788 79.4597C115.788 80.3758 115.182 81.2972 113.965 81.9974C111.536 83.3979 107.596 83.3979 105.167 81.9974C103.95 81.2972 103.344 80.3758 103.344 79.4597V76.3008H115.788V79.4597Z" fill="#303030"/>
<path d="M105.167 73.7578C102.738 75.1583 102.738 77.4433 105.167 78.8332C107.596 80.2231 111.536 80.2337 113.965 78.8332C116.393 77.4327 116.393 75.1478 113.965 73.7578C111.536 72.3679 107.596 72.3574 105.167 73.7578Z" fill="#4C4C4C"/>
<path d="M107.991 94.2856V103.12H111.152V94.2856C110.094 94.3243 109.041 94.3243 107.991 94.2856Z" fill="black"/>
<path d="M113.907 96.8706C112.959 96.9759 111.994 97.0443 111.036 97.0759H110.377H109.571H108.765H108.107C107.143 97.0391 106.184 96.9706 105.235 96.8706V99.9506C106.152 100.051 107.074 100.114 108.007 100.151H108.112H108.77H109.576H110.382H111.041H111.146C112.074 100.114 113.001 100.051 113.912 99.9506L113.907 96.8706Z" fill="black"/>
<path d="M170.481 96.7075C170.473 96.1318 170.192 95.5943 169.723 95.2597L166.53 93.417C166.383 93.3131 166.189 93.3009 166.03 93.3854L160.762 96.439L164.929 100.377L170.234 97.3182C170.418 97.1723 170.512 96.9404 170.481 96.7075Z" fill="white"/>
<path d="M161.257 98.4872L164.449 100.33C164.866 100.572 165.208 100.33 165.208 99.756C165.2 99.1803 164.918 98.6428 164.449 98.3081L161.257 96.4654C160.841 96.2232 160.498 96.4654 160.498 97.0393C160.507 97.615 160.788 98.1525 161.257 98.4872Z" fill="#EFEEE8"/>
<path d="M111.599 135.189C111.599 134.63 111.147 134.178 110.588 134.178H107.185C106.626 134.178 106.173 134.63 106.173 135.189V142.675H111.599V135.189Z" fill="white"/>
<path d="M106.173 142.673C106.173 142.116 106.625 141.665 107.181 141.665H110.596C111.153 141.665 111.605 142.116 111.605 142.673C111.605 143.23 111.153 143.681 110.596 143.681H107.181C106.625 143.681 106.173 143.23 106.173 142.673Z" fill="#EFEEE8"/>
<path d="M162.611 98.6294L140.674 111.086C138.219 112.502 138.219 114.772 140.674 116.214L190.026 144.592C192.481 146.008 192.481 148.277 190.026 149.72L189.916 149.783C187.471 151.194 183.473 151.194 181.033 149.783L148.308 130.882C145.863 129.471 141.865 129.471 139.426 130.882V130.882C136.981 132.293 136.981 134.599 139.426 136.01L151.342 142.886C153.797 144.302 153.797 146.572 151.342 148.014L138.794 155.132L115.213 168.337C113.901 169.072 112.298 169.058 110.998 168.3C109.699 167.543 108.897 166.155 108.892 164.651V143.202" stroke="white" stroke-width="2.89" stroke-linecap="round"/>
<path d="M234.9 59.369L232.893 88.3049L231.128 88.6997L234.231 90.2845L238.862 67.2347L241.928 82.8925L240.448 83.1558L243.909 84.214L243.113 57.2788L234.9 59.369Z" fill="black"/>
<path d="M242.581 45.4957C242.581 45.4957 243.793 44.5375 244.794 45.4273C245.795 46.3171 245.616 48.7863 242.544 52.8876C240.716 55.3382 238.456 57.4346 235.875 59.0739L235.648 58.0209C237.025 56.6 238.26 55.0483 239.336 53.3878C241.559 49.7392 241.638 47.2279 242.581 45.4957Z" fill="#668CFF"/>
<path d="M243.113 58.0213C243.113 58.0213 238.562 62.1226 235.532 60.9117C234.7 60.5748 234.895 59.4902 235.006 58.5794C235.142 57.2842 235.385 56.3523 236.249 53.5566C237.993 47.9443 242.934 43.1006 244.151 44.0798C245.368 45.0591 244.277 45.9067 243.666 49.7975C243.222 52.5151 243.037 55.2687 243.113 58.0213Z" fill="#668CFF"/>
<path d="M240.479 46.5016C240.479 46.5016 241.259 45.8224 242.218 46.7543C243.176 47.6862 241.754 50.9978 238.493 54.9518C235.232 58.9057 229.574 61.1433 229.574 61.1433L229.395 60.0903C229.395 60.0903 233.61 57.342 235.232 55.3151C237.893 51.9403 239.452 48.1864 240.479 46.5016Z" fill="#668CFF"/>
<path d="M243.356 40.5628C245.5 37.5302 248.845 40.6418 246.516 43.4111C245.689 44.3957 244.609 45.1801 243.629 44.88C242.528 44.5378 241.675 42.9373 243.356 40.5628Z" fill="#FFC400"/>
<path d="M244.557 38.6412C243.593 39.273 245.131 40.5576 244.372 41.5895C243.276 43.069 245.579 41.5895 244.551 43.4691C244.14 44.222 244.241 45.633 245.8 45.0486C247.359 44.4642 248.961 43.09 248.271 40.684C247.791 39.0782 245.41 38.0936 244.557 38.6412Z" fill="black"/>
<defs>
<linearGradient id="paint0_linear" x1="272.153" y1="112.034" x2="269.913" y2="110.712" gradientUnits="userSpaceOnUse">
<stop stop-color="#668CFF"/>
<stop offset="1" stop-color="#92B1FF"/>
</linearGradient>
<linearGradient id="paint1_linear" x1="445.158" y1="1341.51" x2="329.701" y2="1329.38" gradientUnits="userSpaceOnUse">
<stop stop-color="#668CFF"/>
<stop offset="1" stop-color="#92B1FF"/>
</linearGradient>
<linearGradient id="paint2_linear" x1="502.889" y1="2798.54" x2="445.401" y2="2766.09" gradientUnits="userSpaceOnUse">
<stop stop-color="#668CFF"/>
<stop offset="1" stop-color="#92B1FF"/>
</linearGradient>
</defs>
</svg>
