<svg width="77" height="63" viewBox="0 0 77 63" fill="none" xmlns="http://www.w3.org/2000/svg">
<path d="M70.8752 39.8439L72.297 60.9052L70.146 62.0079L71.1668 60.5009L68.1408 45.3206L65.8804 56.9355L63.4741 57.6707L64.6772 56.568L65.1147 39.6602L70.8752 39.8439Z" fill="black"/>
<path d="M70.0731 32.162C70.0731 32.162 70.6929 30.0669 71.5314 30.4712C72.37 30.8756 72.3335 33.816 70.9845 37.1241C69.672 40.4321 67.995 42.4905 67.995 42.4905L67.3022 41.8289C67.3022 41.8289 68.3595 39.9911 68.9429 38.043C69.7814 35.2128 69.745 33.522 70.0731 32.162Z" fill="#FF3B5C"/>
<path d="M70.7659 39.9909C70.7659 39.9909 67.594 41.7552 65.5159 40.9098C64.9325 40.6892 65.0784 39.9173 65.1513 39.2925C65.2606 38.3736 65.4065 37.7487 66.0263 35.8007C67.2294 31.8678 70.4377 29.4051 71.2763 30.1035C72.1148 30.8018 71.6044 30.471 71.1669 33.191C70.9117 34.4407 70.6929 37.0871 70.7659 39.9909Z" fill="#FF3B5C"/>
<path d="M69.125 30.3976C69.125 30.3976 69.7448 29.6625 70.2917 30.4344C70.8385 31.2063 69.4531 33.3014 66.7552 35.617C64.0573 37.9327 59.9375 38.778 59.9375 38.778V38.0062C59.9375 38.0062 63.1458 36.6462 64.4948 35.4332C66.7187 33.4484 68.2135 31.4268 69.125 30.3976Z" fill="#FF3B5C"/>
<path d="M70.1825 27.4206C71.6773 25.2887 73.9742 27.4573 72.37 29.4054C71.7867 30.1038 71.0575 30.6551 70.3648 30.4346C69.5992 30.214 69.0158 29.1114 70.1825 27.4206Z" fill="#4A71D3"/>
<path d="M70.5469 27.0161C71.276 27.3469 72.0052 28.1555 72.0052 28.1555C70.9115 29.8095 72.8437 28.1555 72.1146 29.4787C71.8229 29.9933 71.5312 30.1403 71.5312 30.1403C73.2448 30.7652 75.3229 28.5598 73.2812 26.575C72.4062 25.7664 71.0573 25.5091 70.5469 27.0161Z" fill="black"/>
<path d="M43.3492 29.4052C44.9898 29.0376 50.9325 31.9046 53.7763 33.7792C56.62 35.6537 52.9742 37.1975 50.6044 36.4624C48.9273 35.9478 42.4377 31.7943 42.4377 31.7943C40.4325 30.3976 41.7086 29.8095 43.3492 29.4052Z" fill="#27E38C"/>
<path d="M51.4061 13.5266L52.8644 34.5878L50.7134 35.6905L51.6978 34.1835L48.6717 19.0032L46.4113 30.6182L44.0415 31.3533L45.2082 30.2506L45.6821 13.3428L51.4061 13.5266Z" fill="black"/>
<path d="M50.6043 5.84415C50.6043 5.84415 51.2241 3.74905 52.0627 4.15337C52.9012 4.55768 52.8648 7.49817 51.5158 10.8062C50.2033 14.1143 48.5262 16.1726 48.5262 16.1726L47.8335 15.511C47.8335 15.511 48.8908 13.6732 49.4741 11.7251C50.3127 8.89491 50.3127 7.20413 50.6043 5.84415Z" fill="#36F49A"/>
<path d="M51.2971 13.6735C51.2971 13.6735 48.1252 15.4378 46.0471 14.5924C45.4638 14.3718 45.6096 13.6 45.6825 12.9751C45.7919 12.0562 45.9377 11.4313 46.5575 9.48327C47.7606 5.55037 50.969 3.08771 51.8075 3.78607C52.6461 4.48444 52.1356 4.15363 51.6981 6.87359C51.4429 8.1233 51.2606 10.7697 51.2971 13.6735Z" fill="#36F49A"/>
<path d="M49.6927 4.08026C49.6927 4.08026 50.3125 3.34513 50.8594 4.11701C51.4062 4.88889 50.0208 6.98399 47.3229 9.29963C44.625 11.6153 40.4688 12.4239 40.4688 12.4239V11.652C40.4688 11.652 43.6771 10.292 45.026 9.07909C47.25 7.13102 48.7813 5.10943 49.6927 4.08026Z" fill="#36F49A"/>
<path d="M50.7133 1.10271C52.2081 -1.02915 54.505 1.13946 52.9008 3.08754C52.3175 3.7859 51.5883 4.33724 50.8956 4.11671C50.1665 3.89617 49.5467 2.75673 50.7133 1.10271Z" fill="#FFC400"/>
<path d="M51.1876 0.147204C50.5314 0.588278 53.047 1.10286 52.5366 1.83799C51.771 2.86716 53.3752 1.83799 52.646 3.16121C52.3543 3.67579 51.3335 4.30065 52.4272 3.89633C53.521 3.49201 54.3231 2.38933 53.7762 1.21313C53.2658 0.147204 51.771 -0.220357 51.1876 0.147204Z" fill="black"/>
<path d="M50.0207 24.9209C50.0207 28.3392 47.7603 31.7576 43.2759 34.3672C34.3071 39.5866 19.7603 39.5866 10.755 34.3672C6.27067 31.7576 4.01025 28.3392 4.01025 24.9209V20.3999H49.9842V24.9209H50.0207Z" fill="#EFEEE8"/>
<path d="M27.0155 33.779C39.7209 33.779 50.0207 27.7889 50.0207 20.3997C50.0207 13.0106 39.7209 7.02051 27.0155 7.02051C14.31 7.02051 4.01025 13.0106 4.01025 20.3997C4.01025 27.7889 14.31 33.779 27.0155 33.779Z" fill="white"/>
<path d="M12.3957 17.4959C16.2603 15.2538 21.4738 14.004 27.0519 14.004C32.63 14.004 37.8071 15.2538 41.7082 17.4959C44.2603 19.0029 46.0103 20.7672 46.7759 22.6785C47.0675 21.9434 47.2498 21.1715 47.2498 20.3996C47.2498 17.6797 45.2811 15.0332 41.7082 12.9381C37.8436 10.696 32.63 9.44629 27.0519 9.44629C21.4738 9.44629 16.2967 10.696 12.3957 12.9381C8.82275 14.9965 6.854 17.6429 6.854 20.3996C6.854 21.1715 6.99984 21.9434 7.32796 22.6785C8.09359 20.7672 9.84359 19.0029 12.3957 17.4959Z" fill="#EFEEE8"/>
<path d="M12.3957 27.8243C16.2603 30.0665 21.4738 31.3162 27.0519 31.3162C32.63 31.3162 37.8071 30.0665 41.7082 27.8243C43.9321 26.5379 45.5363 24.9941 46.4113 23.3769C46.5571 23.1563 46.6665 22.899 46.7394 22.6417C45.9738 20.7304 44.2238 18.9661 41.6717 17.4591C37.8071 15.217 32.5936 13.9673 27.0155 13.9673C21.4373 13.9673 16.2603 15.217 12.3592 17.4591C9.80713 18.9661 8.05713 20.7304 7.2915 22.6417C7.40088 22.899 7.51025 23.1196 7.61963 23.3769C8.56755 25.0309 10.1717 26.5379 12.3957 27.8243Z" fill="#444444"/>
<path d="M42.182 25.7292C38.8278 27.6773 34.3434 28.7432 29.5674 28.7432C24.7913 28.7432 20.307 27.6773 16.9528 25.7292C15.0205 24.6265 13.6715 23.3033 12.9059 21.9066C12.7965 21.686 12.6872 21.5023 12.6143 21.2817C12.359 20.6201 12.2132 19.9585 12.2132 19.2969C12.2132 16.9445 13.8903 14.6656 16.9893 12.8646C18.3747 12.0559 19.9788 11.3943 21.7288 10.9165C18.7757 11.4311 16.0778 12.35 13.8538 13.6365C10.5726 15.511 8.78613 17.9369 8.78613 20.3996C8.78613 21.098 8.93197 21.7963 9.22363 22.4579C9.29655 22.6785 9.40592 22.899 9.55176 23.1195C10.3538 24.5898 11.8122 25.9498 13.8174 27.126C17.3174 29.1843 22.0205 30.287 27.0518 30.287C32.083 30.287 36.7861 29.1475 40.2861 27.126C41.1247 26.6481 41.8903 26.0968 42.5465 25.5454C42.4007 25.619 42.2913 25.6557 42.182 25.7292Z" fill="#656565"/>
<path d="M12.1768 19.2969C12.1768 16.9445 13.8538 14.6656 16.9528 12.8646C18.3382 12.0559 19.9424 11.3943 21.6924 10.9165C18.7393 11.4311 16.0413 12.35 13.8174 13.6365C10.5726 15.511 8.78613 17.9369 8.78613 20.3996L8.96842 21.7963L12.1768 19.2969Z" fill="white"/>
<path d="M45.354 29.956C45.0259 29.7723 44.6248 29.7723 44.1144 30.0663C43.1665 30.6177 42.4009 31.9409 42.4009 33.0436C42.4009 33.5949 42.6196 33.9992 42.9113 34.183L56.0363 41.8283L58.4425 37.6013L45.354 29.956Z" fill="#EFEEE8"/>
<path d="M51.2604 31.794C50.75 31.5 50.0937 31.5367 49.3281 31.9778C47.8333 32.8599 46.5938 34.9918 46.5938 36.7193C46.5938 37.6015 46.9219 38.2263 47.4323 38.5204L72.4427 53.1861L76.2708 46.4597L51.2604 31.794Z" fill="#060807"/>
<path d="M76.2303 50.876C77.2874 49.0301 77.2821 47.0318 76.2184 46.4127C75.1548 45.7935 73.4355 46.788 72.3784 48.6338C71.3213 50.4797 71.3266 52.478 72.3903 53.0971C73.454 53.7163 75.1732 52.7218 76.2303 50.876Z" fill="#323031"/>
<path d="M9.36963 34.6978L10.755 54.8769L11.9946 55.1709L9.84359 56.2736L6.63525 40.1744L4.52067 51.091L5.5415 51.2748L3.13525 52.0099L3.68213 33.2275L9.36963 34.6978Z" fill="black"/>
<path d="M4.04667 24.9942C4.04667 24.9942 3.20813 24.3326 2.51542 24.9575C1.82271 25.5823 1.96854 27.3099 4.08313 30.1401C6.19771 32.9703 8.71334 34.4773 8.71334 34.4773L8.85917 33.7422C8.85917 33.7422 7.36438 32.2352 6.30709 30.5076C4.77584 27.9715 4.70292 26.2072 4.04667 24.9942Z" fill="#668CFF"/>
<path d="M3.68219 33.7424C3.68219 33.7424 6.85407 36.6094 8.93219 35.764C9.51552 35.5434 9.36969 34.7716 9.29677 34.1467C9.1874 33.2278 9.04157 32.603 8.42177 30.6549C7.21865 26.722 3.79157 23.3404 2.95302 24.0388C2.11448 24.7371 2.88011 25.3252 3.28115 28.0452C3.53636 29.2949 3.71865 30.8387 3.68219 33.7424Z" fill="#668CFF"/>
<path d="M5.50507 25.6927C5.50507 25.6927 4.95819 25.2149 4.30194 25.8765C3.64569 26.5381 4.63007 28.8538 6.89049 31.6105C9.1509 34.3672 13.0519 35.9477 13.0519 35.9477L13.1613 35.2126C13.1613 35.2126 10.2447 33.3012 9.11444 31.8678C7.29153 29.4786 6.23424 26.8689 5.50507 25.6927Z" fill="#668CFF"/>
<path d="M3.53615 21.5392C2.04136 19.4074 -0.255515 21.576 1.34865 23.5241C1.93199 24.2224 2.66115 24.7738 3.35386 24.5532C4.08303 24.3327 4.66636 23.1933 3.53615 21.5392Z" fill="#AF7E43"/>
<path d="M2.69776 20.2161C3.35401 20.6572 2.29671 21.5393 2.80713 22.2744C3.57276 23.3036 1.96859 22.2744 2.69776 23.5977C2.98942 24.1123 2.91651 25.1047 1.82276 24.7004C0.729007 24.296 -0.364743 23.3404 0.109215 21.6496C0.43734 20.5102 2.11442 19.8485 2.69776 20.2161Z" fill="black"/>
<path d="M27.2707 35.7637L28.6925 56.9352L28.3644 57.3395C28.2186 57.5233 27.9634 57.5233 27.7811 57.3763L27.4165 57.0087L24.6457 42.8944L22.4217 57.0087L22.1665 57.266C21.9478 57.4865 21.6196 57.413 21.4738 57.1557L21.2915 56.8249L21.7655 36.6826L27.2707 35.7637Z" fill="black"/>
<path d="M21.8022 37.2338C21.8022 37.2338 24.8283 38.9613 26.8335 37.0868C27.3804 36.5722 27.271 35.8371 27.1981 35.1755C27.0887 34.2565 26.9429 32.8598 26.3595 31.022C25.1929 27.3096 24.5366 24.847 23.7345 24.847C22.9689 24.8102 22.5314 28.1183 22.1668 31.2425C22.021 32.529 21.8022 35.2122 21.8022 37.2338Z" fill="#FFC400"/>
<path d="M23.2969 25.4722C23.2969 25.4722 20.8177 30.6548 19.9792 32.9337C19.25 34.992 18.1562 38.1898 18.1562 38.1898L19.1042 38.3368L21.2917 34.0363L23.2969 29.5153V25.4722Z" fill="#FFC400"/>
<path d="M24.4272 25.4722C24.4272 25.4722 28.0366 31.3899 28.9845 33.2277C29.9689 35.1758 31.4272 38.153 31.4272 38.153L30.6616 38.5206L26.1772 31.684L24.4272 28.0451V25.4722Z" fill="#FFC400"/>
<path d="M25.1929 23.818C25.1929 21.1348 22.0575 21.5758 22.2762 24.1855C22.3492 25.1044 21.0367 28.3757 23.3335 28.5962C27.271 28.9638 25.1929 25.9131 25.1929 23.818Z" fill="#FF3B5C"/>
</svg>
