<svg width="79" height="67" viewBox="0 0 79 67" fill="none" xmlns="http://www.w3.org/2000/svg">
<path d="M2.43731 44.1265C-0.593445 44.1265 -0.368017 45.5792 0.809217 46.2555L34.8488 66.018C35.1494 66.1933 35.4249 66.2685 35.6754 66.2685L76.2023 56.2685L40.1088 34.1265L10 42.0005" fill="#EFEEE8"/>
<path d="M40.3342 3.04195V31.4959C40.3342 33.0739 41.286 34.9024 42.4882 35.6037L76.8534 56.1177C76.8534 56.1177 77.3794 55.792 77.8554 55.5416C78.3313 55.266 78.6819 54.69 78.6819 53.7632V25.2591C78.6819 23.6811 77.7301 21.8526 76.5278 21.1513L42.6636 1.51405C41.837 1.0131 41.0104 1.21348 40.6347 1.36376C39.8583 1.63929 39.4825 2.41576 39.4825 2.41576" fill="#FFC400"/>
<path d="M77.5298 54.3895V25.9355C77.5298 24.3575 76.578 22.5291 75.3757 21.8277L41.3361 2.09028C40.1589 1.41399 39.182 2.14037 39.182 3.71837V32.1724C39.182 33.7504 40.1338 35.5788 41.3361 36.2802L75.3757 56.0427C76.5529 56.6939 77.5298 55.9675 77.5298 54.3895Z" fill="#303030"/>
<path d="M77.5298 54.3895V25.9355C77.5298 24.3575 76.578 22.5291 75.3757 21.8277L41.3361 2.09028C40.1589 1.41399 39.182 2.14037 39.182 3.71837V32.1724C39.182 33.7504 40.1338 35.5788 41.3361 36.2802L75.3757 56.0427C76.5529 56.6939 77.5298 55.9675 77.5298 54.3895Z" fill="#303030"/>
<path d="M76.3459 40.8321C76.7053 40.6246 76.6996 39.9417 76.3331 39.3067C75.9666 38.6717 75.378 38.3251 75.0186 38.5326C74.6592 38.74 74.6649 39.423 75.0314 40.058C75.398 40.6929 75.9865 41.0395 76.3459 40.8321Z" fill="black"/>
<path d="M73.923 54.2645V21.9782L42.0375 3.49316V35.7544L73.923 54.2645Z" fill="#76A3FF"/>
<path d="M66.8596 32.2237L73.923 21.9792L42.0375 3.49414L39.9586 10.2069L34.9741 13.7135L66.8596 32.2237Z" fill="white"/>
<path d="M37.8796 15.3909C37.8796 15.3909 39.4576 14.1636 41.5616 11.1078C43.6656 8.05196 44.943 5.14645 44.943 5.14645L42.0375 3.46826C42.0375 3.46826 40.71 6.44892 38.7563 9.27929C36.8026 12.1097 34.9741 13.7127 34.9741 13.7127L37.8796 15.3909Z" fill="#FF3B5C"/>
<path d="M43.6655 18.7722C43.6655 18.7722 45.2435 17.5449 47.3475 14.4891C49.4515 11.4333 50.7289 8.52779 50.7289 8.52779L47.8234 6.84961C47.8234 6.84961 46.4959 9.83027 44.5422 12.6606C42.5885 15.491 40.76 17.094 40.76 17.094L43.6655 18.7722Z" fill="#FF3B5C"/>
<path d="M49.4766 22.1287C49.4766 22.1287 51.0546 20.9013 53.1585 17.8456C55.2625 14.7898 56.54 11.8842 56.54 11.8842L53.6345 10.2061C53.6345 10.2061 52.3069 13.1867 50.3532 16.0171C48.3995 18.8475 46.571 20.4505 46.571 20.4505L49.4766 22.1287Z" fill="#FF3B5C"/>
<path d="M37.8796 15.416L34.9741 13.7378V14.7397C34.9741 15.6665 35.6254 16.7936 36.4269 17.2444C37.2284 17.6953 37.8796 17.3196 37.8796 16.4179" fill="#B21942"/>
<path d="M40.7852 18.0707C40.7852 18.9975 40.1339 19.3732 39.3324 18.8973C38.5309 18.4214 37.8796 17.3193 37.8796 16.3925V15.3906L40.7852 17.0688V18.0707Z" fill="#D3D3D3"/>
<path d="M43.6655 18.7719L40.76 17.0938V18.0957C40.76 19.0224 41.4112 20.1495 42.2128 20.6004C43.0143 21.0513 43.6655 20.6755 43.6655 19.7738" fill="#B21942"/>
<path d="M46.5712 21.4521C46.5712 22.3788 45.9199 22.7545 45.1184 22.2786C44.3169 21.8027 43.6656 20.7006 43.6656 19.7739V18.772L46.5712 20.4502V21.4521Z" fill="#D3D3D3"/>
<path d="M49.4766 23.1303C49.4766 24.057 48.8253 24.4328 48.0238 23.9568C47.2223 23.4809 46.571 22.3789 46.571 21.4521V20.4502L49.4766 22.1284V23.1303Z" fill="#B21942"/>
<path d="M55.2626 25.51C55.2626 25.51 56.8406 24.2827 58.9446 21.2269C61.0485 18.1711 62.326 15.2656 62.326 15.2656L59.4205 13.5874C59.4205 13.5874 58.0929 16.5681 56.1392 19.3984C54.1855 22.2288 52.3571 23.8318 52.3571 23.8318L55.2626 25.51Z" fill="#FF3B5C"/>
<path d="M61.0486 28.8665C61.0486 28.8665 62.6266 27.6391 64.7306 24.5833C66.8346 21.5275 68.112 18.622 68.112 18.622L65.2065 16.9438C65.2065 16.9438 63.8789 19.9245 61.9252 22.7549C59.9715 25.5852 58.1431 27.1883 58.1431 27.1883L61.0486 28.8665Z" fill="#FF3B5C"/>
<path d="M66.8596 32.3981C66.7844 32.3981 66.7343 32.373 66.6842 32.2979C66.6341 32.1977 66.6592 32.0724 66.7594 32.0223L73.8228 27.9396C73.923 27.8895 74.0482 27.9146 74.0983 28.0147C74.1484 28.1149 74.1233 28.2402 74.0232 28.2903L66.9597 32.373C66.9347 32.3981 66.8846 32.3981 66.8596 32.3981Z" fill="#303030"/>
<path d="M66.8596 32.2229C66.8596 32.2229 68.4376 30.9956 70.5416 27.9398C72.6456 24.884 73.923 21.9785 73.923 21.9785L71.0175 20.3003C71.0175 20.3003 69.69 23.2809 67.7363 26.1113C65.7826 28.9417 63.9541 30.5447 63.9541 30.5447L66.8596 32.2229Z" fill="#FF3B5C"/>
<path d="M55.2626 25.5097L52.3571 23.8315V24.8334C52.3571 25.7602 53.0083 26.8873 53.8098 27.3382C54.6113 27.7891 55.2626 27.4133 55.2626 26.5116" fill="#B21942"/>
<path d="M58.1681 28.1899C58.1681 29.1166 57.5168 29.4923 56.7153 29.0164C55.9138 28.5656 55.2626 27.4384 55.2626 26.5117V25.5098L58.1681 27.1879V28.1899Z" fill="#D3D3D3"/>
<path d="M52.3571 24.8085C52.3571 25.7353 51.7058 26.111 50.9043 25.6351C50.1028 25.1842 49.4515 24.0571 49.4515 23.1303V22.1284L52.3571 23.8066V24.8085Z" fill="#D3D3D3"/>
<path d="M61.0486 28.8662L58.1431 27.188V28.1899C58.1431 29.1166 58.7943 30.2438 59.5958 30.6946C60.3973 31.1455 61.0486 30.7698 61.0486 29.8681" fill="#B21942"/>
<path d="M63.9541 31.5468C63.9541 32.4735 63.3029 32.8493 62.5013 32.3734C61.6998 31.9225 61.0486 30.7954 61.0486 29.8686V28.8667L63.9541 30.5449V31.5468Z" fill="#D3D3D3"/>
<path d="M66.8596 33.2245C66.8596 34.1513 66.2084 34.527 65.4069 34.0511C64.6053 33.5752 63.9541 32.4731 63.9541 31.5463V30.5444L66.8596 32.2226V33.2245Z" fill="#B21942"/>
<path d="M39.1821 48.5283L40.3844 55.9173L39.5578 56.0927L41.0356 56.8441L40.9104 49.2046" fill="black"/>
<path d="M42.3882 47.2261L43.5153 54.1642L42.6888 54.3646L44.1666 55.116L44.0413 47.8022" fill="black"/>
<path d="M45.5693 59.1232V52.8613H44.9932V59.1232C44.9932 59.1733 45.0182 59.1984 45.0683 59.2484C45.1935 59.3236 45.3689 59.3236 45.4941 59.2484C45.5442 59.1984 45.5693 59.1733 45.5693 59.1232Z" fill="#FF8600"/>
<path d="M49.4767 56.8693V50.6074H48.9006V56.8693C48.9006 56.9194 48.9257 56.9444 48.9758 56.9945C49.101 57.0697 49.2763 57.0697 49.4016 56.9945C49.4517 56.9695 49.4767 56.9194 49.4767 56.8693Z" fill="#FF8600"/>
<path d="M41.9623 57.0192V50.7573H41.3862V57.0192C41.3862 57.0693 41.4113 57.0943 41.4614 57.1444C41.5866 57.2196 41.7619 57.2196 41.8872 57.1444C41.9373 57.1194 41.9623 57.0693 41.9623 57.0192Z" fill="#FF8600"/>
<path d="M45.8698 54.7902V48.5283H45.2937V54.7902C45.2937 54.8403 45.3187 54.8653 45.3688 54.9154C45.4941 54.9906 45.6694 54.9906 45.7947 54.9154C45.8447 54.8653 45.8698 54.8152 45.8698 54.7902Z" fill="#FF8600"/>
<path d="M46.1202 48.2528C45.7195 48.0273 45.0182 48.0524 44.5673 48.3279L41.0857 50.1564V50.5822C41.0606 50.7325 41.1608 50.9078 41.3612 51.008L44.6675 52.9116C45.0682 53.137 45.7696 53.112 46.2204 52.8364L49.3263 51.0581C49.5518 50.9078 49.677 50.7074 49.677 50.5321V50.0812L49.3013 50.507" fill="#FF8600"/>
<path d="M41.3612 50.5573L44.6675 52.4609C45.0683 52.6863 45.7696 52.6613 46.2204 52.3858L49.3013 50.6074C49.7521 50.3319 49.8022 49.9311 49.4015 49.7057L46.0952 47.8021C45.6944 47.5766 44.9931 47.6017 44.5423 47.8772L41.4614 49.6556C41.0106 49.9061 40.9605 50.3319 41.3612 50.5573Z" fill="#FFC400"/>
<path d="M49.8774 45.1724L45.7696 47.627L42.7889 46.55C42.6637 46.4999 42.5384 46.4748 42.3882 46.4999C41.2109 46.6001 41.5365 47.8024 41.5365 47.8024L43.1897 48.654L45.6944 49.8062C46.3958 50.1819 47.2474 50.1819 47.9237 49.7811L50.4535 48.3283L49.8774 45.1724Z" fill="black"/>
<path d="M47.4979 45.8984L44.417 48.0776L40.2591 47.2009C38.8064 47.1508 39.1821 48.5034 39.1821 48.5034L40.8352 49.355L44.2667 50.9831C44.9681 51.3588 45.8197 51.3588 46.496 50.958L48.099 49.0043L47.4979 45.8984Z" fill="black"/>
<path d="M47.0721 41.1149C47.0721 41.1149 47.7233 41.0648 47.8486 41.6409C47.9488 42.217 47.2725 43.0936 45.1685 43.8701C43.0645 44.6466 41.3112 44.5213 41.3112 44.5213L41.5115 44.0705C41.5115 44.0705 42.789 43.795 43.9411 43.269C45.6444 42.4424 46.3207 41.5407 47.0721 41.1149Z" fill="#76A3FF"/>
<path d="M48.5999 46.7503C48.5999 46.7503 47.6481 49.9063 46.1453 49.5305C45.7195 49.4304 44.7426 49.0546 44.7426 48.6288C44.7176 48.0026 45.0682 46.2493 45.2686 44.8717C45.6694 42.1165 47.4477 39.762 48.0739 40.1377C48.7252 40.5134 48.2743 40.9893 48.2493 42.8679C48.2493 43.7446 48.2743 44.7966 48.5999 46.7503Z" fill="#76A3FF"/>
<path d="M46.5962 42.041C46.5962 42.041 47.3225 41.9909 47.4728 42.6171C47.6231 43.2433 46.9719 44.3955 44.6425 45.1469C42.313 45.8983 39.4827 45.3473 39.4827 45.3473L39.683 44.8714C39.683 44.8714 42.0876 44.8463 43.2398 44.4456C45.1685 43.7943 45.7445 42.4668 46.5962 42.041Z" fill="#76A3FF"/>
<path d="M45.6694 39.261C45.9199 37.5076 47.9988 38.1088 47.6231 39.787C47.4979 40.3881 47.1973 40.9392 46.7214 41.0394C46.1704 41.1395 45.469 40.6386 45.6694 39.261Z" fill="#FFC400"/>
<path d="M46.0701 38.6847C46.0701 38.6847 47.0971 38.9102 46.9217 39.7618C46.7464 40.6134 46.7464 42.4168 47.7984 43.1182C48.8504 43.8195 49.6269 42.7174 49.4515 41.6904C49.2762 40.6635 48.1741 38.0836 46.8215 38.0085C45.469 37.9333 45.6193 38.4844 46.0701 38.6847Z" fill="black"/>
<path d="M51.255 43.0677L50.6789 42.717C50.5787 42.6419 50.4284 42.6669 50.2531 42.7671L47.1472 44.5705C46.7715 44.796 46.4459 45.347 46.3707 45.7979L45.7696 50.9577C45.7445 51.2081 45.7946 51.3835 45.9199 51.4586L46.4959 51.8093L50.729 43.8943" fill="#FF8600"/>
<path d="M46.9218 51.7598L50.0277 49.9564C50.4034 49.7309 50.729 49.1799 50.8042 48.729L51.4053 43.5692C51.4554 43.0933 51.2049 42.893 50.8292 43.1184L47.7233 44.9218C47.3476 45.1472 47.022 45.6983 46.9469 46.1491L46.3457 51.3089C46.2956 51.7598 46.5461 51.9852 46.9218 51.7598Z" fill="#FFC400"/>
<path d="M38.1551 52.4609C38.4318 52.4609 38.6561 52.2366 38.6561 51.9599C38.6561 51.6833 38.4318 51.459 38.1551 51.459C37.8785 51.459 37.6542 51.6833 37.6542 51.9599C37.6542 52.2366 37.8785 52.4609 38.1551 52.4609Z" fill="black"/>
<path d="M38.8815 51.7597V51.2588L38.1552 51.6846V52.1605L38.8815 51.7597Z" fill="black"/>
<path d="M36.0762 53.1623V46.9004H35.5001V53.1623C35.5001 53.2124 35.5252 53.2374 35.5753 53.2875C35.7005 53.3627 35.8758 53.3627 36.0011 53.2875C36.0261 53.2374 36.0762 53.1873 36.0762 53.1623Z" fill="#FF8600"/>
<path d="M39.9585 50.9084V44.6465H39.3824V50.9084C39.3824 50.9585 39.4075 50.9835 39.4576 51.0336C39.5828 51.1087 39.7582 51.1087 39.8834 51.0336C39.9335 50.9835 39.9585 50.9585 39.9585 50.9084Z" fill="#FF8600"/>
<path d="M32.4694 51.0583V44.7964H31.8933V51.0583C31.8933 51.1084 31.9184 51.1334 31.9685 51.1835C32.0937 51.2586 32.269 51.2586 32.3943 51.1835C32.4444 51.1334 32.4694 51.1084 32.4694 51.0583Z" fill="#FF8600"/>
<path d="M36.527 42.3167C36.1262 42.0913 35.4249 42.1163 34.974 42.3919L31.4924 44.2203V44.6461C31.4674 44.7964 31.5676 44.9718 31.768 45.0719L35.0742 46.9756C35.475 47.201 36.1763 47.1759 36.6272 46.9004L39.7331 45.122C39.9585 44.9718 40.0837 44.7714 40.0837 44.596V44.1452L39.708 44.571" fill="#FF8600"/>
<path d="M31.7681 44.6213L35.0744 46.5249C35.4751 46.7503 36.1764 46.7252 36.6273 46.4497L39.7081 44.6714C40.159 44.3958 40.2091 43.9951 39.8083 43.7696L36.5021 41.866C36.1013 41.6406 35.4 41.6656 34.9491 41.9412L31.8683 43.7195C31.4174 43.9951 31.3673 44.3958 31.7681 44.6213Z" fill="#FFC400"/>
<path d="M35.0492 35.1529C35.0492 35.1529 34.5483 34.8774 34.5232 34.8774C34.398 34.8023 34.2477 34.8273 34.0974 34.9025L31.1418 36.6057C30.7911 36.8061 30.5156 37.3321 30.5156 37.808L30.6158 42.8175C30.6158 43.0679 30.716 43.2433 30.8412 43.3184L31.3422 43.5939L34.5984 35.9544" fill="#FF8600"/>
<path d="M31.8181 43.5436L34.7737 41.8404C35.1244 41.64 35.3999 41.114 35.3999 40.6381L35.2997 35.6286C35.2997 35.1778 34.9991 34.9774 34.6484 35.1778L31.6928 36.881C31.3422 37.0814 31.0667 37.6074 31.0667 38.0833L31.1668 43.0928C31.1668 43.5436 31.4674 43.744 31.8181 43.5436Z" fill="#FFC400"/>
<path d="M32.5695 42.0155L32.5945 42.3662C32.6446 43.318 32.8199 43.9692 33.5463 44.5704L35.7755 46.3237L34.7987 53.1867L36.2765 53.9381L35.6002 52.9112L37.4788 45.7977L35.8507 44.0945L38.7562 45.7726L39.2321 50.4816L40.8852 50.9825L40.0837 50.2311L39.9334 44.8208L36.3015 41.8652L32.5695 42.0155Z" fill="black"/>
<path d="M39.7081 53.0615C39.4576 53.0615 39.2322 52.9864 39.2322 52.7359V46.0732H40.1589V52.7359C40.184 52.9864 39.9836 53.0615 39.7081 53.0615Z" fill="black"/>
<path d="M32.6196 42.8423C32.6196 42.8423 34.5733 42.8423 36.001 42.2662C36.4018 42.1159 36.3016 41.8404 36.2515 41.4146C36.1764 40.7884 36.001 40.6882 35.8257 39.3106C35.4249 36.5554 34.4982 34.5516 33.8219 34.8271C33.1206 35.0776 32.8701 34.9022 32.5445 36.7557C32.3942 37.6074 32.3691 40.6632 32.6196 42.8423Z" fill="#36F49A"/>
<path d="M34.5733 33.3497C34.0723 31.6464 32.0936 32.5231 32.6947 34.1261C32.9201 34.7022 33.2708 35.2282 33.7718 35.2282C34.3228 35.2533 34.974 34.6772 34.5733 33.3497Z" fill="#FFC400"/>
<path d="M34.4982 32.5983C34.8238 33.0241 33.0705 32.7987 33.2458 33.3748C33.4963 34.2013 32.6948 33.1744 32.8701 34.2013C32.9453 34.6021 33.4713 35.2283 32.8451 34.7273C32.2439 34.2264 31.9434 33.3247 32.5696 32.6985C33.1457 32.1474 34.1977 32.2226 34.4982 32.5983Z" fill="black"/>
<path d="M44.6675 44.095C44.6675 44.8214 44.1916 45.5478 43.2147 46.1239C41.286 47.251 38.1551 47.251 36.2264 46.1239C35.2496 45.5728 34.7737 44.8465 34.7737 44.095V43.6191H44.6675V44.095Z" fill="#FF8600"/>
<path d="M39.7081 46.4745C42.4471 46.4745 44.6675 45.1961 44.6675 43.6191C44.6675 42.0421 42.4471 40.7637 39.7081 40.7637C36.9691 40.7637 34.7487 42.0421 34.7487 43.6191C34.7487 45.1961 36.9691 46.4745 39.7081 46.4745Z" fill="#FFC400"/>
<path d="M39.7081 55.2663C41.8108 55.2663 43.5153 54.2794 43.5153 53.0621C43.5153 51.8448 41.8108 50.8579 39.7081 50.8579C37.6054 50.8579 35.9009 51.8448 35.9009 53.0621C35.9009 54.2794 37.6054 55.2663 39.7081 55.2663Z" fill="black"/>
<path d="M33.5713 36.7564C33.5713 36.7564 33.6214 35.0281 33.0203 35.2034C32.4192 35.4038 31.6427 37.9837 32.5945 40.238C33.5463 42.4922 35.2495 43.5693 35.2495 43.5693L35.6503 43.2938C35.6503 43.2938 34.6985 42.1666 34.2727 40.8642C33.6465 38.9104 33.6214 37.6831 33.5713 36.7564Z" fill="#36F49A"/>
<path d="M34.8488 35.4789C34.8488 35.4789 34.6234 34.8527 34.0974 35.2284C33.5714 35.6042 33.7467 37.2322 35.3247 39.0858C36.9027 40.9393 38.8814 41.4402 38.8814 41.4402L39.2071 41.1898C39.2071 41.1898 37.6792 40.1628 36.8776 39.2361C35.6002 37.6581 35.1995 36.3556 34.8488 35.4789Z" fill="#36F49A"/>
<path d="M34.6985 34.0013C34.6985 34.0013 34.6985 34.4021 35.2746 34.9281C35.7004 35.3038 35.1243 36.3808 34.0723 36.1554C33.1957 35.955 32.7949 34.3019 32.7949 34.3019C32.7949 34.3019 33.1456 34.7527 33.6465 34.5774C34.0974 34.4021 33.8219 34.1516 34.2226 34.0514C34.6234 33.9512 34.6985 34.0013 34.6985 34.0013Z" fill="black"/>
<path d="M21.4233 39.3369C21.7 39.3369 21.9243 39.1126 21.9243 38.8359C21.9243 38.5592 21.7 38.335 21.4233 38.335C21.1466 38.335 20.9224 38.5592 20.9224 38.8359C20.9224 39.1126 21.1466 39.3369 21.4233 39.3369Z" fill="black"/>
<path d="M20.6969 38.6103V38.1094L21.4233 38.5352V39.0361L20.6969 38.6103Z" fill="black"/>
<path d="M23.5022 40.0129V33.751H24.0783V40.0129C24.0783 40.063 24.0532 40.088 24.0031 40.1381C23.8779 40.2132 23.7026 40.2132 23.5773 40.1381C23.5272 40.088 23.5022 40.063 23.5022 40.0129Z" fill="#FF8600"/>
<path d="M19.6199 37.759V31.4971H20.196V37.759C20.196 37.809 20.1709 37.8341 20.1208 37.8842C19.9956 37.9593 19.8203 37.9593 19.695 37.8842C19.6449 37.8591 19.6199 37.809 19.6199 37.759Z" fill="#FF8600"/>
<path d="M27.1091 37.9093V31.6475H27.6852V37.9093C27.6852 37.9594 27.6602 37.9845 27.6101 38.0346C27.4848 38.1097 27.3095 38.1097 27.1843 38.0346C27.1342 38.0095 27.1091 37.9594 27.1091 37.9093Z" fill="#FF8600"/>
<path d="M23.0514 29.1678C23.4521 28.9424 24.1535 28.9674 24.6043 29.2429L28.0859 31.0714V31.4972C28.111 31.6475 28.0108 31.8228 27.8104 31.923L24.5041 33.8266C24.1034 34.0521 23.402 34.027 22.9512 33.7515L19.8453 31.9731C19.6199 31.8228 19.4946 31.6224 19.4946 31.4471V30.9963L19.8703 31.4221" fill="#FF8600"/>
<path d="M27.8104 31.4718L24.5041 33.3755C24.1034 33.6009 23.402 33.5758 22.9512 33.3003L19.8703 31.5219C19.4195 31.2464 19.3694 30.8457 19.7702 30.6202L23.0764 28.7166C23.4772 28.4912 24.1785 28.5162 24.6294 28.7918L27.7102 30.5701C28.1611 30.8457 28.2112 31.2464 27.8104 31.4718Z" fill="#FFC400"/>
<path d="M24.5292 22.004C24.5292 22.004 25.0301 21.7285 25.0552 21.7285C25.1804 21.6533 25.3307 21.6784 25.481 21.7535L28.4366 23.4568C28.7873 23.6571 29.0628 24.1831 29.0628 24.659L28.9626 29.6685C28.9626 29.919 28.8624 30.0944 28.7372 30.1695L28.2362 30.445L24.955 22.8055" fill="#FF8600"/>
<path d="M27.7603 30.4198L24.8047 28.6915C24.454 28.4911 24.1785 27.9651 24.1785 27.4892L24.2787 22.4797C24.2787 22.0288 24.5792 21.8285 24.9299 22.0288L27.8855 23.7321C28.2362 23.9325 28.5117 24.4585 28.5117 24.9344L28.4115 29.9439C28.4115 30.4198 28.1109 30.6201 27.7603 30.4198Z" fill="#FFC400"/>
<path d="M27.0089 28.8923L26.9838 29.243C26.9338 30.1948 26.7584 30.846 26.032 31.4472L23.8028 33.2005L24.7797 40.0635L23.3019 40.8149L23.9781 39.788L22.0996 32.6745L23.7277 30.9713L20.8222 32.6495L20.3463 37.3584L18.6931 37.8593L19.4946 37.1079L19.6449 31.6976L23.3019 28.7671L27.0089 28.8923Z" fill="black"/>
<path d="M19.8703 39.9131C20.1208 39.9131 20.3462 39.8379 20.3462 39.5874V32.9248H19.4195V39.5874C19.3944 39.8379 19.5948 39.9131 19.8703 39.9131Z" fill="black"/>
<path d="M26.9589 29.6939C26.9589 29.6939 25.0052 29.6939 23.5775 29.1178C23.1767 28.9675 23.2769 28.692 23.327 28.2661C23.4021 27.64 23.5775 27.5398 23.7528 26.1622C24.1536 23.4069 25.0803 21.4031 25.7566 21.6786C26.4579 21.9291 26.7084 21.7538 27.034 23.6073C27.1843 24.4589 27.2094 27.5147 26.9589 29.6939Z" fill="#FF3B5C"/>
<path d="M25.0052 20.2007C25.5061 18.4975 27.4849 19.3742 26.8837 20.9772C26.6583 21.5533 26.3076 22.0793 25.8067 22.0793C25.2556 22.1043 24.6044 21.5282 25.0052 20.2007Z" fill="#FFC400"/>
<path d="M25.0802 19.4743C24.7546 19.9001 26.5079 19.6747 26.3326 20.2508C26.0821 21.0774 26.8837 20.0504 26.7083 21.0774C26.6332 21.4781 26.1072 22.1043 26.7334 21.6034C27.3345 21.1024 27.6351 20.2007 27.0089 19.5745C26.4077 18.9984 25.3808 19.0986 25.0802 19.4743Z" fill="black"/>
<path d="M14.911 30.971C14.911 31.6974 15.3869 32.4238 16.3638 32.9999C18.2924 34.127 21.4234 34.127 23.352 32.9999C24.3289 32.4488 24.8048 31.7224 24.8048 30.971V30.4951H14.911V30.971Z" fill="#FF8600"/>
<path d="M19.871 33.3505C22.61 33.3505 24.8304 32.0721 24.8304 30.4951C24.8304 28.9181 22.61 27.6396 19.871 27.6396C17.132 27.6396 14.9116 28.9181 14.9116 30.4951C14.9116 32.0721 17.132 33.3505 19.871 33.3505Z" fill="#FFC400"/>
<path d="M19.8705 42.1169C21.9731 42.1169 23.6777 41.13 23.6777 39.9127C23.6777 38.6953 21.9731 37.7085 19.8705 37.7085C17.7678 37.7085 16.0632 38.6953 16.0632 39.9127C16.0632 41.13 17.7678 42.1169 19.8705 42.1169Z" fill="black"/>
<path d="M20.3965 35.4043L19.1692 42.7683L20.0208 42.9686L18.543 43.7201L18.6682 36.0806" fill="black"/>
<path d="M17.1904 34.1016L16.0632 41.0397L16.8898 41.2151L15.412 41.9665L15.5372 34.6777" fill="black"/>
<path d="M13.9843 45.9743V39.7124H14.5603V45.9743C14.5603 46.0244 14.5353 46.0494 14.4852 46.0995C14.36 46.1747 14.1846 46.1747 14.0594 46.0995C14.0343 46.0745 13.9843 46.0244 13.9843 45.9743Z" fill="#FF8600"/>
<path d="M10.1018 43.7199V37.458H10.6779V43.7199C10.6779 43.77 10.6529 43.795 10.6028 43.8451C10.4775 43.9203 10.3022 43.9203 10.1769 43.8451C10.1269 43.8201 10.1018 43.77 10.1018 43.7199Z" fill="#FF8600"/>
<path d="M17.5911 43.8957V37.6338H18.1672V43.8957C18.1672 43.9458 18.1421 43.9708 18.092 44.0209C17.9668 44.0961 17.7914 44.0961 17.6662 44.0209C17.6161 43.9708 17.5911 43.9207 17.5911 43.8957Z" fill="#FF8600"/>
<path d="M13.7087 41.6408V35.3789H14.2848V41.6408C14.2848 41.6909 14.2598 41.7159 14.2097 41.766C14.0845 41.8412 13.9091 41.8412 13.7839 41.766C13.7338 41.7159 13.7087 41.6909 13.7087 41.6408Z" fill="#FF8600"/>
<path d="M13.4582 35.1033C13.859 34.8779 14.5603 34.903 15.0112 35.1785L18.4928 37.0069V37.4328C18.5178 37.583 18.4176 37.7584 18.2173 37.8586L14.911 39.7622C14.5102 39.9876 13.8089 39.9626 13.358 39.687L10.2522 37.9087C10.0267 37.7584 9.90149 37.558 9.90149 37.3827V36.9318L10.2772 37.3576" fill="#FF8600"/>
<path d="M18.2173 37.4079L14.911 39.3115C14.5102 39.5369 13.8089 39.5119 13.3581 39.2364L10.2772 37.458C9.82635 37.1825 9.77626 36.7817 10.177 36.5563L13.4833 34.6527C13.8841 34.4272 14.5854 34.4523 15.0362 34.7278L18.1171 36.5062C18.5679 36.7817 18.618 37.1825 18.2173 37.4079Z" fill="#FFC400"/>
<path d="M9.70109 32.0234L13.8089 34.4781L16.7895 33.4011C16.9148 33.351 17.04 33.3259 17.1903 33.351C18.3675 33.4511 18.0419 34.6534 18.0419 34.6534L16.3888 35.505L13.884 36.6572C13.1827 37.0329 12.3311 37.0329 11.6548 36.6322L9.125 35.1794L9.70109 32.0234Z" fill="black"/>
<path d="M12.0556 32.7744L15.1365 34.9535L19.2943 34.0769C20.7471 34.0268 20.3714 35.3794 20.3714 35.3794L18.7183 36.231L15.2867 37.8841C14.5854 38.2598 13.7338 38.2598 13.0575 37.8591L11.4545 35.9054L12.0556 32.7744Z" fill="black"/>
<path d="M12.5065 27.9908C12.5065 27.9908 11.8552 27.9408 11.73 28.5168C11.6298 29.0929 12.3061 29.9696 14.4101 30.7461C16.489 31.4975 18.2674 31.3973 18.2674 31.3973L18.067 30.9465C18.067 30.9465 16.7896 30.6709 15.6374 30.1449C13.9342 29.3184 13.2579 28.3916 12.5065 27.9908Z" fill="white"/>
<path d="M10.9785 33.6013C10.9785 33.6013 11.9303 36.7573 13.4332 36.3816C13.859 36.2814 14.8358 35.9057 14.8358 35.4799C14.8609 34.8537 14.5102 33.1004 14.3098 31.7228C13.9091 28.9675 12.1307 26.6131 11.5045 26.9888C10.8533 27.3645 11.3041 27.8404 11.3292 29.719C11.3292 30.5956 11.3041 31.6476 10.9785 33.6013Z" fill="white"/>
<path d="M12.9823 28.8926C12.9823 28.8926 12.256 28.8425 12.1057 29.4686C11.9554 30.0948 12.6066 31.247 14.936 31.9984C17.2655 32.7499 20.0958 32.1988 20.0958 32.1988L19.8954 31.7229C19.8954 31.7229 17.4909 31.6979 16.3387 31.2971C14.41 30.6459 13.8339 29.3184 12.9823 28.8926Z" fill="white"/>
<path d="M13.9091 26.137C13.6587 24.3836 11.5797 24.9848 11.9554 26.6629C12.0807 27.2641 12.3812 27.8151 12.8571 27.9153C13.4082 27.9905 14.1095 27.5146 13.9091 26.137Z" fill="#AF7E43"/>
<path d="M13.5084 25.5356C13.5084 25.5356 12.4814 25.761 12.6568 26.6126C12.8321 27.4643 12.8321 29.2677 11.7801 29.969C10.7281 30.6703 9.95162 29.5682 10.127 28.5413C10.3023 27.5143 11.4044 24.9345 12.782 24.8844C14.1596 24.8343 13.9592 25.3352 13.5084 25.5356Z" fill="black"/>
<path d="M8.32349 29.9188L8.89958 29.5681C8.99977 29.493 9.15005 29.518 9.32539 29.6182L12.4313 31.4216C12.807 31.6471 13.1326 32.1981 13.2078 32.649L13.8089 37.8087C13.8339 38.0592 13.7838 38.2345 13.6586 38.3097L13.0825 38.6604L8.84948 30.7453" fill="#FF8600"/>
<path d="M12.6568 38.6353L9.52583 36.8319C9.15011 36.6064 8.8245 36.0554 8.74935 35.6045L8.14821 30.4447C8.09812 29.9688 8.34859 29.7685 8.72431 29.9939L11.8302 31.7973C12.2059 32.0227 12.5315 32.5738 12.6067 33.0246L13.2078 38.1844C13.283 38.6353 13.0074 38.8357 12.6568 38.6353Z" fill="#FFC400"/>
<path d="M26.007 23.6069C26.007 23.6069 25.957 21.8787 26.5581 22.054C27.1592 22.2293 27.9357 24.8343 26.9839 27.0885C26.0321 29.3428 24.3289 30.4199 24.3289 30.4199L23.9281 30.1443C23.9281 30.1443 24.8799 29.0172 25.3057 27.7147C25.9319 25.761 25.9319 24.5337 26.007 23.6069Z" fill="#FF3B5C"/>
<path d="M24.7296 22.329C24.7296 22.329 24.955 21.7028 25.481 22.0785C26.007 22.4543 25.8317 24.0823 24.2537 25.9359C22.6757 27.7894 20.697 28.2903 20.697 28.2903L20.3713 28.0399C20.3713 28.0399 21.8992 27.0129 22.7008 26.0862C23.9782 24.5082 24.3789 23.2057 24.7296 22.329Z" fill="#FF3B5C"/>
<path d="M25.431 4.16962L26.2575 4.64552C26.4078 4.74571 26.6833 4.44514 26.6833 4.19466V3.46829V0.713058L27.0841 0.462582L26.4078 0.0618218C26.2325 -0.0383683 26.0071 -0.0133208 25.7566 0.111917L17.9417 4.62047C17.4408 4.92104 17.04 5.62237 17.04 6.19847V7.92675C17.04 8.20227 17.1402 8.40265 17.2905 8.50284L17.9668 8.9036L18.2173 8.40265" fill="#436CD2"/>
<path d="M18.6432 5.04619L26.458 0.537633C26.9589 0.237063 27.3597 0.487538 27.3597 1.06363V1.11373V3.84391V4.57029C27.3597 4.82076 27.0842 5.12133 26.9339 5.02114L26.1073 4.54524L18.6432 8.87846C18.1422 9.17903 17.7415 8.92856 17.7415 8.35246V6.62418C17.7415 6.04809 18.1422 5.34676 18.6432 5.04619Z" fill="#668CFF"/>
<path d="M25.4309 17.044L26.2575 17.5199C26.4078 17.6201 26.6833 17.3195 26.6833 17.069V16.3427V13.6125L27.0841 13.362L26.4078 12.9612C26.2325 12.861 26.007 12.8861 25.7566 13.0113L17.9668 17.5449C17.4658 17.8455 17.0651 18.5468 17.0651 19.1229V20.8512C17.0651 21.1267 17.1653 21.3271 17.3155 21.4273L17.9918 21.8281L18.2423 21.3271" fill="#436CD2"/>
<path d="M18.643 17.9456L26.4579 13.437C26.9588 13.1365 27.3596 13.387 27.3596 13.963V14.0131V16.7433V17.4697C27.3596 17.7202 27.0841 18.0207 26.9338 17.9206L26.1072 17.4447L18.643 21.7779C18.1421 22.0784 17.7413 21.828 17.7413 21.2519V19.5236C17.7413 18.9475 18.1421 18.2462 18.643 17.9456Z" fill="#668CFF"/>
<path d="M11.1539 19.4489L18.6431 15.1407C19.144 14.8401 19.5448 14.1388 19.5448 13.5627V12.8363V12.1099V9.37975L19.9456 9.12928L19.2693 8.72852C19.2693 8.72852 19.2693 8.72852 19.2442 8.72852C19.2442 8.72852 19.2442 8.72852 19.2192 8.72852C19.2192 8.72852 19.2192 8.72852 19.1941 8.72852C19.1941 8.72852 19.1941 8.72852 19.1691 8.72852C19.1691 8.72852 19.1691 8.72852 19.144 8.72852C19.144 8.72852 19.144 8.72852 19.119 8.72852C19.119 8.72852 19.119 8.72852 19.0939 8.72852C19.0939 8.72852 19.0939 8.72852 19.0689 8.72852H19.0439C19.0439 8.72852 19.0439 8.72852 19.0188 8.72852H18.9938C18.9938 8.72852 18.9938 8.72852 18.9687 8.72852H18.9437H18.9186H18.8936H18.8685H18.8435H18.8184H18.7934H18.7683H18.7433H18.7182H18.6932H18.6681H18.6431H18.618H18.593C18.593 8.72852 18.593 8.72852 18.568 8.72852C18.568 8.72852 18.5429 8.72852 18.5429 8.75356C18.5429 8.75356 18.5429 8.75356 18.5179 8.75356C18.4928 8.75356 18.4928 8.77861 18.4678 8.77861L10.6529 13.2872C10.2522 13.5126 9.90151 14.0386 9.77627 14.5145C9.75122 14.5896 9.75122 14.6648 9.75122 14.7399C9.75122 14.765 9.75122 14.8151 9.75122 14.8401V20.1502V20.8766C9.75122 20.9517 9.77627 21.0018 9.82636 21.0519L10.5277 21.4527L11.1539 19.4489Z" fill="#C6C6C6"/>
<path d="M11.4795 13.7127L19.2943 9.20414C19.7952 8.90357 20.196 9.15404 20.196 9.73014V13.9882C20.196 14.5643 19.7952 15.2656 19.2943 15.5662L11.8301 19.8493L11.0286 21.277C10.8783 21.5526 10.6028 21.5776 10.6028 21.3271V20.6008V17.8706V15.2907C10.5778 14.7146 10.9785 13.9882 11.4795 13.7127Z" fill="white"/>
<path d="M13.8078 16.2961C14.0706 15.8409 14.07 15.3485 13.8065 15.1963C13.5429 15.0442 13.1162 15.2898 12.8533 15.7451C12.5905 16.2003 12.5911 16.6927 12.8546 16.8449C13.1182 16.997 13.5449 16.7513 13.8078 16.2961Z" fill="#668CFF"/>
<path d="M17.8678 13.9255C18.1306 13.4703 18.1301 12.9779 17.8665 12.8257C17.603 12.6736 17.1762 12.9192 16.9134 13.3745C16.6506 13.8297 16.6512 14.3221 16.9147 14.4743C17.1783 14.6264 17.605 14.3807 17.8678 13.9255Z" fill="#668CFF"/>
<path d="M15.8379 15.0857C16.1007 14.6304 16.1002 14.138 15.8366 13.9859C15.5731 13.8337 15.1463 14.0794 14.8835 14.5346C14.6207 14.9899 14.6212 15.4822 14.8848 15.6344C15.1484 15.7866 15.5751 15.5409 15.8379 15.0857Z" fill="#668CFF"/>
</svg>
