<svg width="133" height="113" viewBox="0 0 133 113" fill="none" xmlns="http://www.w3.org/2000/svg">
<path d="M4.11939 74.5791C-1.00301 74.5791 -0.622 77.0345 1.36769 78.1775L58.8994 111.579C59.4074 111.875 59.8731 112.002 60.2964 112.002L128.793 95.1009L67.7895 57.6777L16.9014 70.9859" fill="#EFEEE8"/>
<path d="M68.1705 5.14128V53.2325C68.1705 55.8996 69.7792 58.9899 71.8113 60.1753L129.893 94.8467C129.893 94.8467 130.782 94.2964 131.587 93.873C132.391 93.4073 132.984 92.4337 132.984 90.8673V42.6914C132.984 40.0244 131.375 36.934 129.343 35.7486L72.1076 2.55891C70.7106 1.71224 69.3136 2.05091 68.6786 2.30491C67.3662 2.77058 66.7312 4.08293 66.7312 4.08293" fill="#FFC400"/>
<path d="M131.036 91.925V43.8337C131.036 41.1667 129.428 38.0763 127.396 36.891L69.8639 3.53189C67.8742 2.38887 66.2231 3.61656 66.2231 6.28359V54.3748C66.2231 57.0419 67.8318 60.1322 69.8639 61.3176L127.396 94.719C129.385 95.8197 131.036 94.592 131.036 91.925Z" fill="#303030"/>
<path d="M131.036 91.925V43.8337C131.036 41.1667 129.428 38.0763 127.396 36.891L69.8639 3.53189C67.8742 2.38887 66.2231 3.61656 66.2231 6.28359V54.3748C66.2231 57.0419 67.8318 60.1322 69.8639 61.3176L127.396 94.719C129.385 95.8197 131.036 94.592 131.036 91.925Z" fill="#303030"/>
<path d="M129.035 69.0124C129.643 68.6617 129.633 67.5075 129.014 66.4343C128.394 65.361 127.4 64.7753 126.792 65.1259C126.185 65.4765 126.194 66.6308 126.814 67.704C127.433 68.7772 128.428 69.363 129.035 69.0124Z" fill="black"/>
<path d="M124.94 91.715V37.1467L71.0493 5.9043V60.4303L124.94 91.715Z" fill="#76A3FF"/>
<path d="M113.002 54.4602L124.94 37.1457L71.0492 5.90332L67.5355 17.2488L59.1111 23.1755L113.002 54.4602Z" fill="white"/>
<path d="M64.0218 26.0122C64.0218 26.0122 66.6888 23.9379 70.2449 18.7732C73.8009 13.6084 75.9599 8.6977 75.9599 8.6977L71.0492 5.86133C71.0492 5.86133 68.8055 10.8991 65.5035 15.6828C62.2015 20.4665 59.1111 23.1759 59.1111 23.1759L64.0218 26.0122Z" fill="#FF3B5C"/>
<path d="M73.8009 31.7261C73.8009 31.7261 76.4679 29.6517 80.0239 24.487C83.58 19.3223 85.739 14.4116 85.739 14.4116L80.8283 11.5752C80.8283 11.5752 78.5846 16.6129 75.2825 21.3966C71.9805 26.1804 68.8901 28.8897 68.8901 28.8897L73.8009 31.7261Z" fill="#FF3B5C"/>
<path d="M83.6224 37.399C83.6224 37.399 86.2894 35.3246 89.8455 30.1599C93.4015 24.9951 95.5605 20.0844 95.5605 20.0844L90.6498 17.248C90.6498 17.248 88.4061 22.2858 85.1041 27.0695C81.802 31.8532 78.7117 34.5626 78.7117 34.5626L83.6224 37.399Z" fill="#FF3B5C"/>
<path d="M64.0218 26.0541L59.1111 23.2178V24.9111C59.1111 26.4775 60.2118 28.3825 61.5664 29.1445C62.9211 29.9065 64.0218 29.2715 64.0218 27.7475" fill="#B21942"/>
<path d="M68.9325 30.5424C68.9325 32.1088 67.8318 32.7438 66.4771 31.9394C65.1224 31.1351 64.0217 29.2724 64.0217 27.706V26.0127L68.9325 28.8491V30.5424Z" fill="#D3D3D3"/>
<path d="M73.8009 31.727L68.8901 28.8906V30.584C68.8901 32.1503 69.9908 34.0554 71.3455 34.8174C72.7002 35.5794 73.8009 34.9444 73.8009 33.4203" fill="#B21942"/>
<path d="M78.7115 36.2563C78.7115 37.8226 77.6108 38.4576 76.2561 37.6533C74.9015 36.849 73.8008 34.9863 73.8008 33.4199V31.7266L78.7115 34.5629V36.2563Z" fill="#D3D3D3"/>
<path d="M83.6224 39.0912C83.6224 40.6576 82.5217 41.2926 81.167 40.4883C79.8124 39.6839 78.7117 37.8212 78.7117 36.2549V34.5615L83.6224 37.3979V39.0912Z" fill="#B21942"/>
<path d="M93.4015 43.1148C93.4015 43.1148 96.0685 41.0404 99.6245 35.8757C103.181 30.711 105.34 25.8002 105.34 25.8002L100.429 22.9639C100.429 22.9639 98.1852 28.0016 94.8831 32.7853C91.5811 37.569 88.4907 40.2784 88.4907 40.2784L93.4015 43.1148Z" fill="#FF3B5C"/>
<path d="M103.18 48.7876C103.18 48.7876 105.848 46.7133 109.404 41.5485C112.96 36.3838 115.119 31.4731 115.119 31.4731L110.208 28.6367C110.208 28.6367 107.964 33.6744 104.662 38.4582C101.36 43.2419 98.2698 45.9513 98.2698 45.9513L103.18 48.7876Z" fill="#FF3B5C"/>
<path d="M113.002 54.7565C112.875 54.7565 112.79 54.7141 112.706 54.5871C112.621 54.4178 112.663 54.2061 112.833 54.1215L124.771 47.221C124.94 47.1364 125.152 47.1787 125.236 47.348C125.321 47.5174 125.279 47.7291 125.109 47.8137L113.171 54.7141C113.129 54.7565 113.044 54.7565 113.002 54.7565Z" fill="#303030"/>
<path d="M113.002 54.4605C113.002 54.4605 115.669 52.3861 119.225 47.2214C122.781 42.0567 124.94 37.1459 124.94 37.1459L120.029 34.3096C120.029 34.3096 117.786 39.3473 114.484 44.131C111.182 48.9147 108.091 51.6241 108.091 51.6241L113.002 54.4605Z" fill="#FF3B5C"/>
<path d="M93.4015 43.1137L88.4907 40.2773V41.9707C88.4907 43.5371 89.5914 45.4421 90.9461 46.2041C92.3008 46.9661 93.4015 46.3311 93.4015 44.8071" fill="#B21942"/>
<path d="M98.3122 47.645C98.3122 49.2113 97.2115 49.8463 95.8568 49.042C94.5022 48.28 93.4015 46.3749 93.4015 44.8086V43.1152L98.3122 45.9516V47.645Z" fill="#D3D3D3"/>
<path d="M88.4908 41.9291C88.4908 43.4955 87.3901 44.1305 86.0354 43.3262C84.6808 42.5641 83.5801 40.6591 83.5801 39.0928V37.3994L88.4908 40.2358V41.9291Z" fill="#D3D3D3"/>
<path d="M103.18 48.7866L98.2698 45.9502V47.6435C98.2698 49.2099 99.3705 51.1149 100.725 51.8769C102.08 52.6389 103.18 52.0039 103.18 50.4799" fill="#B21942"/>
<path d="M108.091 53.3178C108.091 54.8842 106.991 55.5192 105.636 54.7148C104.281 53.9528 103.181 52.0478 103.181 50.4814V48.7881L108.091 51.6245V53.3178Z" fill="#D3D3D3"/>
<path d="M113.002 56.1528C113.002 57.7191 111.901 58.3541 110.547 57.5498C109.192 56.7454 108.091 54.8828 108.091 53.3164V51.623L113.002 54.4594V56.1528Z" fill="#B21942"/>
<path d="M66.2231 82.0215L68.2552 94.51L66.8582 94.8063L69.3559 96.0763L69.1442 83.1645" fill="black"/>
<path d="M71.6421 79.8193L73.5471 91.5458L72.1501 91.8845L74.6478 93.1545L74.4361 80.793" fill="black"/>
<path d="M77.0184 99.9282V89.3447H76.0447V99.9282C76.0447 100.013 76.087 100.055 76.1717 100.14C76.3833 100.267 76.6797 100.267 76.8914 100.14C76.976 100.055 77.0184 100.013 77.0184 99.9282Z" fill="#FF8600"/>
<path d="M83.6225 96.1167V85.5332H82.6488V96.1167C82.6488 96.2013 82.6911 96.2437 82.7758 96.3283C82.9875 96.4553 83.2838 96.4553 83.4955 96.3283C83.5801 96.286 83.6225 96.2013 83.6225 96.1167Z" fill="#FF8600"/>
<path d="M70.9224 96.3715V85.7881H69.9487V96.3715C69.9487 96.4562 69.9911 96.4986 70.0757 96.5832C70.2874 96.7102 70.5837 96.7102 70.7954 96.5832C70.8801 96.5409 70.9224 96.4562 70.9224 96.3715Z" fill="#FF8600"/>
<path d="M77.5264 92.6049V82.0215H76.5527V92.6049C76.5527 92.6896 76.5951 92.7319 76.6797 92.8166C76.8914 92.9436 77.1877 92.9436 77.3994 92.8166C77.4841 92.7319 77.5264 92.6473 77.5264 92.6049Z" fill="#FF8600"/>
<path d="M77.9498 81.5541C77.2725 81.1731 76.0871 81.2154 75.3251 81.6811L69.4407 84.7714V85.4911C69.3984 85.7451 69.5677 86.0414 69.9064 86.2108L75.4945 89.4281C76.1718 89.8092 77.3571 89.7668 78.1192 89.3011L83.3686 86.2954C83.7496 86.0414 83.9612 85.7028 83.9612 85.4064V84.6444L83.3262 85.3641" fill="#FF8600"/>
<path d="M69.9063 85.45L75.4944 88.6674C76.1717 89.0484 77.3571 89.0061 78.1191 88.5404L83.3261 85.5347C84.0881 85.069 84.1728 84.3917 83.4955 84.0107L77.9074 80.7933C77.2301 80.4123 76.0447 80.4546 75.2827 80.9203L70.0756 83.926C69.3136 84.3494 69.229 85.069 69.9063 85.45Z" fill="#FFC400"/>
<path d="M84.2998 76.3467L77.357 80.4954L72.3193 78.675C72.1076 78.5904 71.896 78.548 71.642 78.5904C69.6523 78.7597 70.2026 80.7917 70.2026 80.7917L72.9967 82.2311L77.23 84.1784C78.4154 84.8134 79.8547 84.8134 80.9978 84.1361L85.2735 81.6807L84.2998 76.3467Z" fill="black"/>
<path d="M80.2781 77.5742L75.071 81.2573L68.0436 79.7756C65.5882 79.6909 66.2232 81.9769 66.2232 81.9769L69.0173 83.4163L74.817 86.168C76.0023 86.803 77.4417 86.803 78.5847 86.1257L81.2941 82.8236L80.2781 77.5742Z" fill="black"/>
<path d="M79.5583 69.4892C79.5583 69.4892 80.659 69.4045 80.8707 70.3782C81.04 71.3518 79.897 72.8335 76.3409 74.1459C72.7849 75.4582 69.8215 75.2466 69.8215 75.2466L70.1602 74.4846C70.1602 74.4846 72.3192 74.0189 74.2666 73.1299C77.1453 71.7329 78.2883 70.2088 79.5583 69.4892Z" fill="#76A3FF"/>
<path d="M82.1407 79.0135C82.1407 79.0135 80.532 84.3476 77.992 83.7126C77.2723 83.5432 75.6213 82.9082 75.6213 82.1886C75.579 81.1302 76.1716 78.1669 76.5103 75.8385C77.1876 71.1818 80.1933 67.2024 81.2517 67.8374C82.3524 68.4724 81.5904 69.2767 81.548 72.4518C81.548 73.9335 81.5904 75.7115 82.1407 79.0135Z" fill="#76A3FF"/>
<path d="M78.754 71.0553C78.754 71.0553 79.9817 70.9707 80.2357 72.029C80.4897 73.0873 79.389 75.0347 75.452 76.3047C71.5149 77.5747 66.7312 76.6434 66.7312 76.6434L67.0699 75.839C67.0699 75.839 71.1339 75.7967 73.0813 75.1194C76.341 74.0187 77.3147 71.775 78.754 71.0553Z" fill="#76A3FF"/>
<path d="M77.1876 66.3563C77.6109 63.3929 81.1246 64.4089 80.4896 67.2453C80.2779 68.2613 79.7699 69.1926 78.9656 69.362C78.0343 69.5313 76.8489 68.6846 77.1876 66.3563Z" fill="#FFC400"/>
<path d="M77.865 65.3833C77.865 65.3833 79.6007 65.7643 79.3044 67.2037C79.008 68.6431 79.008 71.6911 80.7861 72.8764C82.5641 74.0618 83.8764 72.1991 83.5801 70.4634C83.2837 68.7277 81.4211 64.3673 79.135 64.2403C76.849 64.1133 77.103 65.0447 77.865 65.3833Z" fill="black"/>
<path d="M86.6281 72.7915L85.6545 72.1988C85.4851 72.0718 85.2311 72.1142 84.9348 72.2835L79.6854 75.3315C79.0504 75.7126 78.5 76.6439 78.373 77.4059L77.357 86.1267C77.3147 86.55 77.3994 86.8464 77.611 86.9734L78.5847 87.566L85.7391 74.1885" fill="#FF8600"/>
<path d="M79.3043 87.4822L84.5537 84.4342C85.1887 84.0532 85.739 83.1218 85.866 82.3598L86.882 73.6391C86.9667 72.8347 86.5433 72.4961 85.9083 72.8771L80.6589 75.9251C80.0239 76.3061 79.4736 77.2374 79.3466 77.9995L78.3306 86.7202C78.2459 87.4822 78.6693 87.8632 79.3043 87.4822Z" fill="#FFC400"/>
<path d="M64.4875 88.666C64.9552 88.666 65.3342 88.2869 65.3342 87.8193C65.3342 87.3517 64.9552 86.9727 64.4875 86.9727C64.0199 86.9727 63.6409 87.3517 63.6409 87.8193C63.6409 88.2869 64.0199 88.666 64.4875 88.666Z" fill="black"/>
<path d="M65.7152 87.4814V86.6348L64.4875 87.3544V88.1588L65.7152 87.4814Z" fill="black"/>
<path d="M60.9739 89.852V79.2686H60.0002V89.852C60.0002 89.9367 60.0426 89.979 60.1272 90.0637C60.3389 90.1907 60.6353 90.1907 60.8469 90.0637C60.8893 89.979 60.9739 89.8944 60.9739 89.852Z" fill="#FF8600"/>
<path d="M67.5354 86.0424V75.459H66.5618V86.0424C66.5618 86.1271 66.6041 86.1694 66.6888 86.2541C66.9004 86.3811 67.1968 86.3811 67.4084 86.2541C67.4931 86.1694 67.5354 86.1271 67.5354 86.0424Z" fill="#FF8600"/>
<path d="M54.8777 86.2964V75.7129H53.9041V86.2964C53.9041 86.381 53.9464 86.4234 54.0311 86.508C54.2427 86.635 54.5391 86.635 54.7507 86.508C54.8354 86.4234 54.8777 86.381 54.8777 86.2964Z" fill="#FF8600"/>
<path d="M61.7357 71.5218C61.0584 71.1408 59.873 71.1832 59.111 71.6488L53.2266 74.7392V75.4589C53.1843 75.7129 53.3536 76.0092 53.6923 76.1785L59.2803 79.3959C59.9577 79.7769 61.143 79.7346 61.905 79.2689L67.1544 76.2632C67.5355 76.0092 67.7471 75.6705 67.7471 75.3742V74.6122L67.1121 75.3319" fill="#FF8600"/>
<path d="M53.6924 75.4159L59.2805 78.6332C59.9578 79.0142 61.1432 78.9719 61.9052 78.5062L67.1123 75.5005C67.8743 75.0349 67.9589 74.3575 67.2816 73.9765L61.6935 70.7591C61.0162 70.3781 59.8308 70.4205 59.0688 70.8861L53.8618 73.8918C53.0998 74.3575 53.0151 75.0349 53.6924 75.4159Z" fill="#FFC400"/>
<path d="M59.2381 59.4135C59.2381 59.4135 58.3914 58.9478 58.3491 58.9478C58.1374 58.8208 57.8834 58.8631 57.6294 58.9901L52.634 61.8688C52.0414 62.2075 51.5757 63.0965 51.5757 63.9008L51.745 72.3676C51.745 72.7909 51.9144 73.0873 52.126 73.2143L52.9727 73.68L58.4761 60.7681" fill="#FF8600"/>
<path d="M53.7769 73.596L58.7722 70.7173C59.3649 70.3786 59.8306 69.4896 59.8306 68.6853L59.6613 60.2185C59.6613 59.4565 59.1533 59.1178 58.5606 59.4565L53.5652 62.3352C52.9725 62.6738 52.5068 63.5629 52.5068 64.3672L52.6762 72.834C52.6762 73.596 53.1842 73.9347 53.7769 73.596Z" fill="#FFC400"/>
<path d="M55.0469 71.0118L55.0892 71.6045C55.1739 73.2132 55.4702 74.3139 56.6979 75.3299L60.4656 78.2932L58.8146 89.8927L61.3123 91.1627L60.1693 89.427L63.3443 77.4042L60.5926 74.5255L65.5033 77.3619L66.3077 85.3207L69.1017 86.1673L67.747 84.8973L67.493 75.7532L61.3546 70.7578L55.0469 71.0118Z" fill="black"/>
<path d="M67.1124 89.6813C66.6891 89.6813 66.3081 89.5543 66.3081 89.1309V77.8701H67.8745V89.1309C67.9168 89.5543 67.5781 89.6813 67.1124 89.6813Z" fill="black"/>
<path d="M55.1317 72.409C55.1317 72.409 58.4338 72.409 60.8468 71.4353C61.5241 71.1813 61.3548 70.7156 61.2701 69.9959C61.1431 68.9376 60.8468 68.7683 60.5505 66.4399C59.8731 61.7832 58.3068 58.3965 57.1638 58.8621C55.9784 59.2855 55.5551 58.9891 55.0047 62.1218C54.7507 63.5612 54.7084 68.7259 55.1317 72.409Z" fill="#36F49A"/>
<path d="M58.4336 56.3656C57.587 53.4868 54.2426 54.9685 55.2586 57.6779C55.6396 58.6516 56.2323 59.5406 57.079 59.5406C58.0103 59.5829 59.111 58.6092 58.4336 56.3656Z" fill="#FFC400"/>
<path d="M58.307 55.0956C58.8573 55.8153 55.8939 55.4343 56.1903 56.4079C56.6136 57.805 55.2589 56.0693 55.5553 57.805C55.6823 58.4823 56.5713 59.5406 55.5129 58.694C54.4969 57.8473 53.9889 56.3233 55.0473 55.2649C56.0209 54.3336 57.799 54.4606 58.307 55.0956Z" fill="black"/>
<path d="M75.4941 74.527C75.4941 75.7547 74.6897 76.9824 73.0387 77.956C69.779 79.8611 64.4873 79.8611 61.2276 77.956C59.5766 77.0247 58.7722 75.797 58.7722 74.527V73.7227H75.4941V74.527Z" fill="#FF8600"/>
<path d="M67.1121 78.5486C71.7414 78.5486 75.4942 76.3879 75.4942 73.7225C75.4942 71.0572 71.7414 68.8965 67.1121 68.8965C62.4828 68.8965 58.73 71.0572 58.73 73.7225C58.73 76.3879 62.4828 78.5486 67.1121 78.5486Z" fill="#FFC400"/>
<path d="M67.1122 93.4088C70.666 93.4088 73.547 91.7409 73.547 89.6834C73.547 87.6259 70.666 85.958 67.1122 85.958C63.5584 85.958 60.6775 87.6259 60.6775 89.6834C60.6775 91.7409 63.5584 93.4088 67.1122 93.4088Z" fill="black"/>
<path d="M56.7403 62.1243C56.7403 62.1243 56.825 59.2033 55.8089 59.4996C54.7929 59.8383 53.4806 64.1987 55.0893 68.0087C56.698 71.8188 59.5767 73.6391 59.5767 73.6391L60.254 73.1735C60.254 73.1735 58.6453 71.2684 57.9256 69.0671C56.8673 65.765 56.825 63.6907 56.7403 62.1243Z" fill="#36F49A"/>
<path d="M58.8995 59.9641C58.8995 59.9641 58.5185 58.9058 57.6295 59.5408C56.7405 60.1758 57.0368 62.9275 59.7038 66.0602C62.3709 69.1929 65.7152 70.0396 65.7152 70.0396L66.2656 69.6162C66.2656 69.6162 63.6832 67.8806 62.3285 66.3142C60.1695 63.6472 59.4922 61.4458 58.8995 59.9641Z" fill="#36F49A"/>
<path d="M58.6454 57.4665C58.6454 57.4665 58.6454 58.1438 59.619 59.0328C60.3387 59.6678 59.365 61.4882 57.587 61.1072C56.1053 60.7685 55.428 57.9745 55.428 57.9745C55.428 57.9745 56.0207 58.7365 56.8673 58.4402C57.6293 58.1438 57.1637 57.7205 57.841 57.5511C58.5184 57.3818 58.6454 57.4665 58.6454 57.4665Z" fill="black"/>
<path d="M36.2082 66.4863C36.6759 66.4863 37.0549 66.1073 37.0549 65.6396C37.0549 65.172 36.6759 64.793 36.2082 64.793C35.7406 64.793 35.3616 65.172 35.3616 65.6396C35.3616 66.1073 35.7406 66.4863 36.2082 66.4863Z" fill="black"/>
<path d="M34.9805 65.2568V64.4102L36.2082 65.1298V65.9765L34.9805 65.2568Z" fill="black"/>
<path d="M39.7219 67.6294V57.0459H40.6956V67.6294C40.6956 67.714 40.6533 67.7564 40.5686 67.841C40.3569 67.968 40.0606 67.968 39.8489 67.841C39.7643 67.7564 39.7219 67.714 39.7219 67.6294Z" fill="#FF8600"/>
<path d="M33.1602 63.8198V53.2363H34.1338V63.8198C34.1338 63.9045 34.0915 63.9468 34.0068 64.0315C33.7952 64.1585 33.4988 64.1585 33.2872 64.0315C33.2025 63.9891 33.1602 63.9045 33.1602 63.8198Z" fill="#FF8600"/>
<path d="M45.8181 64.0727V53.4893H46.7918V64.0727C46.7918 64.1574 46.7495 64.1997 46.6648 64.2844C46.4531 64.4114 46.1568 64.4114 45.9451 64.2844C45.8605 64.2421 45.8181 64.1574 45.8181 64.0727Z" fill="#FF8600"/>
<path d="M38.9599 49.2982C39.6372 48.9172 40.8226 48.9595 41.5846 49.4252L47.469 52.5156V53.2352C47.5113 53.4892 47.342 53.7856 47.0033 53.9549L41.4153 57.1723C40.7379 57.5533 39.5526 57.511 38.7906 57.0453L33.5412 54.0396C33.1602 53.7856 32.9485 53.4469 32.9485 53.1506V52.3886L33.5835 53.1082" fill="#FF8600"/>
<path d="M47.0033 53.1932L41.4152 56.4106C40.7379 56.7916 39.5525 56.7492 38.7905 56.2836L33.5835 53.2779C32.8214 52.8122 32.7368 52.1349 33.4141 51.7538L39.0022 48.5365C39.6795 48.1555 40.8649 48.1978 41.6269 48.6635L46.8339 51.6692C47.596 52.1349 47.6806 52.8122 47.0033 53.1932Z" fill="#FFC400"/>
<path d="M41.4575 37.1908C41.4575 37.1908 42.3042 36.7251 42.3465 36.7251C42.5582 36.5981 42.8122 36.6405 43.0662 36.7675L48.0616 39.6462C48.6543 39.9848 49.1199 40.8738 49.1199 41.6782L48.9506 50.1449C48.9506 50.5683 48.7813 50.8646 48.5696 50.9916L47.7229 51.4573L42.1772 38.5455" fill="#FF8600"/>
<path d="M46.9187 51.4157L41.9233 48.4946C41.3307 48.156 40.865 47.2669 40.865 46.4626L41.0343 37.9958C41.0343 37.2338 41.5423 36.8951 42.135 37.2338L47.1304 40.1125C47.7231 40.4512 48.1887 41.3402 48.1887 42.1445L48.0194 50.6113C48.0194 51.4157 47.5114 51.7543 46.9187 51.4157Z" fill="#FFC400"/>
<path d="M45.6486 48.8347L45.6063 49.4274C45.5216 51.0361 45.2253 52.1368 43.9976 53.1528L40.2299 56.1161L41.8809 67.7156L39.3832 68.9856L40.5262 67.2499L37.3512 55.2271L40.1029 52.3484L35.1921 55.1848L34.3878 63.1436L31.5938 63.9902L32.9484 62.7202L33.2024 53.5761L39.3832 48.623L45.6486 48.8347Z" fill="black"/>
<path d="M33.5835 67.4606C34.0068 67.4606 34.3878 67.3336 34.3878 66.9102V55.6494H32.8214V66.9102C32.7791 67.3336 33.1178 67.4606 33.5835 67.4606Z" fill="black"/>
<path d="M45.5641 50.1883C45.5641 50.1883 42.2621 50.1883 39.849 49.2146C39.1717 48.9606 39.341 48.4949 39.4257 47.7752C39.5527 46.7169 39.849 46.5476 40.1454 44.2192C40.8227 39.5625 42.3891 36.1758 43.5321 36.6414C44.7174 37.0648 45.1408 36.7684 45.6911 39.9011C45.9451 41.3405 45.9874 46.5052 45.5641 50.1883Z" fill="#FF3B5C"/>
<path d="M42.2619 34.1429C43.1086 31.2642 46.453 32.7459 45.437 35.4552C45.056 36.4289 44.4633 37.3179 43.6166 37.3179C42.6853 37.3603 41.5846 36.3866 42.2619 34.1429Z" fill="#FFC400"/>
<path d="M42.3891 32.9151C41.8388 33.6347 44.8022 33.2537 44.5058 34.2274C44.0825 35.6244 45.4372 33.8888 45.1408 35.6244C45.0138 36.3018 44.1248 37.3601 45.1832 36.5135C46.1992 35.6668 46.7072 34.1428 45.6488 33.0844C44.6328 32.1107 42.8971 32.2801 42.3891 32.9151Z" fill="black"/>
<path d="M25.2017 52.3473C25.2017 53.575 26.006 54.8027 27.657 55.7764C30.9167 57.6814 36.2085 57.6814 39.4682 55.7764C41.1192 54.845 41.9235 53.6173 41.9235 52.3473V51.543H25.2017V52.3473Z" fill="#FF8600"/>
<path d="M33.5843 56.3689C38.2136 56.3689 41.9664 54.2082 41.9664 51.5429C41.9664 48.8775 38.2136 46.7168 33.5843 46.7168C28.9549 46.7168 25.2021 48.8775 25.2021 51.5429C25.2021 54.2082 28.9549 56.3689 33.5843 56.3689Z" fill="#FFC400"/>
<path d="M33.5837 71.1842C37.1375 71.1842 40.0184 69.5162 40.0184 67.4588C40.0184 65.4013 37.1375 63.7334 33.5837 63.7334C30.0299 63.7334 27.1489 65.4013 27.1489 67.4588C27.1489 69.5162 30.0299 71.1842 33.5837 71.1842Z" fill="black"/>
<path d="M34.4725 59.8398L32.3982 72.286L33.8375 72.6247L31.3398 73.8947L31.5515 60.9829" fill="black"/>
<path d="M29.0538 57.6377L27.1488 69.3642L28.5458 69.6605L26.0481 70.9305L26.2598 58.6114" fill="black"/>
<path d="M23.6353 77.7055V67.1221H24.6089V77.7055C24.6089 77.7902 24.5666 77.8325 24.4819 77.9172C24.2703 78.0442 23.9739 78.0442 23.7623 77.9172C23.7199 77.8749 23.6353 77.7902 23.6353 77.7055Z" fill="#FF8600"/>
<path d="M17.0735 73.894V63.3105H18.0472V73.894C18.0472 73.9787 18.0048 74.021 17.9202 74.1057C17.7085 74.2327 17.4122 74.2327 17.2005 74.1057C17.1158 74.0633 17.0735 73.9787 17.0735 73.894Z" fill="#FF8600"/>
<path d="M29.7314 74.1919V63.6084H30.7051V74.1919C30.7051 74.2765 30.6628 74.3189 30.5781 74.4035C30.3665 74.5305 30.0701 74.5305 29.8584 74.4035C29.7738 74.3189 29.7314 74.2342 29.7314 74.1919Z" fill="#FF8600"/>
<path d="M23.1694 70.3803V59.7969H24.1431V70.3803C24.1431 70.465 24.1008 70.5073 24.0161 70.592C23.8044 70.719 23.5081 70.719 23.2964 70.592C23.2118 70.5073 23.1694 70.465 23.1694 70.3803Z" fill="#FF8600"/>
<path d="M22.7463 59.3314C23.4236 58.9504 24.609 58.9927 25.371 59.4584L31.2554 62.5488V63.2684C31.2977 63.5224 31.1284 63.8188 30.7897 63.9881L25.2016 67.2055C24.5243 67.5865 23.3389 67.5442 22.5769 67.0785L17.3275 64.0728C16.9465 63.8188 16.7349 63.4801 16.7349 63.1838V62.4218L17.3699 63.1414" fill="#FF8600"/>
<path d="M30.7897 63.2254L25.2016 66.4428C24.5243 66.8238 23.3389 66.7815 22.5769 66.3158L17.3698 63.3101C16.6078 62.8444 16.5232 62.1671 17.2005 61.7861L22.7886 58.5687C23.4659 58.1877 24.6513 58.23 25.4133 58.6957L30.6203 61.7014C31.3823 62.1671 31.467 62.8444 30.7897 63.2254Z" fill="#FFC400"/>
<path d="M16.396 54.126L23.3388 58.2747L28.3765 56.4543C28.5882 56.3697 28.7999 56.3273 29.0539 56.3697C31.0436 56.539 30.4932 58.571 30.4932 58.571L27.6992 60.0104L23.4658 61.9577C22.2804 62.5927 20.8411 62.5927 19.6981 61.9154L15.4224 59.46L16.396 54.126Z" fill="black"/>
<path d="M20.3754 55.3945L25.5825 59.0776L32.6099 57.5959C35.0652 57.5112 34.4302 59.7972 34.4302 59.7972L31.6362 61.2366L25.8365 64.0306C24.6511 64.6656 23.2118 64.6656 22.0687 63.9883L19.3594 60.6863L20.3754 55.3945Z" fill="black"/>
<path d="M21.1375 47.3095C21.1375 47.3095 20.0369 47.2248 19.8252 48.1985C19.6558 49.1722 20.7989 50.6538 24.3549 51.9662C27.8686 53.2362 30.8743 53.0669 30.8743 53.0669L30.5356 52.3049C30.5356 52.3049 28.3766 51.8392 26.4293 50.9502C23.5506 49.5532 22.4076 47.9868 21.1375 47.3095Z" fill="white"/>
<path d="M18.5552 56.7928C18.5552 56.7928 20.1639 62.1269 22.7039 61.4919C23.4236 61.3225 25.0746 60.6875 25.0746 59.9679C25.1169 58.9095 24.5242 55.9461 24.1856 53.6178C23.5082 48.9611 20.5025 44.9817 19.4442 45.6167C18.3435 46.2517 19.1055 47.056 19.1479 50.2311C19.1479 51.7128 19.1055 53.4908 18.5552 56.7928Z" fill="white"/>
<path d="M21.9416 48.8336C21.9416 48.8336 20.7139 48.749 20.4599 49.8073C20.2059 50.8657 21.3066 52.813 25.2436 54.083C29.1806 55.3531 33.9644 54.4217 33.9644 54.4217L33.6257 53.6174C33.6257 53.6174 29.5617 53.575 27.6143 52.8977C24.3546 51.797 23.3809 49.5533 21.9416 48.8336Z" fill="white"/>
<path d="M23.5082 44.1766C23.0849 41.2132 19.5711 42.2292 20.2062 45.0656C20.4178 46.0816 20.9258 47.013 21.7302 47.1823C22.6615 47.3093 23.8469 46.5049 23.5082 44.1766Z" fill="#AF7E43"/>
<path d="M22.8307 43.1603C22.8307 43.1603 21.095 43.5413 21.3913 44.9807C21.6877 46.42 21.6877 49.468 19.9096 50.6534C18.1316 51.8387 16.8193 49.9761 17.1156 48.2404C17.4119 46.5047 19.2746 42.1443 21.603 42.0596C23.9314 41.975 23.5927 42.8216 22.8307 43.1603Z" fill="black"/>
<path d="M14.0679 50.5689L15.0415 49.9762C15.2109 49.8492 15.4649 49.8915 15.7612 50.0609L21.0106 53.1089C21.6456 53.4899 22.196 54.4212 22.323 55.1833L23.339 63.904C23.3813 64.3274 23.2966 64.6237 23.085 64.7507L22.1113 65.3434L14.9569 51.9659" fill="#FF8600"/>
<path d="M21.3916 65.3006L16.0999 62.2526C15.4649 61.8716 14.9145 60.9402 14.7875 60.1782L13.7715 51.4574C13.6868 50.6531 14.1102 50.3144 14.7452 50.6954L19.9946 53.7435C20.6296 54.1245 21.1799 55.0558 21.3069 55.8178L22.3229 64.5386C22.4499 65.3006 21.9843 65.6393 21.3916 65.3006Z" fill="#FFC400"/>
<path d="M43.9554 39.8997C43.9554 39.8997 43.8707 36.9787 44.8867 37.275C45.9027 37.5714 47.2151 41.9741 45.6064 45.7841C43.9977 49.5942 41.119 51.4145 41.119 51.4145L40.4417 50.9489C40.4417 50.9489 42.0503 49.0438 42.77 46.8425C43.8284 43.5404 43.8284 41.4661 43.9554 39.8997Z" fill="#FF3B5C"/>
<path d="M41.7965 37.7395C41.7965 37.7395 42.1775 36.6812 43.0665 37.3162C43.9555 37.9512 43.6592 40.7029 40.9922 43.8356C38.3251 46.9683 34.9808 47.815 34.9808 47.815L34.4304 47.3916C34.4304 47.3916 37.0128 45.656 38.3675 44.0896C40.5265 41.4226 41.2038 39.2212 41.7965 37.7395Z" fill="#FF3B5C"/>
<path d="M42.9819 7.04724L44.3789 7.85158C44.6329 8.02092 45.0986 7.51291 45.0986 7.08957V5.86189V1.20517L45.7759 0.781829L44.6329 0.104488C44.3366 -0.0648479 43.9556 -0.022514 43.5322 0.189155L30.3241 7.80925C29.4774 8.31725 28.8 9.5026 28.8 10.4763V13.3973C28.8 13.863 28.9694 14.2017 29.2234 14.371L30.3664 15.0483L30.7897 14.2017" fill="#436CD2"/>
<path d="M31.5094 8.52973L44.7175 0.909639C45.5642 0.401633 46.2415 0.824971 46.2415 1.79865V1.88332V6.49771V7.72539C46.2415 8.14873 45.7759 8.65673 45.5219 8.4874L44.1249 7.68305L31.5094 15.0068C30.6627 15.5148 29.9854 15.0915 29.9854 14.1178V11.1968C29.9854 10.2231 30.6627 9.03774 31.5094 8.52973Z" fill="#668CFF"/>
<path d="M42.9818 28.8067L44.3788 29.611C44.6328 29.7803 45.0985 29.2723 45.0985 28.849V27.6213V23.0069L45.7758 22.5836L44.6328 21.9062C44.3365 21.7369 43.9555 21.7792 43.5321 21.9909L30.3663 29.6533C29.5196 30.1613 28.8423 31.3467 28.8423 32.3204V35.2414C28.8423 35.7071 29.0116 36.0457 29.2656 36.2151L30.4086 36.8924L30.832 36.0457" fill="#436CD2"/>
<path d="M31.5094 30.3295L44.7175 22.7094C45.5642 22.2014 46.2415 22.6248 46.2415 23.5985V23.6831V28.2975V29.5252C46.2415 29.9485 45.7759 30.4565 45.5219 30.2872L44.1249 29.4829L31.5094 36.8066C30.6627 37.3146 29.9854 36.8913 29.9854 35.9176V32.9966C29.9854 32.0229 30.6627 30.8375 31.5094 30.3295Z" fill="#668CFF"/>
<path d="M18.8517 32.8708L31.5095 25.5894C32.3561 25.0814 33.0335 23.8961 33.0335 22.9224V21.6947V20.467V15.8526L33.7108 15.4293L32.5678 14.752C32.5678 14.752 32.5678 14.752 32.5255 14.752C32.5255 14.752 32.5255 14.752 32.4831 14.752C32.4831 14.752 32.4831 14.752 32.4408 14.752C32.4408 14.752 32.4408 14.752 32.3985 14.752C32.3985 14.752 32.3985 14.752 32.3561 14.752C32.3561 14.752 32.3561 14.752 32.3138 14.752C32.3138 14.752 32.3138 14.752 32.2715 14.752C32.2715 14.752 32.2715 14.752 32.2291 14.752H32.1868C32.1868 14.752 32.1868 14.752 32.1445 14.752H32.1021C32.1021 14.752 32.1021 14.752 32.0598 14.752H32.0175H31.9751H31.9328H31.8905H31.8481H31.8058H31.7635H31.7211H31.6788H31.6365H31.5941H31.5518H31.5095H31.4671H31.4248C31.4248 14.752 31.4248 14.752 31.3825 14.752C31.3825 14.752 31.3401 14.752 31.3401 14.7943C31.3401 14.7943 31.3401 14.7943 31.2978 14.7943C31.2555 14.7943 31.2555 14.8366 31.2131 14.8366L18.005 22.4567C17.3276 22.8377 16.735 23.7267 16.5233 24.5311C16.481 24.6581 16.481 24.7851 16.481 24.9121C16.481 24.9544 16.481 25.0391 16.481 25.0814V34.0562V35.2839C16.481 35.4109 16.5233 35.4955 16.608 35.5802L17.7933 36.2575L18.8517 32.8708Z" fill="#C6C6C6"/>
<path d="M19.402 23.1762L32.6102 15.5561C33.4569 15.0481 34.1342 15.4715 34.1342 16.4451V23.6419C34.1342 24.6156 33.4569 25.8009 32.6102 26.3089L19.9947 33.548L18.64 35.961C18.386 36.4267 17.9203 36.469 17.9203 36.0457V34.818V30.2036V25.8432C17.878 24.8696 18.5553 23.6419 19.402 23.1762Z" fill="white"/>
<path d="M23.3369 27.5431C23.7811 26.7737 23.7801 25.9415 23.3347 25.6843C22.8892 25.4271 22.168 25.8424 21.7238 26.6118C21.2796 27.3812 21.2805 28.2134 21.726 28.4705C22.1714 28.7277 22.8927 28.3125 23.3369 27.5431Z" fill="#668CFF"/>
<path d="M30.1992 23.5372C30.6434 22.7678 30.6424 21.9356 30.197 21.6784C29.7515 21.4213 29.0303 21.8365 28.5861 22.6059C28.1419 23.3753 28.1428 24.2075 28.5883 24.4647C29.0337 24.7219 29.7549 24.3067 30.1992 23.5372Z" fill="#668CFF"/>
<path d="M26.7685 25.4972C27.2127 24.7278 27.2117 23.8956 26.7663 23.6384C26.3209 23.3812 25.5996 23.7965 25.1554 24.5659C24.7112 25.3353 24.7122 26.1675 25.1576 26.4247C25.6031 26.6818 26.3243 26.2666 26.7685 25.4972Z" fill="#668CFF"/>
</svg>
