<svg width="50" height="65" viewBox="0 0 50 65" fill="none" xmlns="http://www.w3.org/2000/svg">
<path d="M18.312 20.7795L50 39.0439V18.2645L18.312 0V20.7795Z" fill="#EFEEE8"/>
<path d="M28.85 6.8125V25.9804" stroke="black" stroke-width="1.11" stroke-miterlimit="10" stroke-linecap="round" stroke-linejoin="round"/>
<path d="M39.4127 12.8682V32.0361" stroke="black" stroke-width="1.11" stroke-miterlimit="10" stroke-linecap="round" stroke-linejoin="round"/>
<path d="M19.4719 9.93807L21.6436 11.2078V7.37421L19.4719 6.12891V9.93807Z" fill="#FFC400"/>
<path d="M35.3652 20.3399L37.5617 21.5852V17.7761L35.3652 16.5308V20.3399Z" fill="#FFC400"/>
<path d="M23.0751 14.5045L25.2468 15.7498V11.9406L23.0751 10.6953V14.5045Z" fill="#C6C6C6"/>
<path d="M30.1826 12.9659L32.3791 14.2112V10.402L30.1826 9.15674V12.9659Z" fill="#C6C6C6"/>
<path d="M40.4245 25.004L42.5963 26.2737V22.4645L40.4245 21.1948V25.004Z" fill="#668CFF"/>
<path d="M44.5212 28.4224L46.693 29.6678V25.8586L44.5212 24.6133V28.4224Z" fill="#27E38C"/>
<path d="M42.5963 20.3888L44.768 21.6585V17.8493L42.5963 16.5796V20.3888Z" fill="#C6C6C6"/>
<path d="M33.9339 14.9928L36.1057 16.2381V12.4289L33.9339 11.1836V14.9928Z" fill="#27E38C"/>
<path d="M22.4827 8.66854L24.6792 9.93826V6.10468L22.4827 4.85938V8.66854Z" fill="#668CFF"/>
<path d="M30.1826 18.1422L32.3791 19.3875V15.5783L30.1826 14.333V18.1422Z" fill="#668CFF"/>
<path d="M4.22014 28.6906L5.15795 42.1203L5.99704 42.2912L4.54097 43.0482L2.3692 32.3532L0.937808 39.6053L1.62883 39.7274L0 40.2157L0.370188 27.7383L4.22014 28.6906Z" fill="black"/>
<path d="M0.370178 28.0801C0.370178 28.0801 2.51727 29.9847 3.92398 29.4231C4.31885 29.2766 4.22013 28.7638 4.17077 28.3487C4.09673 27.7383 4.07205 26.6151 3.87462 25.2721C3.35636 21.4141 2.7147 20.9013 1.999 20.9746C1.28331 21.0478 1.03652 22.4152 0.715687 24.2221C0.567612 25.0767 0.394857 26.1511 0.370178 28.0801Z" fill="#668CFF"/>
<path d="M3.23293 19.8269C3.20825 18.0933 1.08584 18.4351 1.2586 20.0955C1.30795 20.6815 1.53007 21.2676 1.99897 21.4141C2.49255 21.5606 3.25761 21.1699 3.23293 19.8269Z" fill="#FFC400"/>
<path d="M2.91217 19.1923C2.91217 19.1923 1.87565 19.29 1.94969 20.1446C1.99904 20.9748 1.82629 21.3655 1.48078 21.1701C0.987198 20.9015 0.370219 20.0469 0.542973 19.0214C0.666369 18.24 1.50546 17.7272 2.31987 17.8981C3.60319 18.1912 3.3564 19.0702 2.91217 19.1923Z" fill="#FF3B5C"/>
<path d="M2.9862 21.6094C2.9862 21.6094 3.75125 23.9535 5.52815 25.9801C7.1323 27.8115 7.82332 27.9336 7.82332 27.9336L7.62588 28.3487C7.62588 28.3487 6.29321 27.7626 4.73842 26.6638C2.9862 25.4185 2.41858 24.1244 2.41858 24.1244L2.9862 21.6094Z" fill="#668CFF"/>
<path d="M32.9714 54.3047C32.9714 54.3047 37.2162 55.3791 38.3021 55.257C39.8322 55.0861 42.2014 52.9129 40.3504 52.4001C38.4995 51.8874 34.6249 51.5699 33.5637 52.3269C32.5025 53.0838 31.6387 53.8896 32.9714 54.3047Z" fill="#EFEEE8"/>
<path d="M38.0553 39.4346L39.0177 53.4992L38.7956 53.7678C38.6969 53.8899 38.5242 53.8899 38.4008 53.7922L38.154 53.548L36.2784 44.196L34.7729 53.5724L34.6002 53.7434C34.4521 53.8899 34.23 53.841 34.1313 53.6701L34.0079 53.4503L34.3287 40.0694L38.0553 39.4346Z" fill="black"/>
<path d="M34.3534 40.4355C34.3534 40.4355 36.4018 41.5832 37.7591 40.3378C38.1293 39.996 38.0553 39.5076 38.0059 39.0681C37.9319 38.4577 37.8332 37.5298 37.4383 36.3089C36.6486 33.8427 36.2043 32.2067 35.6614 32.2067C35.1431 32.1823 34.847 34.3799 34.6002 36.4554C34.5015 37.3101 34.3534 39.0681 34.3534 40.4355Z" fill="#FFC400"/>
<path d="M35.3652 32.6221C35.3652 32.6221 33.687 35.5766 33.1194 37.0905C32.6258 38.4579 34.3287 40.4113 34.3287 40.4113L34.9704 40.509L34.0079 37.823L35.3652 35.308V32.6221Z" fill="#FFC400"/>
<path d="M36.155 32.6221C36.155 32.6221 38.4748 35.6743 39.1165 36.8708C39.7828 38.1649 38.1293 40.3137 38.1293 40.3137L37.8825 40.0206L38.4254 37.2126L36.1796 34.2825V32.6221" fill="#FFC400"/>
<path d="M36.6486 31.4986C36.6486 29.7161 34.5261 30.0091 34.6742 31.7427C34.7236 32.3532 34.921 32.9636 35.3899 33.1101C35.8835 33.3055 36.6486 32.9148 36.6486 31.4986Z" fill="black"/>
<path d="M11.9694 24.6133L12.9319 38.6779L12.7098 38.9465C12.6111 39.0686 12.4383 39.0686 12.3149 38.9709L12.0682 38.7267L10.1925 29.3503L8.68711 38.7267L8.51436 38.8976C8.36628 39.0442 8.14417 38.9953 8.04545 38.8244L7.92206 38.6046L8.24289 25.2237L11.9694 24.6133Z" fill="black"/>
<path d="M8.26752 25.5898C8.26752 25.5898 10.3159 26.7374 11.6732 25.4921C12.0434 25.1503 11.9694 24.6619 11.92 24.2224C11.846 23.612 11.7473 22.6841 11.3524 21.4632C10.5627 18.997 10.1185 17.361 9.57551 17.361C9.05725 17.3366 8.7611 19.5342 8.51431 21.6097C8.41559 22.4643 8.26752 24.2224 8.26752 25.5898Z" fill="white"/>
<path d="M9.27941 17.7764C9.27941 17.7764 6.12048 22.1227 6.54002 22.9773C6.95957 23.832 8.24289 25.2238 8.24289 25.2238L8.53904 25.1017L7.40379 22.7332L9.25473 19.4856V17.7764" fill="white"/>
<path d="M10.0692 17.7764C10.0692 17.7764 11.9941 20.6332 13.0553 22.2448C13.5736 23.0506 15.0543 24.5889 15.0543 24.5889L14.7088 24.8819L12.1669 22.7087L10.0692 19.9495V17.7764Z" fill="white"/>
<path d="M10.8096 16.897C10.8096 15.1145 8.68715 15.4075 8.83522 17.1412C8.88458 17.7516 9.08201 18.3621 9.55092 18.5086C10.0445 18.7039 10.8096 18.3132 10.8096 16.897Z" fill="#476BC4"/>
<path d="M10.5134 15.9937C10.5134 15.9937 10.2913 16.4576 9.94574 16.5797C9.60024 16.7018 9.30409 16.8483 9.20537 17.1169C9.10665 17.3855 9.05729 18.0448 9.32877 18.7285C9.60024 19.4122 9.60024 20.3156 9.13133 20.4866C8.66243 20.6575 8.16884 19.7052 8.11949 18.7773C8.07013 17.8494 8.63775 16.8971 8.78582 16.3111C9.00794 15.5786 10.0938 15.2367 10.5134 15.9937Z" fill="black"/>
<path d="M10.1185 16.0913C10.1185 16.0913 10.3159 16.2378 10.6121 16.5308C10.9082 16.8482 10.464 17.9226 10.3653 18.3621C10.2665 18.8016 10.7601 19.1923 11.3277 19.7539C11.772 20.1935 11.8707 19.1679 11.2537 18.0203C10.7354 17.068 11.3771 16.1157 10.4887 15.7983C10.2419 15.725 10.1185 16.0913 10.1185 16.0913Z" fill="black"/>
<path d="M23.3218 64.0474C23.3218 64.0474 27.5666 65.1218 28.6525 64.9997C30.1826 64.8288 32.5518 62.6556 30.7009 62.1428C28.8499 61.63 24.9753 61.3126 23.9141 62.0696C22.8529 62.8021 22.0138 63.6323 23.3218 64.0474Z" fill="#EFEEE8"/>
<path d="M25.7403 42.3647C25.7403 42.3647 24.5557 45.8076 23.9881 47.3215C23.4945 48.6889 24.7285 51.2772 24.7285 51.2772L25.3702 51.3749L24.8519 48.0541L25.7157 45.0507V42.3647" fill="#76A3FF"/>
<path d="M26.5054 42.3647C26.5054 42.3647 28.5044 45.5635 29.1214 46.7599C29.7877 48.0541 28.4057 51.1063 28.4057 51.1063L27.6653 46.4669L26.5054 44.0496V42.3647Z" fill="#76A3FF"/>
<path d="M28.4304 49.2017L29.3929 63.2663L29.1708 63.5349C29.072 63.657 28.8993 63.657 28.7759 63.5593L28.5291 63.3151L26.6535 53.9387L25.1481 63.3151L24.9753 63.486C24.8272 63.6326 24.6051 63.5837 24.5064 63.4128L24.383 63.193L24.7038 49.8121L28.4304 49.2017Z" fill="black"/>
<path d="M24.7285 50.1782C24.7285 50.1782 26.7769 51.3258 28.1342 50.0805C28.5044 49.7387 28.4304 49.2503 28.381 48.8108C28.307 48.2004 28.2083 47.2725 27.8134 46.0516C27.0237 43.5854 26.5795 41.9494 26.0365 41.9494C25.5182 41.925 25.2221 44.1226 24.9753 46.1981C24.8519 47.0527 24.7285 48.8108 24.7285 50.1782Z" fill="#76A3FF"/>
<path d="M26.999 41.2656C26.999 39.4832 24.8766 39.7762 25.0246 41.5098C25.074 42.1203 24.4077 44.1469 25.5676 44.3667C28.4057 44.855 26.999 42.6575 26.999 41.2656Z" fill="black"/>
<path d="M29.2942 27.1769L30.2566 40.5822L31.0711 40.7776L29.615 41.5101L27.4432 30.8151L26.0118 38.0916L26.7028 38.2137L25.0987 38.7021L25.4689 26.2002L29.2942 27.1769Z" fill="black"/>
<path d="M24.9753 20.7306C24.9753 20.7306 24.6544 21.3655 25.1727 21.7318C25.6663 22.098 26.8015 21.7806 28.381 19.9981C29.9604 18.2156 30.5527 16.3599 30.5527 16.3599H30.0345C30.0345 16.3599 29.2448 17.5563 28.2823 18.4842C26.8015 19.8516 25.6663 20.1202 24.9753 20.7306Z" fill="#31E994"/>
<path d="M25.4688 26.5417C25.4688 26.5417 27.6159 28.4463 29.0226 27.8847C29.4175 27.7382 29.3188 27.2254 29.2694 26.8103C29.1954 26.1998 28.8499 25.5406 28.4303 24.2464C27.6159 21.6337 25.5429 19.6315 24.9753 20.0954C24.4076 20.5593 24.9259 20.95 25.1974 22.7569C25.3454 23.6116 25.4935 24.6127 25.4688 26.5417Z" fill="#31E994"/>
<path d="M26.5547 21.5608C26.5547 21.5608 26.2339 22.1957 26.7522 22.562C27.2457 22.9282 28.5537 22.7817 30.1332 20.9992C31.7127 19.2167 32.305 16.4575 32.305 16.4575H31.7867C31.7867 16.4575 30.8489 18.6063 30.0345 19.4853C28.6771 20.9748 27.2457 20.9748 26.5547 21.5608Z" fill="#31E994"/>
<path d="M25.3455 18.4601C24.3336 17.0439 22.7788 18.4845 23.8647 19.7787C24.2596 20.2426 24.7532 20.6089 25.2221 20.4624C25.7403 20.2915 26.1352 19.5589 25.3455 18.4601Z" fill="#FFC400"/>
<path d="M24.7285 18.1177C24.7285 18.1177 23.9388 18.777 24.457 19.4363C24.9753 20.0955 25.8144 21.6583 25.1974 22.7327C24.6051 23.807 23.4205 23.1966 23.0997 22.2199C22.7789 21.2432 22.6061 18.5328 23.766 17.8491C24.9506 17.2142 25.0247 17.7514 24.7285 18.1177Z" fill="#FF3B5C"/>
</svg>
