<svg width="85" height="110" viewBox="0 0 85 110" fill="none" xmlns="http://www.w3.org/2000/svg">
<path d="M30.9497 35.1203L84.5069 65.9898V30.8695L30.9497 0V35.1203Z" fill="#EFEEE8"/>
<path d="M48.7605 11.5142V43.9106" stroke="black" stroke-width="1.11" stroke-miterlimit="10" stroke-linecap="round" stroke-linejoin="round"/>
<path d="M66.6128 21.749V54.1455" stroke="black" stroke-width="1.11" stroke-miterlimit="10" stroke-linecap="round" stroke-linejoin="round"/>
<path d="M32.9102 16.7964L36.5807 18.9424V12.4631L32.9102 10.3584V16.7964Z" fill="#FFC400"/>
<path d="M59.7722 34.377L63.4845 36.4817V30.0437L59.7722 27.939V34.377Z" fill="#FFC400"/>
<path d="M39 24.5142L42.6706 26.6189V20.1809L39 18.0762V24.5142Z" fill="#C6C6C6"/>
<path d="M51.0127 21.9136L54.725 24.0184V17.5803L51.0127 15.4756V21.9136Z" fill="#C6C6C6"/>
<path d="M68.323 42.2598L71.9936 44.4058V37.9678L68.323 35.8218V42.2598Z" fill="#668CFF"/>
<path d="M75.2471 48.0376L78.9177 50.1424V43.7043L75.2471 41.5996V48.0376Z" fill="#27E38C"/>
<path d="M71.9937 34.4605L75.6642 36.6065V30.1685L71.9937 28.0225V34.4605Z" fill="#C6C6C6"/>
<path d="M57.353 25.3399L61.0236 27.4446V21.0066L57.353 18.9019V25.3399Z" fill="#27E38C"/>
<path d="M37.999 14.6509L41.7113 16.7969V10.3176L37.999 8.21289V14.6509Z" fill="#668CFF"/>
<path d="M51.0127 30.6626L54.725 32.7674V26.3293L51.0127 24.2246V30.6626Z" fill="#668CFF"/>
<path d="M7.13263 48.4913L8.71766 71.1895L10.1358 71.4784L7.67487 72.7577L4.00428 54.6817L1.58503 66.9388L2.75294 67.1451L0 67.9705L0.625669 46.8818L7.13263 48.4913Z" fill="black"/>
<path d="M0.625732 47.46C0.625732 47.46 4.25461 50.679 6.63215 49.7298C7.29954 49.4822 7.13269 48.6155 7.04927 47.914C6.92413 46.8822 6.88242 44.9838 6.54873 42.714C5.6728 36.1935 4.5883 35.3268 3.37868 35.4506C2.16905 35.5744 1.75194 37.8855 1.20969 40.9394C0.959423 42.3839 0.667444 44.1997 0.625732 47.46Z" fill="#668CFF"/>
<path d="M5.46415 33.5108C5.42244 30.5807 1.83527 31.1584 2.12725 33.9648C2.21068 34.9552 2.58608 35.9457 3.37859 36.1933C4.21282 36.4409 5.50587 35.7806 5.46415 33.5108Z" fill="#FFC400"/>
<path d="M4.92186 32.4377C4.92186 32.4377 3.16998 32.6028 3.29512 34.0472C3.37854 35.4504 3.08656 36.1107 2.5026 35.7805C1.66838 35.3266 0.625595 33.8822 0.917574 32.1488C1.12613 30.8282 2.54431 29.9616 3.92078 30.2504C6.08977 30.7457 5.67266 32.2314 4.92186 32.4377Z" fill="#FF3B5C"/>
<path d="M5.04701 36.5229C5.04701 36.5229 6.34005 40.4848 9.34327 43.9102C12.0545 47.0054 13.2224 47.2117 13.2224 47.2117L12.8887 47.9133C12.8887 47.9133 10.6363 46.9228 8.00851 45.0657C5.04701 42.961 4.08765 40.7737 4.08765 40.7737L5.04701 36.5229Z" fill="#668CFF"/>
<path d="M55.7263 91.7828C55.7263 91.7828 62.9007 93.5987 64.736 93.3923C67.3221 93.1034 71.3263 89.4304 68.198 88.5638C65.0696 87.6971 58.521 87.1606 56.7274 88.44C54.9338 89.7193 53.4739 91.0812 55.7263 91.7828Z" fill="#EFEEE8"/>
<path d="M64.3189 66.6499L65.9457 90.4211L65.5702 90.875C65.4034 91.0814 65.1114 91.0814 64.9029 90.9163L64.4858 90.5036L61.3157 74.6974L58.7713 90.5449L58.4793 90.8338C58.2291 91.0814 57.8537 90.9988 57.6868 90.71L57.4783 90.3385L58.0205 67.7229L64.3189 66.6499Z" fill="black"/>
<path d="M58.0623 68.3417C58.0623 68.3417 61.5243 70.2814 63.8184 68.1766C64.4441 67.5989 64.3189 66.7735 64.2355 66.0306C64.1104 64.9989 63.9435 63.4307 63.2762 61.3672C61.9414 57.199 61.1906 54.4339 60.273 54.4339C59.397 54.3927 58.8965 58.1069 58.4794 61.6148C58.3125 63.0592 58.0623 66.0306 58.0623 68.3417Z" fill="#FFC400"/>
<path d="M59.7724 55.1357C59.7724 55.1357 56.936 60.1293 55.9767 62.688C55.1424 64.9991 58.0205 68.3007 58.0205 68.3007L59.105 68.4658L57.4783 63.9261L59.7724 59.6754V55.1357Z" fill="#FFC400"/>
<path d="M61.1072 55.1357C61.1072 55.1357 65.028 60.2944 66.1125 62.3166C67.2387 64.5039 64.4441 68.1356 64.4441 68.1356L64.027 67.6404L64.9446 62.8944L61.1489 57.9421V55.1357" fill="#FFC400"/>
<path d="M61.9415 53.2373C61.9415 50.2246 58.3543 50.7199 58.6046 53.65C58.688 54.6817 59.0217 55.7135 59.8142 55.9611C60.6484 56.2912 61.9415 55.6309 61.9415 53.2373Z" fill="black"/>
<path d="M20.23 41.5996L21.8568 65.3708L21.4814 65.8247C21.3145 66.0311 21.0226 66.0311 20.814 65.866L20.3969 65.4533L17.2268 49.6059L14.6825 65.4533L14.3905 65.7422C14.1402 65.9898 13.7648 65.9073 13.598 65.6184L13.3894 65.247L13.9317 42.6313L20.23 41.5996Z" fill="black"/>
<path d="M13.9734 43.2499C13.9734 43.2499 17.4354 45.1896 19.7295 43.0848C20.3552 42.5071 20.2301 41.6817 20.1467 40.9388C20.0215 39.9071 19.8547 38.3389 19.1873 36.2754C17.8525 32.1072 17.1017 29.3421 16.1841 29.3421C15.3081 29.3009 14.8076 33.0151 14.3905 36.523C14.2237 37.9674 13.9734 40.9388 13.9734 43.2499Z" fill="white"/>
<path d="M15.6836 30.0444C15.6836 30.0444 10.3445 37.3904 11.0536 38.8348C11.7627 40.2792 13.9317 42.6316 13.9317 42.6316L14.4322 42.4252L12.5135 38.4221L15.6419 32.9333V30.0444" fill="white"/>
<path d="M17.0183 30.0444C17.0183 30.0444 20.2718 34.873 22.0654 37.5967C22.9413 38.9586 25.444 41.5586 25.444 41.5586L24.86 42.0538L20.5638 38.3809L17.0183 33.7174V30.0444Z" fill="white"/>
<path d="M18.2698 28.5586C18.2698 25.5459 14.6827 26.0411 14.9329 28.9713C15.0163 30.003 15.35 31.0348 16.1425 31.2824C16.9768 31.6125 18.2698 30.9522 18.2698 28.5586Z" fill="#476BC4"/>
<path d="M17.7691 27.0316C17.7691 27.0316 17.3937 27.8157 16.8098 28.022C16.2258 28.2284 15.7253 28.476 15.5584 28.9299C15.3916 29.3839 15.3082 30.4982 15.767 31.6537C16.2258 32.8093 16.2258 34.3362 15.4333 34.6251C14.6408 34.914 13.8066 33.3045 13.7231 31.7363C13.6397 30.168 14.5991 28.5585 14.8493 27.5681C15.2247 26.33 17.06 25.7522 17.7691 27.0316Z" fill="black"/>
<path d="M17.1018 27.1967C17.1018 27.1967 17.4355 27.4443 17.936 27.9395C18.4366 28.476 17.6858 30.2919 17.5189 31.0347C17.3521 31.7776 18.1863 32.4379 19.1457 33.3871C19.8965 34.1299 20.0633 32.3966 19.0205 30.4569C18.1446 28.8474 19.2291 27.2379 17.7275 26.7014C17.3104 26.5776 17.1018 27.1967 17.1018 27.1967Z" fill="black"/>
<path d="M39.4171 108.25C39.4171 108.25 46.5915 110.065 48.4268 109.859C51.0129 109.57 55.0171 105.897 51.8888 105.031C48.7605 104.164 42.2118 103.627 40.4182 104.907C38.6246 106.145 37.2064 107.548 39.4171 108.25Z" fill="#EFEEE8"/>
<path d="M43.5049 71.6025C43.5049 71.6025 41.5028 77.4215 40.5434 79.9802C39.7092 82.2913 41.7947 86.6659 41.7947 86.6659L42.8792 86.8309L42.0033 81.2183L43.4632 76.1422V71.6025" fill="#76A3FF"/>
<path d="M44.7979 71.6025C44.7979 71.6025 48.1765 77.0088 49.2192 79.031C50.3455 81.2183 48.0096 86.377 48.0096 86.377L46.7583 78.5358L44.7979 74.4501V71.6025Z" fill="#76A3FF"/>
<path d="M48.0516 83.1577L49.6783 106.929L49.3029 107.383C49.1361 107.589 48.8441 107.589 48.6355 107.424L48.2184 107.011L45.0484 91.164L42.504 107.011L42.212 107.3C41.9617 107.548 41.5863 107.465 41.4195 107.177L41.2109 106.805L41.7532 84.1895L48.0516 83.1577Z" fill="black"/>
<path d="M41.7947 84.8085C41.7947 84.8085 45.2567 86.7482 47.5508 84.6434C48.1765 84.0657 48.0514 83.2403 47.9679 82.4974C47.8428 81.4657 47.676 79.8975 47.0086 77.834C45.6738 73.6658 44.923 70.9007 44.0054 70.9007C43.1294 70.8595 42.6289 74.5737 42.2118 78.0816C42.0032 79.526 41.7947 82.4974 41.7947 84.8085Z" fill="#76A3FF"/>
<path d="M45.6321 69.7451C45.6321 66.7324 42.045 67.2277 42.2952 70.1578C42.3787 71.1895 41.2525 74.6149 43.2129 74.9863C48.0097 75.8117 45.6321 72.0975 45.6321 69.7451Z" fill="black"/>
<path d="M49.5113 45.934L51.1381 68.5909L52.5146 68.921L50.0536 70.1591L46.383 52.0831L43.9637 64.3814L45.1316 64.5877L42.4204 65.4131L43.0461 44.2832L49.5113 45.934Z" fill="black"/>
<path d="M42.2118 35.0381C42.2118 35.0381 41.6696 36.1111 42.5455 36.7302C43.3798 37.3492 45.2985 36.8127 47.968 33.8C50.6375 30.7874 51.6386 27.6509 51.6386 27.6509H50.7626C50.7626 27.6509 49.4279 29.6731 47.8011 31.2413C45.2985 33.5524 43.3798 34.0064 42.2118 35.0381Z" fill="#31E994"/>
<path d="M43.0459 44.8601C43.0459 44.8601 46.6748 48.0791 49.0523 47.1299C49.7197 46.8823 49.5529 46.0156 49.4694 45.314C49.3443 44.2823 48.7603 43.168 48.0512 40.9808C46.6748 36.5649 43.171 33.1808 42.2117 33.965C41.2523 34.7491 42.1282 35.4094 42.5871 38.4633C42.8373 39.9077 43.0876 41.5998 43.0459 44.8601Z" fill="#31E994"/>
<path d="M44.8813 36.4412C44.8813 36.4412 44.339 37.5142 45.215 38.1333C46.0492 38.7523 48.2599 38.5047 50.9294 35.492C53.5989 32.4794 54.6 27.8159 54.6 27.8159H53.7241C53.7241 27.8159 52.139 31.4476 50.7626 32.9333C48.4684 35.4508 46.0492 35.4508 44.8813 36.4412Z" fill="#31E994"/>
<path d="M42.8375 31.2005C41.1273 28.8069 38.4995 31.2418 40.3348 33.4291C41.0022 34.2132 41.8364 34.8322 42.6289 34.5846C43.5048 34.2957 44.1722 33.0576 42.8375 31.2005Z" fill="#FFC400"/>
<path d="M41.7946 30.6216C41.7946 30.6216 40.4599 31.7359 41.3358 32.8502C42.2117 33.9645 43.6299 36.6057 42.5871 38.4216C41.5861 40.2374 39.5839 39.2057 39.0417 37.5549C38.4994 35.9041 38.2075 31.3232 40.1679 30.1677C42.17 29.0947 42.2952 30.0026 41.7946 30.6216Z" fill="#FF3B5C"/>
</svg>
