<svg width="115" height="112" viewBox="0 0 115 112" fill="none" xmlns="http://www.w3.org/2000/svg">
<path d="M53.4773 92.4565L0 61.7937L53.4773 31.1309L106.945 61.7937L53.4773 92.4565Z" fill="#FFE200"/>
<path d="M55.475 84.2076L7.19458 57.6742L53.4763 31.1309L106.944 61.7937L94.5112 68.9308L55.475 84.2076Z" fill="#FFC400"/>
<path d="M53.4673 77.13L0 46.4672C0 46.4672 18.5387 44.4124 31.8705 40.5908C39.4938 38.496 46.7691 35.3092 53.4673 31.1309L106.935 61.7937C98.7893 66.2985 90.1779 69.9162 81.2503 72.5837C72.1764 75.0673 62.8637 76.5912 53.4673 77.13Z" fill="#FFE200"/>
<path d="M106.945 80.9818L53.4773 111.645V92.4567L106.945 61.7939V80.9818Z" fill="#FFC400"/>
<path d="M0 80.9818L53.4773 111.645V92.4567L0 61.7939V80.9818Z" fill="#FF8600"/>
<path d="M78.5723 38.2184L80.1513 50.2591C80.2798 52.0328 79.1813 53.6673 77.483 54.2297L53.1179 62.29L50.2796 63.5804C49.61 63.9179 42.8042 65.5657 44.1034 62.5878L51.7187 59.9374L70.1374 50.0606L67.8888 47.2514L48.0909 46.7551L59.2541 63.2529C59.2541 63.2529 55.0667 68.8613 54.6269 68.0275L55.7163 62.697L42.2145 47.4301C41.4065 46.2868 41.2775 44.801 41.8766 43.5371C42.4756 42.2733 43.7107 41.4253 45.1128 41.3154L61.7226 37.8809L78.5723 38.2184Z" fill="black"/>
<path d="M63.1316 38.6761C63.1316 38.6761 71.0567 42.339 77.3829 39.232C79.1418 38.3684 78.4822 36.9092 78.3123 35.2614C77.9792 31.6013 77.2384 27.9892 76.1037 24.4912C73.0255 14.942 71.3166 8.60891 69.1979 8.50965C67.0792 8.41038 65.0304 16.9273 64.071 24.9776C63.4898 29.5217 63.1761 34.0957 63.1316 38.6761H63.1316Z" fill="#76A3FF"/>
<path d="M66.2587 10.4151L60.832 18.396L48.5295 34.6655L50.3884 35.946L61.4716 25.7118L68.0576 19.5773V10.1074" fill="#76A3FF"/>
<path d="M71.0575 10.1074C71.0575 10.1074 78.9527 24.8681 81.3312 29.6129C83.9496 34.6853 69.1487 40.2938 69.1487 40.2938L70.8576 35.9063L77.1738 31.8166L71.0575 16.7284V10.1074Z" fill="#76A3FF"/>
<path d="M72.9561 5.77854C72.9561 -1.16997 64.7311 -0.0383583 65.2708 6.71163C65.4607 9.11383 66.2702 11.4763 68.0091 12.0719C70.0479 12.7568 72.9561 11.2282 72.9561 5.77854Z" fill="#FFC400"/>
<path d="M65.9585 1.75954C66.4406 2.79269 67.2472 3.6426 68.2571 4.18159C69.6562 4.70769 70.8455 5.28342 71.2553 6.38526C71.7892 8.57734 71.5964 10.8821 70.7056 12.9566C69.5663 15.736 69.6362 19.3988 71.5251 20.0838C73.4139 20.7687 75.3827 16.8577 75.5726 13.1352C75.7625 9.41283 73.4639 5.52166 72.8643 3.03012C72.1247 0.0521867 67.7174 -1.33752 65.9785 1.7099" fill="#FF3B5C"/>
<path d="M67.5587 2.1951C66.8404 2.7452 66.1716 3.35633 65.5599 4.02157C64.3606 5.28223 66.1495 9.64986 66.5593 11.4763C66.969 13.3028 64.9603 14.8315 62.6217 17.1443C60.8228 18.9112 60.3831 14.7719 62.8815 10.0966C64.9603 6.19546 62.4118 2.37378 65.9597 1.04363C67.1389 0.646574 67.5587 2.1951 67.5587 2.1951Z" fill="#FF3B5C"/>
<path d="M97.8495 51.2815L94.0318 105.837L90.6938 106.582L96.5802 109.57L105.355 66.1116L111.171 95.6328L108.363 96.1292L114.929 98.1244L113.43 47.3506L97.8495 51.2815Z" fill="black"/>
<path d="M113.43 48.6914C113.43 48.6914 104.776 56.4638 99.0492 54.141C97.4702 53.5057 97.84 51.4608 98.0498 49.7436C98.3097 47.3017 98.4696 42.6561 99.2291 37.1965C101.378 21.6914 103.936 19.587 106.874 19.9047C109.813 20.2223 110.752 25.7513 112.061 33.0572C112.975 38.2191 113.433 43.4503 113.43 48.6914Z" fill="#FF3B5C"/>
<path d="M101.886 15.1803C102.016 8.18216 110.581 9.49245 109.881 16.2722C109.631 18.6843 108.772 21.0468 106.883 21.6126C104.824 22.2479 101.776 20.6597 101.886 15.1803Z" fill="#FFC400"/>
<path d="M103.186 12.6473C103.186 12.6473 107.364 13.0841 107.124 16.4789C106.884 19.8738 107.593 21.4422 109.072 20.6381C111.071 19.576 113.54 16.072 112.85 11.9227C112.527 10.3555 111.575 8.98683 110.213 8.13261C108.852 7.27839 107.198 7.01247 105.635 7.39625C100.338 8.53779 101.337 12.1014 103.186 12.6473Z" fill="black"/>
<path d="M102.817 22.4971C100.478 28.9802 96.9883 34.9947 92.5136 40.2555C85.9976 47.7202 83.2593 48.1966 83.2593 48.1966L84.0988 49.8643C88.2044 47.9276 92.1247 45.6252 95.8116 42.9853C102.947 37.9128 105.236 32.6419 105.236 32.6419L102.817 22.4971Z" fill="#FF3B5C"/>
</svg>
