<svg width="54" height="53" viewBox="0 0 54 53" fill="none" xmlns="http://www.w3.org/2000/svg">
<path d="M25.1264 43.4409L0 29.0339L25.1264 14.627L50.2482 29.0339L25.1264 43.4409Z" fill="#FFE200"/>
<path d="M26.0651 39.5652L3.38037 27.0984L25.1259 14.627L50.2477 29.034L44.4063 32.3873L26.0651 39.5652Z" fill="#FFC400"/>
<path d="M25.1217 36.2398L0 21.8328C0 21.8328 8.71043 20.8673 14.9744 19.0717C18.5563 18.0875 21.9746 16.5902 25.1217 14.627L50.2435 29.0339C46.4164 31.1506 42.3703 32.8504 38.1757 34.1037C33.9123 35.2706 29.5367 35.9866 25.1217 36.2398Z" fill="#FFE200"/>
<path d="M50.2481 38.0496L25.1263 52.4566V43.4412L50.2481 29.0342V38.0496Z" fill="#FFC400"/>
<path d="M0 38.0496L25.1264 52.4566V43.4412L0 29.0342V38.0496Z" fill="#FF8600"/>
<path d="M36.9174 17.9574L37.6593 23.6148C37.7197 24.4481 37.2036 25.2161 36.4056 25.4804L24.9576 29.2675L23.624 29.8738C23.3094 30.0324 20.1117 30.8066 20.7221 29.4074L24.3002 28.1622L32.9543 23.5215L31.8977 22.2016L22.5957 21.9684L27.8407 29.7199C27.8407 29.7199 25.8732 32.3551 25.6666 31.9633L26.1784 29.4587L19.8346 22.2856C19.455 21.7484 19.3944 21.0503 19.6758 20.4564C19.9573 19.8626 20.5376 19.4642 21.1964 19.4126L29.0005 17.7988L36.9174 17.9574Z" fill="black"/>
<path d="M29.6625 18.1718C29.6625 18.1718 33.3861 19.8928 36.3585 18.4329C37.1849 18.0272 36.875 17.3416 36.7952 16.5674C36.6386 14.8476 36.2906 13.1505 35.7574 11.507C34.3112 7.02021 33.5082 4.0446 32.5127 3.99796C31.5173 3.95132 30.5546 7.95301 30.1039 11.7355C29.8308 13.8706 29.6834 16.0196 29.6625 18.1718H29.6625Z" fill="#76A3FF"/>
<path d="M31.1318 4.89361L28.5821 8.64344L22.8018 16.2877L23.6751 16.8893L28.8826 12.0808L31.9771 9.19845V4.74902" fill="#76A3FF"/>
<path d="M33.3865 4.74902C33.3865 4.74902 37.0961 11.6843 38.2136 13.9137C39.4439 16.297 32.4896 18.9321 32.4896 18.9321L33.2926 16.8707L36.2602 14.9491L33.3865 7.85989V4.74902Z" fill="#76A3FF"/>
<path d="M34.2784 2.71537C34.2784 -0.54941 30.4139 -0.0177172 30.6675 3.15378C30.7567 4.28246 31.137 5.39249 31.9541 5.67232C32.912 5.99414 34.2784 5.27589 34.2784 2.71537Z" fill="#FFC400"/>
<path d="M30.9908 0.826723C31.2174 1.31215 31.5963 1.71148 32.0708 1.96473C32.7282 2.21192 33.287 2.48243 33.4795 3.00013C33.7304 4.03009 33.6398 5.11297 33.2213 6.08768C32.686 7.39359 32.7188 9.11459 33.6063 9.43641C34.4938 9.75822 35.4188 7.92062 35.5081 6.17163C35.5973 4.42264 34.5173 2.59437 34.2355 1.42371C33.8881 0.0245201 31.8173 -0.628435 31.0002 0.803403" fill="#FF3B5C"/>
<path d="M31.7427 1.03158C31.4052 1.29004 31.0909 1.57718 30.8035 1.88975C30.2401 2.48207 31.0806 4.53422 31.2731 5.39239C31.4656 6.25056 30.5218 6.96881 29.423 8.05551C28.5778 8.8857 28.3712 6.94082 29.5451 4.74409C30.5218 2.91116 29.3244 1.11553 30.9914 0.490556C31.5455 0.303997 31.7427 1.03158 31.7427 1.03158Z" fill="#FF3B5C"/>
<path d="M45.9751 24.0955L44.1814 49.7286L42.613 50.0784L45.3788 51.4823L49.5016 31.0634L52.2344 44.9341L50.915 45.1673L54 46.1047L53.2956 22.2485L45.9751 24.0955Z" fill="black"/>
<path d="M53.2956 22.8779C53.2956 22.8779 49.2292 26.5297 46.5386 25.4384C45.7967 25.1399 45.9704 24.1791 46.069 23.3722C46.1911 22.2249 46.2662 20.0422 46.6231 17.477C47.6327 10.1919 48.8347 9.2031 50.2153 9.35234C51.5958 9.50159 52.0372 12.0994 52.6523 15.5321C53.0816 17.9574 53.2969 20.4153 53.2956 22.8779Z" fill="#FF3B5C"/>
<path d="M47.8717 7.13229C47.9328 3.84419 51.9569 4.45983 51.6282 7.64532C51.5109 8.77867 51.107 9.88869 50.2195 10.1545C49.2522 10.453 47.8201 9.7068 47.8717 7.13229Z" fill="#FFC400"/>
<path d="M48.4825 5.9429C48.4825 5.9429 50.4453 6.14812 50.3326 7.74319C50.2199 9.33827 50.5533 10.0752 51.2482 9.6974C52.1874 9.19835 53.3472 7.55197 53.0232 5.60243C52.8715 4.86608 52.424 4.223 51.7842 3.82165C51.1444 3.42029 50.3676 3.29535 49.6329 3.47566C47.1442 4.01202 47.6138 5.68638 48.4825 5.9429Z" fill="black"/>
<path d="M48.3091 10.5698C47.21 13.6159 45.5704 16.4419 43.4679 18.9137C40.4064 22.421 39.1198 22.6448 39.1198 22.6448L39.5142 23.4284C41.4432 22.5184 43.2852 21.4366 45.0175 20.1963C48.3702 17.813 49.4455 15.3364 49.4455 15.3364L48.3091 10.5698Z" fill="#FF3B5C"/>
</svg>
