<svg width="67" height="62" viewBox="0 0 67 62" fill="none" xmlns="http://www.w3.org/2000/svg">
<path d="M59.0768 34.8438L34.2702 20.5938C27.7934 16.9063 18.0468 16.5 12.4818 19.6875L3.77276 24.6875C2.51513 25.4063 1.57191 26.25 0.943099 27.1875L0.50293 22.9688L2.45225 19.9375L14.5883 13.0625L19.9961 11.9062L26.2843 12.1875L32.9497 14.1875L56.09 27.2813L58.3223 28.6563L59.0768 34.8438Z" fill="black"/>
<path d="M59.077 34.8437L58.7625 35.0312L30.1516 51.4375L5.34491 37.1875C1.88644 35.2187 0.0943219 32.7187 0 30.3125V23.9062L1.82356 27.375L7.35711 31.7187L30.0258 44.6562L57.8822 28.75L59.077 34.8437Z" fill="#4C4C4C"/>
<path d="M5.34507 30.9688L30.1517 45.2188L59.0771 28.625L34.239 14.375C27.7937 10.6875 18.0471 10.2813 12.4506 13.4688L3.77303 18.4688C-1.8234 21.6875 -1.10026 27.2813 5.34507 30.9688ZM1.0377 23.9063C1.0377 22.1875 2.201 20.5625 4.27608 19.375L12.9851 14.375C15.2489 13.0625 18.4244 12.3438 21.9143 12.3438C26.1902 12.3438 30.4661 13.4063 33.7045 15.25L56.9706 28.5938L30.1203 44L5.84812 30.0938C2.79837 28.3125 1.0377 26.0625 1.0377 23.9063Z" fill="#6D6D6D"/>
<path d="M20.3735 52.3437C19.7447 51.9687 19.3359 51.0937 19.3359 49.875V38.4375C19.3359 37.25 19.6818 35.9375 20.2477 34.8437C20.7822 33.8437 21.5368 33 22.4171 32.5625C28.3594 29.5937 32.4152 30.3125 38.0746 26.5937C45.4317 21.75 45.1487 20.3125 47.5068 18.25C48.1041 17.7187 49.3303 17.7812 49.8962 18.375L65.6166 27.4062L55.0839 43.0625L36.534 61.6562L20.3735 52.3437Z" fill="#878787"/>
<path d="M48.5757 50.1875L36.5654 61.6562L20.3735 52.375C19.7447 52 19.3359 51.125 19.3359 49.9062V47.6875V38.4375C19.3359 37.25 19.6818 35.9375 20.2477 34.8438" fill="#6D6D6D"/>
<path d="M23.9894 54.5938C23.8951 54.5938 23.8322 54.5626 23.7693 54.5313C22.9833 54.0626 22.5117 53.0001 22.5117 51.6876V40.2188C22.5117 38.0001 23.675 35.0313 25.8444 33.9376C28.5169 32.6251 30.7806 32.0001 33.0129 31.4376C35.7797 30.7188 38.3578 30.0313 41.4704 28.0001C46.5009 24.6876 47.9472 22.9688 49.0791 21.5938C49.6135 20.9688 50.1166 20.3751 50.8712 19.6876C51.1227 19.4688 51.4685 19.3126 51.8458 19.2501C52.0974 19.2188 52.3174 19.3751 52.3803 19.6251C52.4118 19.8751 52.2546 20.0938 52.003 20.1563C51.7829 20.1876 51.5943 20.2813 51.4685 20.3751C50.7768 21.0001 50.3052 21.5313 49.7707 22.1563C48.576 23.5626 47.1297 25.3438 41.9735 28.7501C38.7665 30.8751 36.0941 31.5626 33.2644 32.3126C31.095 32.8751 28.8627 33.4688 26.2846 34.7501C24.4925 35.6251 23.4549 38.2188 23.4549 40.2188V51.6876C23.4549 52.6876 23.7693 53.4688 24.2724 53.7813C24.4925 53.9063 24.5554 54.1876 24.4296 54.4063C24.2724 54.5001 24.1466 54.5938 23.9894 54.5938Z" fill="#4C4C4C"/>
<path d="M38.8293 61.6247L63.9189 47.3122C65.6167 46.3435 67.0001 43.7185 67.0001 41.4372V29.9997C67.0001 27.7497 65.6167 26.6872 63.9189 27.6872L38.8293 41.9997C37.1315 42.9685 35.7481 45.5935 35.7481 47.8747V59.3435C35.7166 61.5622 37.1 62.6247 38.8293 61.6247Z" fill="#4C4C4C"/>
<path d="M45.1802 50.0313L58.5739 42.3438V39.2812L45.1802 46.9688V50.0313Z" fill="#668CFF"/>
<path d="M10.1865 12.563L10.218 13.0005C10.2808 14.188 10.5009 15.0005 11.4127 15.7505L14.8397 17.6255L15.1856 25.563L17.0406 26.5005L16.1917 25.2192L16.9777 16.9692L14.3052 15.1567L17.9209 17.2817L18.5183 23.1567L20.5934 23.7817L19.5873 22.8442L19.3986 16.0942L14.5882 12.688L10.1865 12.563Z" fill="black"/>
<path d="M11.6956 3.1877C11.6956 3.1877 11.5698 3.8752 12.5445 3.0002C12.9846 2.6252 13.3934 1.65645 13.1104 1.0002C12.6388 -0.0622958 11.4126 0.00020424 11.4126 0.00020424L11.5384 3.09395L11.6956 3.1877Z" fill="black"/>
<path d="M10.2493 13.5938C10.2493 13.5938 12.7017 13.5938 14.4938 12.875C14.9969 12.6875 13.6449 11.5625 13.4249 11.0625C12.4816 8.50003 14.0222 8.12503 13.4249 6.50003C12.7017 4.56253 12.6074 3.25003 11.7271 3.59378C10.8467 3.93753 10.5323 3.68753 10.1236 6.00003C9.96638 7.06253 9.93494 10.875 10.2493 13.5938Z" fill="#FF3B5C"/>
<path d="M12.702 1.74981C12.0732 -0.375193 9.58935 0.718557 10.3439 2.71856C10.6269 3.43731 11.0671 4.09356 11.6959 4.09356C12.3876 4.12481 13.205 3.40606 12.702 1.74981Z" fill="#436CD2"/>
<path d="M12.6076 0.812537C13.0163 1.34379 10.8155 1.06254 11.0356 1.78129C11.35 2.81254 9.84083 1.75004 10.564 2.81254L10.784 3.50004C9.93515 3.59379 9.33778 3.25004 9.18057 2.25004C8.96049 0.875036 10.1552 0.187537 10.6583 0.0625366C11.853 -0.187463 12.2303 0.343787 12.6076 0.812537Z" fill="black"/>
<path d="M11.5386 5.40625C11.5386 5.40625 11.5072 3.84375 10.7526 4.0625C9.998 4.3125 8.39453 15.7188 8.39453 15.7188L8.77182 15.9063C8.74038 15.9063 11.6329 6.5625 11.5386 5.40625Z" fill="#FF3B5C"/>
<path d="M8.39458 15.5312C8.39458 15.5312 7.07407 16.0313 7.1684 16.5313C7.26272 17.0313 8.74043 15.9063 8.74043 15.9063L8.39458 15.5312Z" fill="#436CD2"/>
</svg>
