<svg width="48" height="48" viewBox="0 0 48 48" fill="none" xmlns="http://www.w3.org/2000/svg">
<circle cx="24" cy="24" r="23.5" stroke="white"/>
<path d="M17.7957 28.3706C17.5378 28.3706 17.3286 28.6111 17.3286 28.9077V30.2236C17.3286 30.5202 17.5378 30.7607 17.7957 30.7607C18.0536 30.7607 18.2627 30.5202 18.2627 30.2236V28.9077C18.2627 28.6111 18.0536 28.3706 17.7957 28.3706Z" fill="white"/>
<path d="M26.9553 28.3706C26.6974 28.3706 26.4883 28.6111 26.4883 28.9077V30.2236C26.4883 30.5202 26.6974 30.7607 26.9553 30.7607C27.2132 30.7607 27.4224 30.5202 27.4224 30.2236V28.9077C27.4224 28.6111 27.2132 28.3706 26.9553 28.3706Z" fill="white"/>
<path d="M23.2424 28.3706C22.9845 28.3706 22.7754 28.6111 22.7754 28.9077V30.2236C22.7754 30.5202 22.9845 30.7607 23.2424 30.7607C23.5003 30.7607 23.7095 30.5202 23.7095 30.2236V28.9077C23.7095 28.6111 23.5003 28.3706 23.2424 28.3706Z" fill="white"/>
<path d="M21.5085 28.3706C21.2506 28.3706 21.0415 28.6111 21.0415 28.9077V30.2236C21.0415 30.5202 21.2506 30.7607 21.5085 30.7607C21.7665 30.7607 21.9756 30.5202 21.9756 30.2236V28.9077C21.9756 28.6111 21.7665 28.3706 21.5085 28.3706Z" fill="white"/>
<path d="M19.7747 28.3706C19.5168 28.3706 19.3076 28.6111 19.3076 28.9077V30.2236C19.3076 30.5202 19.5168 30.7607 19.7747 30.7607C20.0326 30.7607 20.2417 30.5202 20.2417 30.2236V28.9077C20.2417 28.6111 20.0326 28.3706 19.7747 28.3706Z" fill="white"/>
<path d="M24.9763 28.3706C24.7184 28.3706 24.5093 28.6111 24.5093 28.9077V30.2236C24.5093 30.5202 24.7184 30.7607 24.9763 30.7607C25.2342 30.7607 25.4434 30.5202 25.4434 30.2236V28.9077C25.4434 28.6111 25.2342 28.3706 24.9763 28.3706Z" fill="white"/>
<path d="M16.0618 28.3706C15.8039 28.3706 15.5947 28.6111 15.5947 28.9077V30.2236C15.5947 30.5202 15.8039 30.7607 16.0618 30.7607C16.3197 30.7607 16.5288 30.5202 16.5288 30.2236V28.9077C16.5288 28.6111 16.3197 28.3706 16.0618 28.3706Z" fill="white"/>
<path d="M28.6892 28.3706C28.4313 28.3706 28.2222 28.6111 28.2222 28.9077V30.2236C28.2222 30.5202 28.4313 30.7607 28.6892 30.7607C28.9471 30.7607 29.1563 30.5202 29.1563 30.2236V28.9077C29.1563 28.6111 28.9471 28.3706 28.6892 28.3706Z" fill="white"/>
<path d="M33.0694 18.3943H32.4651C32.2072 18.3943 31.998 18.6347 31.998 18.9314C31.998 19.228 32.2072 19.4685 32.4651 19.4685H33.0694C33.3273 19.4685 33.5365 19.228 33.5365 18.9314C33.5365 18.6347 33.3274 18.3943 33.0694 18.3943Z" fill="white"/>
<path d="M32.7668 24.9133C32.5089 24.9133 32.2998 25.1538 32.2998 25.4504V25.476C32.2998 25.7726 32.5089 26.0131 32.7668 26.0131C33.0247 26.0131 33.2339 25.7726 33.2339 25.476V25.4504C33.2339 25.1538 33.0247 24.9133 32.7668 24.9133Z" fill="white"/>
<path d="M32.7668 26.501C32.5089 26.501 32.2998 26.7415 32.2998 27.0381V29.2637C32.2998 29.5603 32.5089 29.8008 32.7668 29.8008C33.0247 29.8008 33.2339 29.5603 33.2339 29.2637V27.0381C33.2339 26.7415 33.0247 26.501 32.7668 26.501Z" fill="white"/>
<path d="M26.5327 23.8186H26.5105C26.2526 23.8186 26.0435 24.0591 26.0435 24.3557C26.0435 24.6523 26.2526 24.8928 26.5105 24.8928H26.5327C26.7907 24.8928 26.9998 24.6523 26.9998 24.3557C26.9998 24.0591 26.7907 23.8186 26.5327 23.8186Z" fill="white"/>
<path d="M35.4456 33.4254H34.8151V15.7387C34.8151 15.4421 34.6059 15.2016 34.348 15.2016C34.3356 15.2016 34.3232 15.2007 34.311 15.1995C34.4619 15.1104 34.5654 14.9301 34.5654 14.7217C34.5654 14.5033 34.4521 14.3155 34.2894 14.2315C34.1713 13.9891 34.0267 13.2669 34.0267 13.028V12.3585H34.275C34.5329 12.3585 34.742 12.118 34.742 11.8214C34.742 11.5248 34.5329 11.2843 34.275 11.2843H33.2343V10.8956C33.6413 10.6886 33.9261 10.2202 33.9261 9.67637C33.9261 9.13255 33.6413 8.6641 33.2343 8.4571V7.5371C33.2343 7.24046 33.0252 7 32.7673 7C32.5093 7 32.3002 7.24046 32.3002 7.5371V8.45715C31.8933 8.66415 31.6084 9.13261 31.6084 9.67637C31.6084 10.2201 31.8932 10.6886 32.3002 10.8956V11.2843H31.2596C31.0017 11.2843 30.7926 11.5248 30.7926 11.8214C30.7926 12.118 31.0017 12.3585 31.2596 12.3585H31.5079V13.028C31.5079 13.2668 31.3633 13.989 31.2452 14.2314C31.0825 14.3154 30.9692 14.5033 30.9692 14.7217C30.9692 14.9301 31.0726 15.1104 31.2235 15.1994C31.2114 15.2007 31.1991 15.2016 31.1866 15.2016C30.9287 15.2016 30.7196 15.4421 30.7196 15.7387V23.8187H27.8908C27.6329 23.8187 27.4237 24.0593 27.4237 24.3558C27.4237 24.6525 27.6329 24.8929 27.8908 24.8929H30.7196V26.7727H14.4382L15.5301 24.8929H24.2028C24.4607 24.8929 24.6698 24.6525 24.6698 24.3558C24.6698 24.0593 24.4607 23.8187 24.2028 23.8187H17.1141V21.3415H17.2041C17.462 21.3415 17.6711 21.101 17.6711 20.8044C17.6711 20.586 17.5578 20.3981 17.3951 20.3141C17.277 20.0717 17.1325 19.3495 17.1325 19.1107V18.4412H17.3807C17.6386 18.4412 17.8477 18.2007 17.8477 17.9041C17.8477 17.6075 17.6386 17.367 17.3807 17.367H16.34V16.9783C16.747 16.7713 17.0319 16.3028 17.0319 15.759C17.0319 15.2153 16.747 14.7467 16.34 14.5398V13.6198C16.34 13.3232 16.131 13.0827 15.873 13.0827C15.6151 13.0827 15.406 13.3232 15.406 13.6198V14.5398C14.999 14.7468 14.7142 15.2153 14.7142 15.759C14.7142 16.3028 14.999 16.7712 15.406 16.9782V17.3669H14.3653C14.1074 17.3669 13.8983 17.6074 13.8983 17.904C13.8983 18.2006 14.1074 18.4411 14.3653 18.4411H14.6136V19.1106C14.6136 19.3495 14.469 20.0717 14.351 20.3141C14.1882 20.3981 14.0749 20.586 14.0749 20.8043C14.0749 21.088 14.2663 21.3197 14.5085 21.3395V24.7177L13.1777 27.0089C13.1775 27.0094 13.1772 27.0098 13.1769 27.0102L13.1762 27.0115C13.1758 27.0122 13.1756 27.0129 13.1752 27.0136C13.165 27.0312 13.156 27.0498 13.1476 27.0688C13.1456 27.0735 13.1436 27.0782 13.1417 27.083C13.1346 27.1004 13.1283 27.1183 13.1228 27.1367C13.122 27.1394 13.121 27.1419 13.1203 27.1446C13.1145 27.1655 13.1097 27.1869 13.1061 27.2087C13.1054 27.2133 13.1049 27.2179 13.1043 27.2224C13.1019 27.239 13.1002 27.2558 13.0992 27.2729C13.0988 27.2799 13.0984 27.2868 13.0983 27.2937C13.0981 27.2991 13.0976 27.3044 13.0976 27.3098V33.4254H12.467C12.2091 33.4254 12 33.6659 12 33.9625C12 34.2591 12.2091 34.4996 12.467 34.4996H35.4456V34.4996C35.7035 34.4996 35.9127 34.2592 35.9127 33.9625C35.9126 33.6659 35.7035 33.4254 35.4456 33.4254ZM16.18 23.8187H15.4426V21.3415H16.18V23.8187ZM15.873 15.5005C15.9969 15.5005 16.0978 15.6165 16.0978 15.759C16.0978 15.9015 15.997 16.0175 15.873 16.0175C15.7491 16.0175 15.6483 15.9015 15.6483 15.759C15.6483 15.6165 15.7491 15.5005 15.873 15.5005ZM15.3704 20.2372C15.4714 19.843 15.5477 19.3587 15.5477 19.1107V18.4412H16.1229C16.0268 18.4412 15.8732 18.4412 15.873 18.4412C15.8727 18.4412 16.1593 18.4412 16.1948 18.4412C16.1972 18.4412 16.1984 18.4412 16.1984 18.4412V19.1107C16.1984 19.3586 16.2746 19.8429 16.3757 20.2372C16.3782 20.2468 16.3807 20.2568 16.3834 20.2673H15.3627C15.3654 20.2569 15.3679 20.2468 15.3704 20.2372ZM16.1564 33.4254H15.4426V32.5877C15.4426 32.3614 15.6027 32.1773 15.7995 32.1773C15.9963 32.1773 16.1564 32.3614 16.1564 32.5877V33.4254ZM19.4521 33.4254H18.7383V32.5877C18.7383 32.3614 18.8984 32.1773 19.0952 32.1773C19.292 32.1773 19.4521 32.3614 19.4521 32.5877V33.4254ZM22.7326 33.4254H22.0188V32.5877C22.0188 32.3614 22.1789 32.1773 22.3756 32.1773H22.3757C22.5725 32.1773 22.7326 32.3614 22.7326 32.5877V33.4254ZM26.0282 33.4254H25.3144V32.5877C25.3144 32.3614 25.4745 32.1773 25.6713 32.1773H25.6713C25.8681 32.1773 26.0282 32.3614 26.0282 32.5877V33.4254ZM29.3087 33.4254H28.5949V32.5877C28.5949 32.3614 28.755 32.1773 28.9518 32.1773C29.1486 32.1773 29.3087 32.3614 29.3087 32.5877V33.4254ZM30.7196 33.4254H30.2427V32.5877C30.2427 31.7691 29.6636 31.1031 28.9517 31.1031C28.2399 31.1031 27.6607 31.769 27.6607 32.5877V33.4254H26.9622V32.5877C26.9622 31.7691 26.3831 31.1031 25.6712 31.1031C24.9594 31.1031 24.3802 31.769 24.3802 32.5877V33.4254H23.6665V32.5877C23.6665 31.7691 23.0874 31.1031 22.3755 31.1031C21.6637 31.1031 21.0846 31.769 21.0846 32.5877V33.4254H20.386V32.5877C20.386 31.7691 19.8069 31.1031 19.095 31.1031C18.3832 31.1031 17.804 31.769 17.804 32.5877V33.4254H17.0903V32.5877C17.0903 31.7691 16.5112 31.1031 15.7994 31.1031C15.0875 31.1031 14.5083 31.769 14.5083 32.5877V33.4254H14.0316V27.8469H30.7196V33.4254ZM32.7674 9.41786C32.8913 9.41792 32.9921 9.53388 32.9921 9.67637C32.9921 9.81886 32.8913 9.93487 32.7674 9.93487C32.6435 9.93487 32.5426 9.81891 32.5426 9.67637C32.5426 9.53388 32.6434 9.41786 32.7674 9.41786ZM32.2648 14.1545C32.3658 13.7603 32.4421 13.276 32.4421 13.028V12.3585H33.0924C33.0921 12.3585 33.093 12.3585 33.0927 12.3585V13.028C33.0927 13.276 33.1689 13.7603 33.27 14.1545C33.2725 14.1641 33.275 14.1741 33.2777 14.1847H32.257C32.2597 14.1742 32.2623 14.1641 32.2648 14.1545ZM31.6537 16.1802C32.0238 16.0229 32.3182 15.6844 32.4549 15.2588H33.0798C33.2166 15.6844 33.5109 16.023 33.881 16.1802V16.2187H31.6537V16.1802ZM33.8811 33.4254H31.6537V32.9024H33.8811V33.4254ZM33.8811 31.8282H31.6537V17.2929H33.8811V31.8282Z" fill="white"/>
</svg>
