<svg width="18" height="18" viewBox="0 0 18 18" fill="none" xmlns="http://www.w3.org/2000/svg">
<path d="M16.1942 0.285713H0.948661C0.424107 0.285713 0 0.709821 0 1.23437V16.4799C0 17.0045 0.424107 17.4286 0.948661 17.4286H9.15179V10.7879H6.91964V8.19866H9.15179V6.29018C9.15179 4.08036 10.5134 2.875 12.4888 2.875C13.4263 2.875 14.2411 2.94196 14.4754 2.97545V5.28571L13.1138 5.29688C12.0312 5.29688 11.8304 5.79911 11.8304 6.54687V8.19866H14.3862L14.0513 10.7879H11.8304V17.4286H16.1942C16.7188 17.4286 17.1429 17.0045 17.1429 16.4799V1.23437C17.1429 0.709821 16.7188 0.285713 16.1942 0.285713Z" fill="white"/>
</svg>
