<svg width="48" height="48" viewBox="0 0 48 48" fill="none" xmlns="http://www.w3.org/2000/svg">
<circle cx="24" cy="24" r="23.5" stroke="white"/>
<path d="M37.4743 25.8077H36.1282V24.9103H37.0256V24.0129H32.5385V20.4231H32.9872C33.1062 20.4231 33.2203 20.3759 33.3045 20.2917C33.3886 20.2076 33.4359 20.0934 33.4359 19.9744V18.1795C33.4359 18.0605 33.3886 17.9464 33.3045 17.8623C33.2203 17.7781 33.1062 17.7308 32.9872 17.7308H30.2949V16.3847C30.2949 16.2657 30.2476 16.1515 30.1634 16.0674C30.0793 15.9832 29.9652 15.936 29.8462 15.936H27.6026V15.0385H28.9487V14.1411H25.359V15.0385H26.7051V15.936H24.4615C24.3425 15.936 24.2284 15.9832 24.1443 16.0674C24.0601 16.1515 24.0128 16.2657 24.0128 16.3847V17.7308H23.7077L14.4018 11.084C14.3529 11.0487 14.2974 11.0238 14.2387 11.0106C14.1799 10.9975 14.119 10.9965 14.0598 11.0077C14.0008 11.0185 13.9445 11.0411 13.8943 11.0741C13.8441 11.1071 13.8011 11.1498 13.7677 11.1998L12.8703 12.5459C12.8054 12.6432 12.781 12.762 12.8024 12.877C12.8237 12.992 12.8892 13.0941 12.9847 13.1615L14.1411 13.9782V18.1064C13.9279 18.7346 12.2973 23.4802 11.0898 25.0898C11.0532 25.1386 11.0269 25.1944 11.0126 25.2537C10.9982 25.313 10.9961 25.3746 11.0064 25.4347C11.0167 25.4949 11.0392 25.5523 11.0724 25.6035C11.1056 25.6546 11.149 25.6985 11.1997 25.7324C12.2212 26.3568 13.3926 26.693 14.5898 26.7052C15.7869 26.693 16.9584 26.3568 17.9798 25.7324C18.0306 25.6985 18.0739 25.6546 18.1071 25.6035C18.1404 25.5523 18.1628 25.4949 18.1731 25.4347C18.1834 25.3746 18.1813 25.313 18.167 25.2537C18.1527 25.1944 18.1264 25.1386 18.0898 25.0898C16.8827 23.4807 15.2516 18.7346 15.0385 18.1064V14.6114L19.5409 17.7896C19.1531 17.8861 18.8086 18.1093 18.562 18.4238C18.3154 18.7383 18.1808 19.1261 18.1795 19.5257V19.9744C18.1795 20.0934 18.2268 20.2076 18.3109 20.2917C18.3951 20.3759 18.5092 20.4231 18.6282 20.4231H19.0769V27.6026H11.4488C11.3297 27.6026 11.2156 27.6499 11.1315 27.734C11.0473 27.8182 11 27.9323 11 28.0513V31.1923C11.0001 31.2924 11.0336 31.3897 11.0952 31.4685C11.1568 31.5474 11.243 31.6034 11.3402 31.6276L12.5921 31.9417L12.4229 32.28C12.3149 32.4964 12.2639 32.7368 12.2749 32.9784C12.2858 33.2199 12.3583 33.4547 12.4855 33.6604C12.6127 33.8661 12.7903 34.0359 13.0015 34.1537C13.2127 34.2715 13.4505 34.3333 13.6923 34.3334H32.5385C33.3141 34.3204 34.0678 34.0739 34.7013 33.6262C35.3347 33.1784 35.8186 32.5501 36.0896 31.8232L37.8845 27.7848C37.9099 27.7274 37.9231 27.6654 37.9231 27.6026V26.2565C37.9231 26.1375 37.8758 26.0233 37.7916 25.9392C37.7075 25.855 37.5934 25.8077 37.4743 25.8077ZM14.1411 25.7858C13.4298 25.7156 12.737 25.518 12.0958 25.2024C12.2161 25.0108 12.3381 24.7986 12.4606 24.5697C12.9924 24.8133 13.5597 24.9702 14.1411 25.0346V25.7858ZM14.1411 24.1318C13.7003 24.075 13.2702 23.9541 12.8645 23.7728C12.9887 23.513 13.1121 23.2438 13.2333 22.9696C13.5244 23.0901 13.8293 23.174 14.1411 23.2195V24.1318ZM14.1411 22.3136C13.951 22.2748 13.7652 22.2174 13.5864 22.1422C13.7843 21.6652 13.9714 21.1922 14.1411 20.748V22.3136ZM34.3333 24.9103H35.2308V25.8077H34.3333V24.9103ZM33.8846 26.7052H34.782V27.1539C34.782 27.2729 34.7348 27.387 34.6506 27.4712C34.5665 27.5553 34.4523 27.6026 34.3333 27.6026H33.8846V26.7052ZM33.4359 24.9103V25.8077H32.5385V24.9103H33.4359ZM25.8077 25.8077C25.6887 25.8078 25.5746 25.8551 25.4905 25.9392L23.8271 27.6026H19.9744V24.9103H23.5641C23.6831 24.9103 23.7973 24.863 23.8814 24.7789C23.9656 24.6947 24.0128 24.5806 24.0128 24.4616V21.7693C24.0128 21.6503 23.9656 21.5361 23.8814 21.452C23.7973 21.3678 23.6831 21.3206 23.5641 21.3206H19.9744V20.4231H31.641V21.3206H25.359C25.24 21.3206 25.1258 21.3678 25.0417 21.452C24.9575 21.5361 24.9103 21.6503 24.9103 21.7693V24.4616C24.9103 24.5806 24.9575 24.6947 25.0417 24.7789C25.1258 24.863 25.24 24.9103 25.359 24.9103H31.641V25.8077H25.8077ZM28.5 26.7052V27.6026H28.0513C27.9323 27.6026 27.8181 27.5553 27.734 27.4712C27.6498 27.387 27.6026 27.2729 27.6026 27.1539V26.7052H28.5ZM19.9744 24.0129V22.218H23.1154V24.0129H19.9744ZM31.641 22.218V24.0129H25.8077V22.218H31.641ZM29.3974 26.7052H32.9872V27.6026H29.3974V26.7052ZM24.9103 16.8334H29.3974V17.7308H24.9103V16.8334ZM17.0846 25.2056C16.4434 25.5214 15.7501 25.7181 15.0385 25.7862V25.0476C15.6254 25.003 16.198 24.845 16.7248 24.5823C16.8455 24.8067 16.968 25.0162 17.0846 25.2056ZM16.3187 23.7786C15.9177 23.9773 15.4839 24.1013 15.0385 24.1448V23.2352C15.3544 23.1979 15.6631 23.1138 15.9543 22.9858C16.0741 23.2568 16.1957 23.522 16.3187 23.7786ZM15.6007 22.161C15.4213 22.2418 15.2324 22.2997 15.0385 22.3333V20.748C15.2103 21.1981 15.4002 21.6795 15.6012 22.161H15.6007ZM13.8593 12.6801L14.2573 12.0833L22.1641 17.7308H21.0141L13.8593 12.6801ZM19.9744 18.6283H32.5385V19.5257H19.0769C19.0769 19.2877 19.1715 19.0594 19.3398 18.8911C19.5081 18.7228 19.7364 18.6283 19.9744 18.6283ZM32.5385 33.4359H13.6923C13.6034 33.4358 13.5159 33.413 13.4383 33.3696C13.3606 33.3263 13.2953 33.2638 13.2486 33.1881C13.2018 33.1124 13.1752 33.026 13.1712 32.9372C13.1672 32.8483 13.1859 32.7599 13.2257 32.6803L13.5209 32.0898H34.9207C34.6684 32.496 34.318 32.8322 33.9017 33.0674C33.4854 33.3027 33.0166 33.4294 32.5385 33.4359ZM35.3883 31.1923H13.2979L11.8975 30.8419V30.2949H35.7867L35.3883 31.1923ZM37.0256 27.5075L36.1856 29.3975H11.8975V28.5H24.0128C24.1318 28.5 24.2459 28.4527 24.3301 28.3686L25.9935 26.7052H26.7051V27.1539C26.7051 27.5109 26.847 27.8533 27.0994 28.1058C27.3519 28.3582 27.6943 28.5 28.0513 28.5H34.3333C34.6903 28.5 35.0327 28.3582 35.2852 28.1058C35.5376 27.8533 35.6795 27.5109 35.6795 27.1539V26.7052H37.0256V27.5075Z" fill="white"/>
<path d="M21.7695 25.8076H20.8721V26.7051H21.7695V25.8076Z" fill="white"/>
<path d="M23.5639 25.8076H22.6665V26.7051H23.5639V25.8076Z" fill="white"/>
</svg>
