<svg width="18" height="18" viewBox="0 0 18 18" fill="none" xmlns="http://www.w3.org/2000/svg">
<path d="M11.4286 8.85714C11.4286 10.4308 10.1451 11.7143 8.57143 11.7143C6.99777 11.7143 5.71429 10.4308 5.71429 8.85714C5.71429 7.28348 6.99777 6 8.57143 6C10.1451 6 11.4286 7.28348 11.4286 8.85714ZM12.9688 8.85714C12.9688 6.42411 11.0045 4.45982 8.57143 4.45982C6.13839 4.45982 4.17411 6.42411 4.17411 8.85714C4.17411 11.2902 6.13839 13.2545 8.57143 13.2545C11.0045 13.2545 12.9688 11.2902 12.9688 8.85714ZM14.1741 4.28125C14.1741 3.71205 13.7165 3.25446 13.1473 3.25446C12.5781 3.25446 12.1205 3.71205 12.1205 4.28125C12.1205 4.85045 12.5781 5.30804 13.1473 5.30804C13.7165 5.30804 14.1741 4.85045 14.1741 4.28125ZM8.57143 1.82589C9.82143 1.82589 12.5 1.72545 13.6272 2.17187C14.0179 2.32812 14.308 2.51786 14.6094 2.8192C14.9107 3.12054 15.1004 3.41071 15.2567 3.80134C15.7031 4.92857 15.6027 7.60714 15.6027 8.85714C15.6027 10.1071 15.7031 12.7857 15.2567 13.9129C15.1004 14.3036 14.9107 14.5938 14.6094 14.8951C14.308 15.1964 14.0179 15.3862 13.6272 15.5424C12.5 15.9888 9.82143 15.8884 8.57143 15.8884C7.32143 15.8884 4.64286 15.9888 3.51563 15.5424C3.125 15.3862 2.83482 15.1964 2.53348 14.8951C2.23214 14.5938 2.04241 14.3036 1.88616 13.9129C1.43973 12.7857 1.54018 10.1071 1.54018 8.85714C1.54018 7.60714 1.43973 4.92857 1.88616 3.80134C2.04241 3.41071 2.23214 3.12054 2.53348 2.8192C2.83482 2.51786 3.125 2.32812 3.51563 2.17187C4.64286 1.72545 7.32143 1.82589 8.57143 1.82589ZM17.1429 8.85714C17.1429 7.67411 17.154 6.50223 17.0871 5.3192C17.0201 3.94643 16.7076 2.72991 15.7031 1.72545C14.6987 0.720981 13.4821 0.408481 12.1094 0.341518C10.9263 0.274553 9.75446 0.285713 8.57143 0.285713C7.38839 0.285713 6.21652 0.274553 5.03348 0.341518C3.66071 0.408481 2.4442 0.720981 1.43973 1.72545C0.435268 2.72991 0.122768 3.94643 0.0558036 5.3192C-0.0111607 6.50223 0 7.67411 0 8.85714C0 10.0402 -0.0111607 11.2121 0.0558036 12.3951C0.122768 13.7679 0.435268 14.9844 1.43973 15.9888C2.4442 16.9933 3.66071 17.3058 5.03348 17.3728C6.21652 17.4397 7.38839 17.4286 8.57143 17.4286C9.75446 17.4286 10.9263 17.4397 12.1094 17.3728C13.4821 17.3058 14.6987 16.9933 15.7031 15.9888C16.7076 14.9844 17.0201 13.7679 17.0871 12.3951C17.154 11.2121 17.1429 10.0402 17.1429 8.85714Z" fill="white"/>
</svg>
