<svg width="18" height="18" viewBox="0 0 18 18" fill="none" xmlns="http://www.w3.org/2000/svg">
<path d="M2.64509 14.6384V6.89286H5.22321V14.6384H2.64509ZM5.39062 4.50446C5.39062 5.24107 4.83259 5.84375 3.92857 5.84375H3.91741C3.04688 5.84375 2.48884 5.24107 2.48884 4.50446C2.48884 3.74554 3.0692 3.16518 3.95089 3.16518C4.83259 3.16518 5.37946 3.74554 5.39062 4.50446ZM11.9196 14.6384V10.4978C11.9196 9.44866 11.5513 8.74554 10.625 8.74554C9.91071 8.74554 9.48661 9.22545 9.29688 9.68304C9.22991 9.85045 9.21875 10.0848 9.21875 10.308V14.6384H6.64062C6.67411 7.6183 6.64062 6.89286 6.64062 6.89286H9.21875V8.02009H9.19643C9.53125 7.48437 10.1451 6.71429 11.529 6.71429C13.2254 6.71429 14.4978 7.8192 14.4978 10.1964V14.6384H11.9196ZM17.1429 3.5C17.1429 1.72545 15.7031 0.285713 13.9286 0.285713H3.21429C1.43973 0.285713 0 1.72545 0 3.5V14.2143C0 15.9888 1.43973 17.4286 3.21429 17.4286H13.9286C15.7031 17.4286 17.1429 15.9888 17.1429 14.2143V3.5Z" fill="white"/>
</svg>
