<svg width="20" height="15" viewBox="0 0 20 15" fill="none" xmlns="http://www.w3.org/2000/svg">
<path d="M7.93527 10.4464V4.83259L13.3371 7.65625L7.93527 10.4464ZM10 0.825893C5.79241 0.825893 3.00223 1.02679 3.00223 1.02679C2.61161 1.07143 1.75223 1.07143 0.993304 1.875C0.993304 1.875 0.379464 2.47768 0.200893 3.86161C-0.0111607 5.47991 0 7.09821 0 7.09821V8.61607C0 8.61607 -0.0111607 10.2344 0.200893 11.8527C0.379464 13.2254 0.993304 13.8393 0.993304 13.8393C1.75223 14.6317 2.7567 14.6094 3.20312 14.6875C3.20312 14.6875 4.79911 14.8438 10 14.8884C14.2076 14.8884 16.9978 14.6763 16.9978 14.6763C17.3884 14.6317 18.2478 14.6317 19.0067 13.8393C19.0067 13.8393 19.6205 13.2254 19.7991 11.8527C20.0112 10.2344 20 8.61607 20 8.61607V7.09821C20 7.09821 20.0112 5.47991 19.7991 3.86161C19.6205 2.47768 19.0067 1.875 19.0067 1.875C18.2478 1.07143 17.3884 1.07143 16.9978 1.02679C16.9978 1.02679 14.2076 0.825893 10 0.825893Z" fill="white"/>
</svg>
